{
.appVersion = "3151";
.formatVersion = 3;
customParameters = (
{
name = blueScale;
value = 0.01627;
}
);
date = "2023-05-13 22:00:00 +0000";
familyName = "ET Book";
featurePrefixes = (
{
automatic = 1;
code = "languagesystem DFLT dflt;

languagesystem latn dflt;
";
name = Languagesystems;
}
);
features = (
{
automatic = 1;
code = "feature sups;
feature frac;
feature ordn;
feature tnum;
feature case;
";
tag = aalt;
},
{
automatic = 1;
code = "lookup ccmp_latn_1 {
	sub fi by f i;
	sub fl by f l;
} ccmp_latn_1;

script latn;
lookup ccmp_latn_1;
";
tag = ccmp;
},
{
automatic = 1;
code = "sub one by onesuperior;
sub two by twosuperior;
sub three by threesuperior;
";
tag = sups;
},
{
automatic = 1;
code = "sub one slash four by onequarter;
sub one slash two by onehalf;
sub three slash four by threequarters;
";
tag = frac;
},
{
automatic = 1;
code = "sub [zero one two three four five six seven eight nine] [A a]' by ordfeminine;
sub [zero one two three four five six seven eight nine] [O o]' by ordmasculine;
";
tag = ordn;
},
{
automatic = 1;
code = "sub zero by zero.tf;
sub one by one.tf;
sub two by two.tf;
sub three by three.tf;
sub four by four.tf;
sub five by five.tf;
sub six by six.tf;
sub seven by seven.tf;
sub eight by eight.tf;
sub nine by nine.tf;
";
tag = tnum;
},
{
automatic = 1;
code = "sub zero by zero.tf;
sub one by one.tf;
sub two by two.tf;
sub three by three.tf;
sub four by four.tf;
sub five by five.tf;
sub six by six.tf;
sub seven by seven.tf;
sub eight by eight.tf;
sub nine by nine.tf;
";
tag = case;
},
{
automatic = 1;
code = "lookupflag IgnoreMarks;
sub f f i by f_f_i;
sub f f l by f_f_l;
sub f f by f_f;
sub f i by fi;
sub f l by fl;
";
tag = liga;
}
);
fontMaster = (
{
customParameters = (
{
name = underlinePosition;
value = -111;
},
{
name = "Alignment Zones";
value = (
{
pos = "-4";
size = "-8";
},
{
pos = 376;
size = 62;
},
{
pos = 593;
size = 19;
},
{
pos = 679;
size = 9;
},
{
pos = "-249";
size = "-11";
}
);
}
);
id = m01;
metricValues = (
{

glyphs = (
{
glyphname = A;
lastChange = "2023-05-15 06:41:04 +0000";
layers = (
{
hints = (
{
horizontal = 1;
place = (-3, 54);
place = (-3, 54);
type = Stem;
},
{
horizontal = 1;
place = (274, 76);
place = (274, 76);
type = Stem;
},
{
horizontal = 1;
place = (672, -20);
target = down;
type = TopGhost;
}
);
layerId = m01;
shapes = (
{
closed = 1;
nodes = (
(692,-5,o),
(696,12,o),
(696,23,c),
(696,35,o),
(691,51,o),
(677,51,c),
(670,51,l),
(631,51,o),
(625,58,o),
(610,100,c),
(601,125,o),
(592,150,o),
(582,176,c),
(560,232,o),
(514,354,o),
(398,657,c),
(389,670,o),
(374,672,o),
(359,672,c),
(355,672,o),
(350,672,o),
(346,672,c),
(344,672,o),
(322,672,o),
(313,672,c),
(297,670,o),
(286,660,o),
(289,651,c),
(295,629,l),
(111,137,l),
(107,126,o),
(102,112,o),
(95,97,c),
(77,55,o),
(74,54,o),
(28,54,c),
(0,54,o),
(3,1,o),
(27,-3,c),
(32,-3,o),
(36,-3,o),
(40,-3,c),
(93,0,o),
(194,-2,o),
(252,-3,c),
(258,-3,o),
(268,9,o),
(270,23,c),
(270,37,o),
(262,52,o),
(254,53,c),
(245,55,o),
(239,54,o),
(233,53,c),
(216,52,o),
(174,48,o),
(174,69,c),
(174,77,o),
(174,86,o),
(179,96,c),
(194,136,o),
(222,211,o),
(240,263,c),
(244,268,o),
(248,274,o),
(255,274,c),
(292,274,o),
(360,275,o),
(405,274,c),
(413,274,o),
(420,270,o),
(421,268,c),
(445,206,o),
(464,153,o),
(488,91,c),
(497,66,o),
(492,57,o),
(463,55,c),
(452,55,o),
(440,54,o),
(422,54,c),
(410,54,o),
(391,50,o),
(391,27,c),
(391,12,o),
(394,-4,o),
(413,-3,c),
(483,-1,o),
(612,-1,o),
(676,-4,c)
);
},
{
closed = 1;
nodes = (
(283,350,o),
(272,350,o),
(275,356,c),
(289,395,o),
(312,450,o),
(328,501,c),
(329,503,o),
(336,507,o),
(339,498,c),
(354,450,o),
(372,397,o),
(386,360,c),
(388,356,o),
(381,350,o),
(376,350,c),
(347,351,o),
(324,351,o),
(289,350,c)
);
}
);
width = 711;
}
);
unicode = 65;
},
{
glyphname = Aacute;
lastChange = "2023-05-15 06:07:10 +0000";
layers = (
{
hints = (
{
horizontal = 1;
place = (-3, 54);
place = (-3, 54);
type = Stem;
},
{
horizontal = 1;
place = (274, 76);
place = (274, 76);
type = Stem;
}
);
layerId = m01;
shapes = (
{
closed = 1;
nodes = (
(692,-5,o),
(696,12,o),
(696,23,c),
(696,35,o),
(691,51,o),
(677,51,c),
(670,51,l),
(631,51,o),
(625,58,o),
(610,100,c),
(601,125,o),
(592,150,o),
(582,176,c),
(560,232,o),
(514,354,o),
(398,657,c),
(389,670,o),
(374,672,o),
(359,672,c),
(355,672,o),
(350,672,o),
(346,672,c),
(344,672,o),
(322,672,o),
(313,672,c),
(297,670,o),
(286,660,o),
(289,651,c),
(295,629,l),
(111,137,l),
(107,126,o),
(102,112,o),
(95,97,c),
(77,55,o),
(74,54,o),
(28,54,c),
(0,54,o),
(3,1,o),
(27,-3,c),
(32,-3,o),
(36,-3,o),
(40,-3,c),
(93,0,o),
(194,-2,o),
(252,-3,c),
(258,-3,o),
(268,9,o),
(270,23,c),
(270,37,o),
(262,52,o),
(254,53,c),
(245,55,o),
(239,54,o),
(233,53,c),
(216,52,o),
(174,48,o),
(174,69,c),
(174,77,o),
(174,86,o),
(179,96,c),
(194,136,o),
(222,211,o),
(240,263,c),
(244,268,o),
(248,274,o),
(255,274,c),
(292,274,o),
(360,275,o),
(405,274,c),
(413,274,o),
(420,270,o),
(421,268,c),
(445,206,o),
(464,153,o),
(488,91,c),
(497,66,o),
(492,57,o),
(463,55,c),
(452,55,o),
(440,54,o),
(422,54,c),
(410,54,o),
(391,50,o),
(391,27,c),
(391,12,o),
(394,-4,o),
(413,-3,c),
(483,-1,o),
(612,-1,o),
(676,-4,c)
);
},
{
closed = 1;
nodes = (
(283,350,o),
(272,350,o),
(275,356,c),
(289,395,o),
(312,450,o),
(328,501,c),
(329,503,o),
(336,507,o),
(339,498,c),
(354,450,o),
(372,397,o),
(386,360,c),
(388,356,o),
(381,350,o),
(376,350,c),
(347,351,o),
(324,351,o),
(289,350,c)
);
},
{
closed = 1;
nodes = (
(476,902,l),
(479,905,o),
(479,909,o),
(480,913,c),
(482,926,o),
(473,933,o),
(451,934,c),
(433,935,o),
(405,933,o),
(369,933,c),
(358,933,o),
(345,926,o),
(341,913,c),
(292,753,l),
(284,726,o),
(325,722,o),
(335,734,c)
);
}
);
width = 709;
}
);
unicode = 193;
},
{
glyphname = Acircumflex;
lastChange = "2023-05-15 06:07:10 +0000";
layers = (
{
hints = (
{
horizontal = 1;
place = (-3, 54);
place = (-3, 54);
type = Stem;
},
{
horizontal = 1;
place = (274, 76);
place = (274, 76);
type = Stem;
}
);
layerId = m01;
shapes = (
{
closed = 1;
nodes = (
(692,-5,o),
(696,12,o),
(696,23,c),
(696,35,o),
(691,51,o),
(677,51,c),
(670,51,l),
(631,51,o),
(625,58,o),
(610,100,c),
(601,125,o),
(592,150,o),
(582,176,c),
(560,232,o),
(514,354,o),
(398,657,c),
(389,670,o),
(374,672,o),
(359,672,c),
(355,672,o),
(350,672,o),
(346,672,c),
(344,672,o),
(322,672,o),
(313,672,c),
(297,670,o),
(286,660,o),
(289,651,c),
(295,629,l),
(111,137,l),
(107,126,o),
(102,112,o),
(95,97,c),
(77,55,o),
(74,54,o),
(28,54,c),
(0,54,o),
(3,1,o),
(27,-3,c),
(32,-3,o),
(36,-3,o),
(40,-3,c),
(93,0,o),
(194,-2,o),
(252,-3,c),
(258,-3,o),
(268,9,o),
(270,23,c),
(270,37,o),
(262,52,o),
(254,53,c),
(245,55,o),
(239,54,o),
(233,53,c),
(216,52,o),
(174,48,o),
(174,69,c),
(174,77,o),
(174,86,o),
(179,96,c),
(194,136,o),
(222,211,o),
(240,263,c),
(244,268,o),
(248,274,o),
(255,274,c),
(292,274,o),
(360,275,o),
(405,274,c),
(413,274,o),
(420,270,o),
(421,268,c),
(445,206,o),
(464,153,o),
(488,91,c),
(497,66,o),
(492,57,o),
(463,55,c),
(452,55,o),
(440,54,o),
(422,54,c),
(410,54,o),
(391,50,o),
(391,27,c),
(391,12,o),
(394,-4,o),
(413,-3,c),
(483,-1,o),
(612,-1,o),
(676,-4,c)
);
},
{
closed = 1;
nodes = (
(283,350,o),
(272,350,o),
(275,356,c),
(289,395,o),
(312,450,o),
(328,501,c),
(329,503,o),
(336,507,o),
(339,498,c),
(354,450,o),
(372,397,o),
(386,360,c),
(388,356,o),
(381,350,o),
(376,350,c),
(347,351,o),
(324,351,o),
(289,350,c)
);
},
{
closed = 1;
nodes = (
(502,709,o),
(499,725,o),
(495,733,c),
(408,881,l),
(402,892,o),
(396,895,o),
(383,896,c),
(370,897,o),
(315,896,o),
(306,895,c),
(299,892,o),
(291,888,o),
(287,880,c),
(199,728,l),
(188,708,o),
(223,695,o),
(239,709,c),
(345,805,l),
(458,709,l),
(465,703,o),
(479,703,o),
(487,705,c)
);
}
);
width = 709;
}
);
unicode = 194;
},
{
glyphname = Adieresis;
lastChange = "2023-05-15 06:07:10 +0000";
layers = (
{
hints = (
{
horizontal = 1;
place = (-3, 54);
place = (-3, 54);
type = Stem;
},
{
horizontal = 1;
place = (274, 76);
place = (274, 76);
type = Stem;
},
{
horizontal = 1;
place = (723, 138);
place = (723, 138);
type = Stem;
},
{
place = (198, 140);
place = (198, 140);
type = Stem;
},
{
place = (372, 140);
place = (372, 140);
type = Stem;
}
);
layerId = m01;
shapes = (
{
closed = 1;
nodes = (
(692,-5,o),
(696,12,o),
(696,23,c),
(696,35,o),
(691,51,o),
(677,51,c),
(670,51,l),
(631,51,o),
(625,58,o),
(610,100,c),
(601,125,o),
(592,150,o),
(582,176,c),
(560,232,o),
(514,354,o),
(398,657,c),
(389,670,o),
(374,672,o),
(359,672,c),
(355,672,o),
(350,672,o),
(346,672,c),
(344,672,o),
(322,672,o),
(313,672,c),
(297,670,o),
(286,660,o),
(289,651,c),
(295,629,l),
(111,137,l),
(107,126,o),
(102,112,o),
(95,97,c),
(77,55,o),
(74,54,o),
(28,54,c),
(0,54,o),
(3,1,o),
(27,-3,c),
(32,-3,o),
(36,-3,o),
(40,-3,c),
(93,0,o),
(194,-2,o),
(252,-3,c),
(258,-3,o),
(268,9,o),
(270,23,c),
(270,37,o),
(262,52,o),
(254,53,c),
(245,55,o),
(239,54,o),
(233,53,c),
(216,52,o),
(174,48,o),
(174,69,c),
(174,77,o),
(174,86,o),
(179,96,c),
(194,136,o),
(222,211,o),
(240,263,c),
(244,268,o),
(248,274,o),
(255,274,c),
(292,274,o),
(360,275,o),
(405,274,c),
(413,274,o),
(420,270,o),
(421,268,c),
(445,206,o),
(464,153,o),
(488,91,c),
(497,66,o),
(492,57,o),
(463,55,c),
(452,55,o),
(440,54,o),
(422,54,c),
(410,54,o),
(391,50,o),
(391,27,c),
(391,12,o),
(394,-4,o),
(413,-3,c),
(483,-1,o),
(612,-1,o),
(676,-4,c)
);
},
{
closed = 1;
nodes = (
(283,350,o),
(272,350,o),
(275,356,c),
(289,395,o),
(312,450,o),
(328,501,c),
(329,503,o),
(336,507,o),
(339,498,c),
(354,450,o),
(372,397,o),
(386,360,c),
(388,356,o),
(381,350,o),
(376,350,c),
(347,351,o),
(324,351,o),
(289,350,c)
);
},
{
closed = 1;
nodes = (
(305,723,o),
(338,753,o),
(338,792,c),
(338,830,o),
(305,861,o),
(267,861,c),
(229,861,o),
(198,830,o),
(198,792,c),
(198,753,o),
(229,723,o),
(267,723,c)
);
},
{
closed = 1;
nodes = (
(482,723,o),
(512,754,o),
(512,792,c),
(512,830,o),
(482,861,o),
(442,861,c),
(403,861,o),
(372,830,o),
(372,792,c),
(372,754,o),
(403,723,o),
(442,723,c)
);
}
);
width = 709;
}
);
unicode = 196;
},
{
glyphname = Agrave;
lastChange = "2023-05-15 06:07:10 +0000";
layers = (
{
hints = (
{
horizontal = 1;
place = (921, -20);
target = down;
type = TopGhost;
},
{
horizontal = 1;
place = (-3, 54);
place = (-3, 54);
type = Stem;
},
{
horizontal = 1;
place = (274, 76);
place = (274, 76);
type = Stem;
},
{
horizontal = 1;
place = (920, -20);
target = down;
type = TopGhost;
}
);
layerId = m01;
shapes = (
{
closed = 1;
nodes = (
(692,-5,o),
(696,12,o),
(696,23,c),
(696,35,o),
(691,51,o),
(677,51,c),
(670,51,l),
(631,51,o),
(625,58,o),
(610,100,c),
(601,125,o),
(592,150,o),
(582,176,c),
(560,232,o),
(514,354,o),
(398,657,c),
(389,670,o),
(374,672,o),
(359,672,c),
(355,672,o),
(350,672,o),
(346,672,c),
(344,672,o),
(322,672,o),
(313,672,c),
(297,670,o),
(286,660,o),
(289,651,c),
(295,629,l),
(111,137,l),
(107,126,o),
(102,112,o),
(95,97,c),
(77,55,o),
(74,54,o),
(28,54,c),
(0,54,o),
(3,1,o),
(27,-3,c),
(32,-3,o),
(36,-3,o),
(40,-3,c),
(93,0,o),
(194,-2,o),
(252,-3,c),
(258,-3,o),
(268,9,o),
(270,23,c),
(270,37,o),
(262,52,o),
(254,53,c),
(245,55,o),
(239,54,o),
(233,53,c),
(216,52,o),
(174,48,o),
(174,69,c),
(174,77,o),
(174,86,o),
(179,96,c),
(194,136,o),
(222,211,o),
(240,263,c),
(244,268,o),
(248,274,o),
(255,274,c),
(292,274,o),
(360,275,o),
(405,274,c),
(413,274,o),
(420,270,o),
(421,268,c),
(445,206,o),
(464,153,o),
(488,91,c),
(497,66,o),
(492,57,o),
(463,55,c),
(452,55,o),
(440,54,o),
(422,54,c),
(410,54,o),
(391,50,o),
(391,27,c),
(391,12,o),
(394,-4,o),
(413,-3,c),
(483,-1,o),
(612,-1,o),
(676,-4,c)
);
},
{
closed = 1;
nodes = (
(283,350,o),
(272,350,o),
(275,356,c),
(289,395,o),
(312,450,o),
(328,501,c),
(329,503,o),
(336,507,o),
(339,498,c),
(354,450,o),
(372,397,o),
(386,360,c),
(388,356,o),
(381,350,o),
(376,350,c),
(347,351,o),
(324,351,o),
(289,350,c)
);
},
{
closed = 1;
nodes = (
(385,720,o),
(418,717,o),
(418,745,c),
(406,789,o),
(384,863,o),
(367,907,c),
(361,920,o),
(351,921,o),
(339,921,c),
(264,920,l),
(251,920,o),
(225,903,o),
(242,884,c),
(284,839,o),
(342,771,o),
(374,730,c)
);
}
);
width = 709;
}
);
unicode = 192;
},
{
glyphname = Aring;
lastChange = "2023-05-15 06:07:10 +0000";
layers = (
{
hints = (
{
horizontal = 1;
place = (-3, 54);
place = (-3, 54);
type = Stem;
},
{
horizontal = 1;
place = (274, 76);
place = (274, 76);
type = Stem;
},
{
horizontal = 1;
place = (724, 65);
place = (724, 65);
type = Stem;
},
{
horizontal = 1;
place = (874, 64);
place = (874, 64);
type = Stem;
},
{
place = (239, 65);
place = (239, 65);
type = Stem;
},
{
place = (388, 65);
place = (388, 65);
type = Stem;
}
);
layerId = m01;
shapes = (
{
closed = 1;
nodes = (
(692,-5,o),
(696,12,o),
(696,23,c),
(696,35,o),
(691,51,o),
(677,51,c),
(670,51,l),
(631,51,o),
(625,58,o),
(610,100,c),
(601,125,o),
(592,150,o),
(582,176,c),
(560,232,o),
(514,354,o),
(398,657,c),
(389,670,o),
(374,671,o),
(359,671,c),
(355,671,o),
(350,671,o),
(346,671,c),
(344,671,o),
(322,671,o),
(313,671,c),
(297,669,o),
(286,660,o),
(289,651,c),
(295,629,l),
(111,137,l),
(107,126,o),
(102,112,o),
(95,97,c),
(77,55,o),
(74,54,o),
(28,54,c),
(0,54,o),
(3,1,o),
(27,-3,c),
(32,-3,o),
(36,-3,o),
(40,-3,c),
(93,0,o),
(194,-2,o),
(252,-3,c),
(258,-3,o),
(268,9,o),
(270,23,c),
(270,37,o),
(262,52,o),
(254,53,c),
(245,55,o),
(239,54,o),
(233,53,c),
(216,52,o),
(174,48,o),
(174,69,c),
(174,77,o),
(174,86,o),
(179,96,c),
(194,136,o),
(222,211,o),
(240,263,c),
(244,268,o),
(248,274,o),
(255,274,c),
(292,274,o),
(360,275,o),
(405,274,c),
(413,274,o),
(420,270,o),
(421,268,c),
(445,206,o),
(464,153,o),
(488,91,c),
(497,66,o),
(492,57,o),
(463,55,c),
(452,55,o),
(440,54,o),
(422,54,c),
(410,54,o),
(391,50,o),
(391,27,c),
(391,12,o),
(394,-4,o),
(413,-3,c),
(483,-1,o),
(612,-1,o),
(676,-4,c)
);
},
{
closed = 1;
nodes = (
(283,350,o),
(272,350,o),
(275,356,c),
(289,395,o),
(312,450,o),
(328,501,c),
(329,503,o),
(336,507,o),
(339,498,c),
(354,450,o),
(372,397,o),
(386,360,c),
(388,356,o),
(381,350,o),
(376,350,c),
(347,351,o),
(324,351,o),
(289,350,c)
);
},
{
closed = 1;
nodes = (
(405,724,o),
(453,772,o),
(453,831,c),
(453,890,o),
(405,938,o),
(347,938,c),
(287,938,o),
(239,890,o),
(239,831,c),
(239,772,o),
(287,724,o),
(347,724,c)
);
},
{
closed = 1;
nodes = (
(323,789,o),
(304,808,o),
(304,831,c),
(304,855,o),
(323,874,o),
(347,874,c),
(369,874,o),
(388,855,o),
(388,831,c),
(388,807,o),
(369,789,o),
(347,789,c)
);
}
);
width = 709;
}
);
unicode = 197;
},
{
glyphname = Atilde;
lastChange = "2023-05-15 06:07:10 +0000";
layers = (
{
hints = (
{
horizontal = 1;
place = (739, 90);
place = (739, 90);
type = Stem;
},
{
horizontal = 1;
place = (899, -20);
target = down;
type = TopGhost;
},
{
horizontal = 1;
place = (-3, 54);
place = (-3, 54);
type = Stem;
},
{
horizontal = 1;
place = (274, 76);
place = (274, 76);
type = Stem;
}
);
layerId = m01;
shapes = (
{
closed = 1;
nodes = (
(692,-5,o),
(696,12,o),
(696,23,c),
(696,35,o),
(691,51,o),
(677,51,c),
(670,51,l),
(631,51,o),
(625,58,o),
(610,100,c),
(601,125,o),
(592,150,o),
(582,176,c),
(560,232,o),
(514,354,o),
(398,657,c),
(389,670,o),
(374,672,o),
(359,672,c),
(355,672,o),
(350,672,o),
(346,672,c),
(344,672,o),
(322,672,o),
(313,672,c),
(297,670,o),
(286,660,o),
(289,651,c),
(295,629,l),
(111,137,l),
(107,126,o),
(102,112,o),
(95,97,c),
(77,55,o),
(74,54,o),
(28,54,c),
(0,54,o),
(3,1,o),
(27,-3,c),
(32,-3,o),
(36,-3,o),
(40,-3,c),
(93,0,o),
(194,-2,o),
(252,-3,c),
(258,-3,o),
(268,9,o),
(270,23,c),
(270,37,o),
(262,52,o),
(254,53,c),
(245,55,o),
(239,54,o),
(233,53,c),
(216,52,o),
(174,48,o),
(174,69,c),
(174,77,o),
(174,86,o),
(179,96,c),
(194,136,o),
(222,211,o),
(240,263,c),
(244,268,o),
(248,274,o),
(255,274,c),
(292,274,o),
(360,275,o),
(405,274,c),
(413,274,o),
(420,270,o),
(421,268,c),
(445,206,o),
(464,153,o),
(488,91,c),
(497,66,o),
(492,57,o),
(463,55,c),
(452,55,o),
(440,54,o),
(422,54,c),
(410,54,o),
(391,50,o),
(391,27,c),
(391,12,o),
(394,-4,o),
(413,-3,c),
(483,-1,o),
(612,-1,o),
(676,-4,c)
);
},
{
closed = 1;
nodes = (
(283,350,o),
(272,350,o),
(275,356,c),
(289,395,o),
(312,450,o),
(328,501,c),
(329,503,o),
(336,507,o),
(339,498,c),
(354,450,o),
(372,397,o),
(386,360,c),
(388,356,o),
(381,350,o),
(376,350,c),
(347,351,o),
(324,351,o),
(289,350,c)
);
},
{
closed = 1;
nodes = (
(472,739,o),
(514,798,o),
(514,870,c),
(514,873,o),
(514,878,o),
(512,885,c),
(511,898,o),
(496,899,o),
(490,899,c),
(447,897,o),
(475,829,o),
(439,829,c),
(430,829,o),
(417,833,o),
(387,853,c),
(342,884,o),
(318,894,o),
(285,894,c),
(217,894,o),
(183,838,o),
(179,752,c),
(183,724,o),
(220,737,o),
(226,750,c),
(226,756,o),
(229,762,o),
(229,769,c),
(237,802,o),
(244,806,o),
(255,806,c),
(264,806,o),
(270,804,o),
(307,779,c),
(344,753,o),
(378,739,o),
(407,739,c)
);
}
);
width = 709;
}
);
unicode = 195;
},
{
glyphname = AE;
lastChange = "2023-05-15 06:07:10 +0000";
layers = (
{
hints = (
{
horizontal = 1;
place = (-4, 68);
place = (-4, 68);
type = Stem;
},
{
place = (423, 117);
place = (423, 117);
type = Stem;
},
{
horizontal = 1;
place = (302, 70);
place = (302, 70);
type = Stem;
},
{
horizontal = 1;
place = (590, 68);
place = (590, 68);
type = Stem;
},
{
horizontal = 1;
place = (607, -20);
target = down;
type = TopGhost;
},
{
horizontal = 1;
place = (-6, 21);
target = up;
type = BottomGhost;
},
{
horizontal = 1;
place = (246, 69);
place = (246, 69);
type = Stem;
},
{
horizontal = 1;
place = (-4, 51);
place = (-4, 51);
type = Stem;
}
);
layerId = m01;
shapes = (
{
closed = 1;
nodes = (
(13,-3,o),
(119,-6,o),
(171,-6,c),
(185,-6,o),
(194,1,o),
(193,16,c),
(192,32,o),
(193,47,o),
(170,47,c),
(118,47,o),
(117,59,o),
(117,64,c),
(117,70,o),
(118,77,o),
(138,110,c),
(218,239,l),
(221,244,o),
(222,246,o),
(229,246,c),
(410,246,l),
(417,246,o),
(423,242,o),
(423,239,c),
(423,141,l),
(422,106,l),
(420,36,o),
(346,59,o),
(310,49,c),
(298,46,o),
(291,42,o),
(291,32,c),
(291,17,l),
(291,-2,o),
(309,-4,o),
(316,-4,c),
(465,-4,o),
(742,-2,o),
(827,-4,c),
(838,-4,o),
(864,-2,o),
(866,23,c),
(869,49,o),
(875,67,o),
(879,149,c),
(880,162,o),
(878,178,o),
(859,178,c),
(846,178,l),
(830,178,o),
(829,173,o),
(826,161,c),
(820,135,o),
(809,111,o),
(793,90,c),
(777,69,o),
(768,66,o),
(705,64,c),
(669,63,o),
(632,61,o),
(603,64,c),
(550,64,o),
(540,65,o),
(540,125,c),
(540,283,l),
(540,294,o),
(544,302,o),
(549,302,c),
(668,304,l),
(726,305,o),
(732,302,o),
(740,244,c),
(741,234,o),
(745,224,o),
(758,224,c),
(764,223,o),
(770,223,o),
(777,225,c),
(792,225,o),
(795,234,o),
(794,249,c),
(792,293,o),
(793,378,o),
(793,423,c),
(793,434,o),
(787,448,o),
(774,448,c),
(769,448,o),
(765,447,o),
(761,448,c),
(745,448,o),
(741,439,o),
(739,429,c),
(732,396,o),
(727,386,o),
(720,381,c),
(710,374,o),
(678,374,o),
(666,374,c),
(555,372,l),
(545,372,o),
(540,383,o),
(540,387,c),
(540,583,l),
(540,587,o),
(546,590,o),
(558,590,c),
(710,590,l),
(738,590,l),
(757,590,o),
(770,583,o),
(784,520,c),
(787,506,o),
(790,488,o),
(809,488,c),
(824,488,l),
(831,488,o),
(839,491,o),
(839,501,c),
(840,503,o),
(840,506,o),
(840,507,c),
(837,550,o),
(833,594,o),
(831,637,c),
(830,650,o),
(809,658,o),
(796,658,c),
(716,661,o),
(424,654,o),
(299,658,c),
(283,658,o),
(277,651,o),
(275,640,c),
(274,626,l),
(273,611,o),
(285,607,o),
(298,607,c),
(338,607,o),
(339,604,o),
(339,594,c),
(339,585,o),
(332,575,o),
(327,567,c),
(239,423,o),
(150,278,o),
(63,135,c),
(21,66,o),
(3,52,o),
(-36,48,c),
(-49,47,o),
(-64,44,o),
(-61,25,c),
(-59,11,o),
(-56,-7,o),
(-37,-6,c)
);
},
{
closed = 1;
nodes = (
(272,315,o),
(266,318,o),
(269,324,c),
(318,408,o),
(375,502,o),
(417,567,c),
(421,572,o),
(423,571,o),
(423,565,c),
(423,331,l),
(423,325,o),
(414,315,o),
(407,315,c),
(275,315,l)
);
}
);
width = 915;
}
);
unicode = 198;
},
{
glyphname = B;
lastChange = "2023-05-15 06:07:10 +0000";
layers = (
{
hints = (
{
place = (491, 129);
place = (491, 129);
type = Stem;
},
{
horizontal = 1;
place = (-4, 62);
place = (-4, 62);
type = Stem;
},
{
horizontal = 1;
place = (339, 55);
place = (339, 55);
type = Stem;
},
{
horizontal = 1;
place = (597, -20);
target = down;
type = TopGhost;
},
{
place = (137, 121);
place = (137, 121);
type = Stem;
},
{
place = (456, 126);
place = (456, 126);
type = Stem;
}
);
layerId = m01;
shapes = (
{
closed = 1;
nodes = (
(119,-2,o),
(228,-2,o),
(325,-4,c),
(409,-6,o),
(427,0,o),
(459,6,c),
(549,23,o),
(620,109,o),
(620,203,c),
(620,275,o),
(572,332,o),
(501,366,c),
(497,368,o),
(494,371,o),
(500,374,c),
(548,399,o),
(582,445,o),
(582,498,c),
(582,555,o),
(545,607,o),
(488,632,c),
(441,653,o),
(418,660,o),
(331,660,c),
(228,660,o),
(144,662,o),
(41,651,c),
(28,650,o),
(25,597,o),
(42,597,c),
(65,597,l),
(80,597,o),
(111,599,o),
(123,587,c),
(133,577,o),
(137,556,o),
(137,509,c),
(137,139,l),
(137,63,o),
(130,54,o),
(58,54,c),
(50,56,o),
(39,54,o),
(31,53,c),
(20,49,o),
(6,-2,o),
(34,-4,c)
);
},
{
closed = 1;
nodes = (
(290,58,o),
(268,75,o),
(263,105,c),
(260,120,o),
(258,148,o),
(258,181,c),
(258,320,l),
(258,327,o),
(264,337,o),
(271,339,c),
(325,339,o),
(373,348,o),
(422,319,c),
(465,294,o),
(491,248,o),
(491,197,c),
(491,119,o),
(437,58,o),
(357,58,c)
);
},
{
closed = 1;
nodes = (
(271,394,o),
(258,396,o),
(258,403,c),
(258,596,l),
(258,603,o),
(262,607,o),
(267,609,c),
(319,613,o),
(373,619,o),
(417,583,c),
(442,562,o),
(456,530,o),
(456,492,c),
(456,379,o),
(350,394,o),
(272,394,c)
);
}
);
width = 656;
}
);
unicode = 66;
},
{
glyphname = C;
lastChange = "2023-05-15 06:41:04 +0000";
layers = (
{
hints = (
{
horizontal = 1;
place = (-19, 62);
place = (-19, 62);
type = Stem;
},
{
horizontal = 1;
place = (607, 58);
place = (607, 58);
type = Stem;
},
{
place = (48, 135);
place = (48, 135);
type = Stem;
}
);
layerId = m01;
shapes = (
{
closed = 1;
nodes = (
(450,-19,o),
(491,-17,o),
(529,-5,c),
(558,4,o),
(571,9,o),
(602,9,c),
(608,9,o),
(611,9,o),
(630,5,c),
(661,56,o),
(688,117,o),
(704,169,c),
(711,194,o),
(663,196,o),
(653,177,c),
(629,133,o),
(621,125,o),
(596,103,c),
(551,62,o),
(507,43,o),
(443,43,c),
(291,43,o),
(183,167,o),
(183,338,c),
(183,504,o),
(277,607,o),
(429,607,c),
(527,607,o),
(594,553,o),
(626,460,c),
(638,442,o),
(671,450,o),
(676,471,c),
(675,491,o),
(676,509,o),
(676,531,c),
(677,554,o),
(675,582,o),
(666,621,c),
(663,634,o),
(634,634,o),
(626,628,c),
(618,621,o),
(607,625,o),
(598,628,c),
(530,651,o),
(496,665,o),
(423,665,c),
(203,665,o),
(48,522,o),
(48,317,c),
(48,123,o),
(199,-19,o),
(412,-19,c)
);
}
);
width = 762;
}
);
unicode = 67;
},
{
glyphname = Ccedilla;
lastChange = "2023-05-15 06:07:10 +0000";
layers = (
{
hints = (
{
horizontal = 1;
place = (-261, 42);
place = (-261, 42);
type = Stem;
},
{
horizontal = 1;
place = (607, 58);
place = (607, 58);
type = Stem;
},
{
place = (48, 133);
place = (48, 133);
type = Stem;
},
{
place = (404, 70);
place = (404, 70);
type = Stem;
}
);
layerId = m01;
shapes = (
{
closed = 1;
nodes = (
(423,-261,o),
(474,-198,o),
(474,-144,c),
(474,-107,o),
(453,-76,o),
(422,-64,c),
(420,-63,o),
(410,-60,o),
(411,-56,c),
(427,-28,l),
(429,-24,o),
(434,-21,o),
(439,-21,c),
(468,-20,o),
(498,-16,o),
(527,-7,c),
(555,2,o),
(569,7,o),
(600,7,c),
(606,7,o),
(609,7,o),
(628,2,c),
(638,1,o),
(688,122,o),
(702,167,c),
(709,192,o),
(661,194,o),
(651,176,c),
(627,131,o),
(619,123,o),
(594,101,c),
(549,60,o),
(505,41,o),
(441,41,c),
(289,41,o),
(181,165,o),
(181,336,c),
(181,503,o),
(275,607,o),
(427,607,c),
(525,607,o),
(592,552,o),
(624,459,c),
(636,441,o),
(669,449,o),
(674,471,c),
(673,490,o),
(674,509,o),
(674,531,c),
(675,554,o),
(673,582,o),
(664,621,c),
(661,634,o),
(632,634,o),
(624,628,c),
(616,621,o),
(605,624,o),
(596,627,c),
(528,651,o),
(494,665,o),
(421,665,c),
(201,665,o),
(48,523,o),
(48,317,c),
(48,134,o),
(179,-4,o),
(372,-20,c),
(375,-20,o),
(378,-25,o),
(375,-31,c),
(319,-122,l),
(313,-131,o),
(312,-140,o),
(315,-146,c),
(318,-153,o),
(323,-155,o),
(331,-152,c),
(366,-134,o),
(374,-134,o),
(383,-134,c),
(393,-134,o),
(404,-147,o),
(404,-164,c),
(404,-183,o),
(378,-219,o),
(358,-219,c),
(346,-219,o),
(328,-206,o),
(320,-220,c),
(318,-223,o),
(315,-229,o),
(314,-231,c),
(309,-240,o),
(314,-249,o),
(331,-256,c),
(348,-262,o),
(355,-261,o),
(368,-261,c)
);
}
);
width = 762;
}
);
unicode = 199;
},
{
glyphname = D;
lastChange = "2023-05-15 06:41:04 +0000";
layers = (
{
hints = (
{
place = (597, 130);
place = (597, 130);
type = Stem;
},
{
horizontal = 1;
place = (597, 62);
place = (597, 62);
type = Stem;
},
{
place = (106, 120);
place = (106, 120);
type = Stem;
},
{
horizontal = 1;
place = (-4, 21);
target = up;
type = BottomGhost;
},
{
horizontal = 1;
place = (-3, 57);
place = (-3, 57);
type = Stem;
}
);
layerId = m01;
shapes = (
{
closed = 1;
nodes = (
(279,-3,l),
(351,-3,o),
(405,-2,o),
(476,18,c),
(624,60,o),
(727,196,o),
(727,345,c),
(727,445,o),
(683,531,o),
(603,588,c),
(530,639,o),
(452,659,o),
(322,659,c),
(224,659,o),
(129,655,o),
(31,651,c),
(22,649,l),
(10,645,o),
(5,597,o),
(25,597,c),
(34,597,l),
(75,597,o),
(91,593,o),
(98,583,c),
(109,568,o),
(106,526,o),
(106,509,c),
(106,140,l),
(106,122,o),
(108,102,o),
(102,85,c),
(91,51,o),
(55,59,o),
(27,55,c),
(3,48,o),
(-4,-4,o),
(43,-4,c)
);
},
{
closed = 1;
nodes = (
(231,54,o),
(226,69,o),
(226,109,c),
(226,591,l),
(226,597,o),
(234,604,o),
(241,605,c),
(283,607,o),
(306,607,o),
(348,603,c),
(425,595,o),
(460,582,o),
(501,550,c),
(561,505,o),
(597,423,o),
(597,330,c),
(597,131,o),
(472,54,o),
(291,54,c)
);
}
);
width = 773;
}
);
unicode = 68;
},
{
glyphname = Eth;
lastChange = "2023-05-15 06:07:10 +0000";
layers = (
{
hints = (
{
place = (627, 135);
place = (627, 135);
type = Stem;
},
{
horizontal = 1;
place = (604, 63);
place = (604, 63);
type = Stem;
},
{
place = (116, 117);
place = (116, 117);
type = Stem;
},
{
horizontal = 1;
place = (295, 84);
place = (295, 84);
type = Stem;
},
{
horizontal = 1;
place = (-5, 52);
place = (-5, 52);
type = Stem;
},
{
horizontal = 1;
place = (380, -20);
target = down;
type = TopGhost;
}
);
layerId = m01;
shapes = (
{
closed = 1;
nodes = (
(109,-4,o),
(234,-5,o),
(287,-5,c),
(424,-5,o),
(436,-3,o),
(502,16,c),
(650,58,o),
(762,196,o),
(762,348,c),
(762,450,o),
(712,537,o),
(632,595,c),
(559,648,o),
(474,667,o),
(344,667,c),
(269,667,o),
(194,667,o),
(120,664,c),
(39,661,l),
(23,658,o),
(15,650,o),
(15,632,c),
(15,618,o),
(21,604,o),
(40,604,c),
(111,604,o),
(116,603,o),
(116,515,c),
(116,397,l),
(116,388,o),
(110,379,o),
(106,379,c),
(31,379,l),
(1,379,o),
(6,354,o),
(6,354,c),
(6,320,l),
(6,307,o),
(7,296,o),
(22,294,c),
(106,295,l),
(113,295,o),
(116,290,o),
(116,285,c),
(116,226,o),
(117,164,o),
(115,105,c),
(114,59,o),
(104,52,o),
(50,52,c),
(35,52,o),
(27,58,o),
(17,40,c),
(13,33,o),
(14,21,o),
(14,13,c),
(14,-1,o),
(28,-7,o),
(37,-6,c)
);
},
{
closed = 1;
nodes = (
(234,47,o),
(233,52,o),
(233,106,c),
(233,281,l),
(233,291,o),
(238,295,o),
(242,295,c),
(383,296,l),
(401,296,o),
(405,297,o),
(409,315,c),
(409,352,l),
(409,365,o),
(406,380,o),
(382,380,c),
(376,380,o),
(292,377,o),
(263,378,c),
(239,379,o),
(233,378,o),
(233,395,c),
(233,602,l),
(233,611,o),
(238,615,o),
(247,616,c),
(258,617,o),
(268,615,o),
(278,615,c),
(314,615,o),
(336,613,o),
(371,610,c),
(448,602,o),
(488,589,o),
(529,558,c),
(589,512,o),
(627,428,o),
(627,332,c),
(627,216,o),
(566,114,o),
(473,72,c),
(428,51,o),
(396,47,o),
(303,47,c)
);
}
);
width = 795;
}
);
unicode = 208;
},
{
glyphname = E;
lastChange = "2023-05-15 06:07:10 +0000";
layers = (
{
hints = (
{
horizontal = 1;
place = (-3, 69);
place = (-3, 69);
type = Stem;
},
{
place = (143, 119);
place = (143, 119);
type = Stem;
},
{
horizontal = 1;
place = (301, 68);
place = (301, 68);
type = Stem;
},
{
horizontal = 1;
place = (586, 64);
place = (586, 64);
type = Stem;
},
{
horizontal = 1;
place = (595, -20);
target = down;
type = TopGhost;
},
{
horizontal = 1;
place = (-2, 21);
target = up;
type = BottomGhost;
}
);
layerId = m01;
shapes = (
{
closed = 1;
nodes = (
(173,-1,o),
(390,-1,o),
(521,-2,c),
(538,-2,o),
(567,-3,o),
(570,21,c),
(575,62,o),
(580,95,o),
(583,120,c),
(586,143,o),
(587,160,o),
(583,168,c),
(579,177,o),
(561,179,o),
(549,178,c),
(542,176,o),
(534,172,o),
(531,160,c),
(523,126,o),
(510,100,o),
(497,86,c),
(484,70,o),
(475,66,o),
(401,66,c),
(330,66,l),
(291,66,o),
(276,67,o),
(269,74,c),
(266,77,o),
(264,83,o),
(263,93,c),
(262,103,o),
(262,116,o),
(262,134,c),
(262,287,l),
(262,292,o),
(265,302,o),
(278,302,c),
(375,301,l),
(446,301,o),
(448,298,o),
(457,238,c),
(460,221,o),
(507,215,o),
(508,248,c),
(508,291,o),
(510,372,o),
(508,422,c),
(502,454,o),
(463,446,o),
(459,433,c),
(450,369,o),
(448,369,o),
(378,369,c),
(275,369,l),
(273,369,o),
(262,369,o),
(262,379,c),
(262,573,l),
(262,581,o),
(271,586,o),
(275,586,c),
(316,588,o),
(366,586,o),
(399,585,c),
(473,584,o),
(481,579,o),
(493,504,c),
(493,499,o),
(494,487,o),
(507,485,c),
(522,480,o),
(544,485,o),
(546,497,c),
(544,526,o),
(545,560,o),
(537,631,c),
(535,644,o),
(520,650,o),
(508,650,c),
(413,652,o),
(201,651,o),
(71,650,c),
(60,650,o),
(51,652,o),
(45,640,c),
(41,633,o),
(35,619,o),
(41,610,c),
(50,593,o),
(62,595,o),
(77,595,c),
(137,595,o),
(143,574,o),
(143,508,c),
(143,140,l),
(143,65,o),
(128,58,o),
(81,57,c),
(66,57,o),
(53,58,o),
(38,56,c),
(19,54,o),
(5,3,o),
(36,-2,c),
(41,-3,l)
);
}
);
width = 619;
}
);
unicode = 69;
},
{
glyphname = Eacute;
lastChange = "2023-05-15 06:07:10 +0000";
layers = (
{
hints = (
{
horizontal = 1;
place = (908, -20);
target = down;
type = TopGhost;
},
{
horizontal = 1;
place = (-3, 69);
place = (-3, 69);
type = Stem;
},
{
horizontal = 1;
place = (301, 68);
place = (301, 68);
type = Stem;
},
{
horizontal = 1;
place = (586, 64);
place = (586, 64);
type = Stem;
},
{
place = (143, 119);
place = (143, 119);
type = Stem;
},
{
horizontal = 1;
place = (907, -20);
target = down;
type = TopGhost;
},
{
horizontal = 1;
place = (595, -20);
target = down;
type = TopGhost;
},
{
horizontal = 1;
place = (-2, 21);
target = up;
type = BottomGhost;
}
);
layerId = m01;
shapes = (
{
closed = 1;
nodes = (
(173,-1,o),
(390,-1,o),
(521,-2,c),
(538,-2,o),
(567,-3,o),
(570,21,c),
(575,62,o),
(580,95,o),
(583,120,c),
(586,143,o),
(587,160,o),
(583,168,c),
(579,177,o),
(561,179,o),
(549,178,c),
(542,176,o),
(534,172,o),
(531,160,c),
(523,126,o),
(510,100,o),
(497,86,c),
(484,70,o),
(475,66,o),
(401,66,c),
(330,66,l),
(291,66,o),
(276,67,o),
(269,74,c),
(266,77,o),
(264,83,o),
(263,93,c),
(262,103,o),
(262,116,o),
(262,134,c),
(262,287,l),
(262,292,o),
(265,302,o),
(278,302,c),
(375,301,l),
(446,301,o),
(448,298,o),
(457,238,c),
(460,221,o),
(507,215,o),
(508,248,c),
(508,291,o),
(510,372,o),
(508,422,c),
(502,454,o),
(463,446,o),
(459,433,c),
(450,369,o),
(448,369,o),
(378,369,c),
(275,369,l),
(273,369,o),
(262,369,o),
(262,379,c),
(262,573,l),
(262,581,o),
(271,586,o),
(275,586,c),
(316,588,o),
(366,586,o),
(399,585,c),
(473,584,o),
(481,579,o),
(493,504,c),
(493,499,o),
(494,487,o),
(507,485,c),
(522,480,o),
(544,485,o),
(546,497,c),
(544,526,o),
(545,560,o),
(537,631,c),
(535,644,o),
(520,650,o),
(508,650,c),
(413,652,o),
(201,651,o),
(71,650,c),
(60,650,o),
(51,652,o),
(45,640,c),
(41,633,o),
(35,619,o),
(41,610,c),
(50,593,o),
(62,595,o),
(77,595,c),
(137,595,o),
(143,574,o),
(143,508,c),
(143,140,l),
(143,65,o),
(128,58,o),
(81,57,c),
(66,57,o),
(53,58,o),
(38,56,c),
(19,54,o),
(5,3,o),
(36,-2,c),
(41,-3,l)
);
},
{
closed = 1;
nodes = (
(424,876,l),
(426,879,o),
(426,882,o),
(428,885,c),
(430,903,o),
(415,908,o),
(404,908,c),
(319,907,l),
(309,907,o),
(296,900,o),
(292,887,c),
(244,727,l),
(236,699,o),
(272,696,o),
(282,708,c)
);
}
);
width = 619;
}
);
unicode = 201;
},
{
glyphname = Ecircumflex;
lastChange = "2023-05-15 06:07:10 +0000";
layers = (
{
hints = (
{
horizontal = 1;
place = (-3, 69);
place = (-3, 69);
type = Stem;
},
{
place = (143, 119);
place = (143, 119);
type = Stem;
},
{
horizontal = 1;
place = (301, 68);
place = (301, 68);
type = Stem;
},
{
horizontal = 1;
place = (586, 64);
place = (586, 64);
type = Stem;
},
{
horizontal = 1;
place = (595, -20);
target = down;
type = TopGhost;
},
{
horizontal = 1;
place = (-2, 21);
target = up;
type = BottomGhost;
}
);
layerId = m01;
shapes = (
{
closed = 1;
nodes = (
(173,-1,o),
(390,-1,o),
(521,-2,c),
(538,-2,o),
(567,-3,o),
(570,21,c),
(575,62,o),
(580,95,o),
(583,120,c),
(586,143,o),
(587,160,o),
(583,168,c),
(579,177,o),
(561,179,o),
(549,178,c),
(542,176,o),
(534,172,o),
(531,160,c),
(523,126,o),
(510,100,o),
(497,86,c),
(484,70,o),
(475,66,o),
(401,66,c),
(330,66,l),
(291,66,o),
(276,67,o),
(269,74,c),
(266,77,o),
(264,83,o),
(263,93,c),
(262,103,o),
(262,116,o),
(262,134,c),
(262,287,l),
(262,292,o),
(265,302,o),
(278,302,c),
(375,301,l),
(446,301,o),
(448,298,o),
(457,238,c),
(460,221,o),
(507,215,o),
(508,248,c),
(508,291,o),
(510,372,o),
(508,422,c),
(502,454,o),
(463,446,o),
(459,433,c),
(450,369,o),
(448,369,o),
(378,369,c),
(275,369,l),
(273,369,o),
(262,369,o),
(262,379,c),
(262,573,l),
(262,581,o),
(271,586,o),
(275,586,c),
(316,588,o),
(366,586,o),
(399,585,c),
(473,584,o),
(481,579,o),
(493,504,c),
(493,499,o),
(494,487,o),
(507,485,c),
(522,480,o),
(544,485,o),
(546,497,c),
(544,526,o),
(545,560,o),
(537,631,c),
(535,644,o),
(520,650,o),
(508,650,c),
(413,652,o),
(201,651,o),
(71,650,c),
(60,650,o),
(51,652,o),
(45,640,c),
(41,633,o),
(35,619,o),
(41,610,c),
(50,593,o),
(62,595,o),
(77,595,c),
(137,595,o),
(143,574,o),
(143,508,c),
(143,140,l),
(143,65,o),
(128,58,o),
(81,57,c),
(66,57,o),
(53,58,o),
(38,56,c),
(19,54,o),
(5,3,o),
(36,-2,c),
(41,-3,l)
);
},
{
closed = 1;
nodes = (
(468,722,o),
(465,738,o),
(460,746,c),
(374,894,l),
(368,905,o),
(363,908,o),
(349,909,c),
(336,910,o),
(281,909,o),
(272,908,c),
(265,905,o),
(257,901,o),
(253,893,c),
(167,741,l),
(155,721,o),
(189,708,o),
(205,722,c),
(311,818,l),
(424,722,l),
(431,716,o),
(445,716,o),
(453,718,c)
);
}
);
width = 619;
}
);
unicode = 202;
},
{
glyphname = Edieresis;
lastChange = "2023-05-15 06:07:10 +0000";
layers = (
{
hints = (
{
horizontal = 1;
place = (712, 132);
place = (712, 132);
type = Stem;
},
{
place = (327, 133);
place = (327, 133);
type = Stem;
},
{
place = (162, 133);
place = (162, 133);
type = Stem;
},
{
horizontal = 1;
place = (-3, 69);
place = (-3, 69);
type = Stem;
},
{
horizontal = 1;
place = (301, 68);
place = (301, 68);
type = Stem;
},
{
horizontal = 1;
place = (586, 64);
place = (586, 64);
type = Stem;
},
{
place = (143, 119);
place = (143, 119);
type = Stem;
},
{
horizontal = 1;
place = (595, -20);
target = down;
type = TopGhost;
},
{
horizontal = 1;
place = (-2, 21);
target = up;
type = BottomGhost;
}
);
layerId = m01;
shapes = (
{
closed = 1;
nodes = (
(173,-1,o),
(390,-1,o),
(521,-2,c),
(538,-2,o),
(567,-3,o),
(570,21,c),
(575,62,o),
(580,95,o),
(583,120,c),
(586,143,o),
(587,160,o),
(583,168,c),
(579,177,o),
(561,179,o),
(549,178,c),
(542,176,o),
(534,172,o),
(531,160,c),
(523,126,o),
(510,100,o),
(497,86,c),
(484,70,o),
(475,66,o),
(401,66,c),
(330,66,l),
(291,66,o),
(276,67,o),
(269,74,c),
(266,77,o),
(264,83,o),
(263,93,c),
(262,103,o),
(262,116,o),
(262,134,c),
(262,287,l),
(262,292,o),
(265,302,o),
(278,302,c),
(375,301,l),
(446,301,o),
(448,298,o),
(457,238,c),
(460,221,o),
(507,215,o),
(508,248,c),
(508,291,o),
(510,372,o),
(508,422,c),
(502,454,o),
(463,446,o),
(459,433,c),
(450,369,o),
(448,369,o),
(378,369,c),
(275,369,l),
(273,369,o),
(262,369,o),
(262,379,c),
(262,573,l),
(262,581,o),
(271,586,o),
(275,586,c),
(316,588,o),
(366,586,o),
(399,585,c),
(473,584,o),
(481,579,o),
(493,504,c),
(493,499,o),
(494,487,o),
(507,485,c),
(522,480,o),
(544,485,o),
(546,497,c),
(544,526,o),
(545,560,o),
(537,631,c),
(535,644,o),
(520,650,o),
(508,650,c),
(413,652,o),
(201,651,o),
(71,650,c),
(60,650,o),
(51,652,o),
(45,640,c),
(41,633,o),
(35,619,o),
(41,610,c),
(50,593,o),
(62,595,o),
(77,595,c),
(137,595,o),
(143,574,o),
(143,508,c),
(143,140,l),
(143,65,o),
(128,58,o),
(81,57,c),
(66,57,o),
(53,58,o),
(38,56,c),
(19,54,o),
(5,3,o),
(36,-2,c),
(41,-3,l)
);
},
{
closed = 1;
nodes = (
(264,712,o),
(295,740,o),
(295,778,c),
(295,814,o),
(265,844,o),
(228,844,c),
(191,844,o),
(162,814,o),
(162,778,c),
(162,740,o),
(193,712,o),
(228,712,c)
);
},
{
closed = 1;
nodes = (
(431,712,o),
(460,742,o),
(460,778,c),
(460,814,o),
(431,844,o),
(393,844,c),
(357,844,o),
(327,814,o),
(327,778,c),
(327,742,o),
(357,712,o),
(393,712,c)
);
}
);
width = 619;
}
);
unicode = 203;
},
{
glyphname = Egrave;
lastChange = "2023-05-15 06:07:10 +0000";
layers = (
{
hints = (
{
horizontal = 1;
place = (901, -20);
target = down;
type = TopGhost;
},
{
horizontal = 1;
place = (-3, 69);
place = (-3, 69);
type = Stem;
},
{
horizontal = 1;
place = (301, 68);
place = (301, 68);
type = Stem;
},
{
horizontal = 1;
place = (586, 64);
place = (586, 64);
type = Stem;
},
{
place = (143, 119);
place = (143, 119);
type = Stem;
},
{
horizontal = 1;
place = (900, -20);
target = down;
type = TopGhost;
},
{
horizontal = 1;
place = (595, -20);
target = down;
type = TopGhost;
},
{
horizontal = 1;
place = (-2, 21);
target = up;
type = BottomGhost;
}
);
layerId = m01;
shapes = (
{
closed = 1;
nodes = (
(173,-1,o),
(390,-1,o),
(521,-2,c),
(538,-2,o),
(567,-3,o),
(570,21,c),
(575,62,o),
(580,95,o),
(583,120,c),
(586,143,o),
(587,160,o),
(583,168,c),
(579,177,o),
(561,179,o),
(549,178,c),
(542,176,o),
(534,172,o),
(531,160,c),
(523,126,o),
(510,100,o),
(497,86,c),
(484,70,o),
(475,66,o),
(401,66,c),
(330,66,l),
(291,66,o),
(276,67,o),
(269,74,c),
(266,77,o),
(264,83,o),
(263,93,c),
(262,103,o),
(262,116,o),
(262,134,c),
(262,287,l),
(262,292,o),
(265,302,o),
(278,302,c),
(375,301,l),
(446,301,o),
(448,298,o),
(457,238,c),
(460,221,o),
(507,215,o),
(508,248,c),
(508,291,o),
(510,372,o),
(508,422,c),
(502,454,o),
(463,446,o),
(459,433,c),
(450,369,o),
(448,369,o),
(378,369,c),
(275,369,l),
(273,369,o),
(262,369,o),
(262,379,c),
(262,573,l),
(262,581,o),
(271,586,o),
(275,586,c),
(316,588,o),
(366,586,o),
(399,585,c),
(473,584,o),
(481,579,o),
(493,504,c),
(493,499,o),
(494,487,o),
(507,485,c),
(522,480,o),
(544,485,o),
(546,497,c),
(544,526,o),
(545,560,o),
(537,631,c),
(535,644,o),
(520,650,o),
(508,650,c),
(413,652,o),
(201,651,o),
(71,650,c),
(60,650,o),
(51,652,o),
(45,640,c),
(41,633,o),
(35,619,o),
(41,610,c),
(50,593,o),
(62,595,o),
(77,595,c),
(137,595,o),
(143,574,o),
(143,508,c),
(143,140,l),
(143,65,o),
(128,58,o),
(81,57,c),
(66,57,o),
(53,58,o),
(38,56,c),
(19,54,o),
(5,3,o),
(36,-2,c),
(41,-3,l)
);
},
{
closed = 1;
nodes = (
(340,702,o),
(375,694,o),
(375,725,c),
(365,768,o),
(342,842,o),
(326,887,c),
(317,901,o),
(306,901,o),
(298,901,c),
(222,900,l),
(209,900,o),
(184,882,o),
(200,864,c),
(243,818,o),
(301,751,o),
(332,710,c)
);
}
);
width = 619;
}
);
unicode = 200;
},
{
glyphname = F;
lastChange = "2023-05-15 06:07:10 +0000";
layers = (
{
hints = (
{
horizontal = 1;
place = (-3, 53);
place = (-3, 53);
type = Stem;
},
{
horizontal = 1;
place = (313, 68);
place = (313, 68);
type = Stem;
},
{
horizontal = 1;
place = (583, 67);
place = (583, 67);
type = Stem;
},
{
place = (113, 118);
place = (113, 118);
type = Stem;
},
{
place = (451, 50);
place = (451, 50);
type = Stem;
}
);
layerId = m01;
shapes = (
{
closed = 1;
nodes = (
(131,-1,o),
(229,-1,o),
(302,-3,c),
(313,-3,o),
(320,10,o),
(320,23,c),
(320,37,o),
(318,50,o),
(304,52,c),
(293,52,l),
(241,52,o),
(231,61,o),
(231,106,c),
(231,299,l),
(231,304,o),
(240,312,o),
(248,313,c),
(277,312,o),
(325,312,o),
(353,313,c),
(425,315,o),
(430,308,o),
(435,251,c),
(438,223,o),
(481,240,o),
(483,251,c),
(485,302,o),
(483,417,o),
(483,426,c),
(480,450,o),
(437,444,o),
(434,423,c),
(430,384,o),
(427,381,o),
(357,381,c),
(316,380,o),
(291,378,o),
(251,381,c),
(242,383,o),
(230,381,o),
(230,397,c),
(231,572,l),
(233,581,o),
(247,583,o),
(251,583,c),
(354,583,l),
(438,583,o),
(447,574,o),
(451,523,c),
(451,515,o),
(453,508,o),
(462,506,c),
(473,503,o),
(486,501,o),
(501,511,c),
(504,622,l),
(504,635,o),
(491,650,o),
(478,650,c),
(365,651,o),
(171,651,o),
(58,650,c),
(31,653,o),
(31,602,o),
(52,597,c),
(101,595,o),
(113,587,o),
(113,542,c),
(113,106,l),
(113,61,o),
(104,53,o),
(52,50,c),
(35,47,o),
(29,-4,o),
(56,-3,c)
);
}
);
width = 543;
}
);
unicode = 70;
},
{
glyphname = G;
lastChange = "2023-05-15 06:41:04 +0000";
layers = (
{
hints = (
{
horizontal = 1;
place = (-19, 57);
place = (-19, 57);
type = Stem;
},
{
horizontal = 1;
place = (243, 55);
place = (243, 55);
type = Stem;
},
{
horizontal = 1;
place = (612, 55);
place = (612, 55);
type = Stem;
},
{
place = (50, 130);
place = (50, 130);
type = Stem;
},
{
place = (547, 112);
place = (547, 112);
type = Stem;
}
);
layerId = m01;
shapes = (
{
closed = 1;
nodes = (
(471,-19,o),
(580,9,o),
(649,43,c),
(662,50,o),
(663,69,o),
(663,79,c),
(662,108,o),
(662,163,o),
(663,189,c),
(664,234,o),
(668,240,o),
(709,245,c),
(714,244,o),
(724,245,o),
(729,249,c),
(734,254,o),
(733,262,o),
(735,270,c),
(736,278,o),
(736,299,o),
(715,298,c),
(649,298,o),
(517,296,o),
(443,298,c),
(408,294,o),
(426,244,o),
(443,244,c),
(481,243,l),
(536,242,o),
(547,233,o),
(547,188,c),
(547,157,o),
(547,116,o),
(547,90,c),
(547,84,o),
(548,70,o),
(541,68,c),
(501,50,o),
(459,38,o),
(418,38,c),
(275,38,o),
(180,151,o),
(180,319,c),
(180,502,o),
(273,612,o),
(429,612,c),
(530,612,o),
(586,560,o),
(607,458,c),
(611,440,o),
(658,433,o),
(659,461,c),
(662,511,o),
(661,626,o),
(654,637,c),
(650,646,o),
(626,646,o),
(620,638,c),
(615,633,o),
(613,632,o),
(607,632,c),
(601,632,o),
(596,632,o),
(579,637,c),
(506,659,o),
(468,667,o),
(414,667,c),
(307,667,o),
(237,638,o),
(167,574,c),
(96,508,o),
(50,414,o),
(50,314,c),
(50,124,o),
(188,-19,o),
(386,-19,c)
);
}
);
width = 763;
}
);
unicode = 71;
},
{
glyphname = H;
lastChange = "2023-05-15 06:07:10 +0000";
layers = (
{
hints = (
{
horizontal = 1;
place = (-3, 59);
place = (-3, 59);
type = Stem;
},
{
place = (559, 117);
place = (559, 117);
type = Stem;
},
{
horizontal = 1;
place = (596, -20);
target = down;
type = TopGhost;
},
{
horizontal = 1;
place = (599, 51);
place = (599, 51);
type = Stem;
},
{
horizontal = 1;
place = (294, 66);
place = (294, 66);
type = Stem;
},
{
place = (111, 117);
place = (111, 117);
type = Stem;
},
{
horizontal = 1;
place = (598, -20);
target = down;
type = TopGhost;
}
);
layerId = m01;
shapes = (
{
closed = 1;
nodes = (
(109,-3,o),
(234,-1,o),
(298,-3,c),
(332,2,o),
(324,57,o),
(297,54,c),
(288,54,l),
(238,54,o),
(228,62,o),
(228,106,c),
(228,280,l),
(228,290,o),
(237,294,o),
(238,294,c),
(341,294,o),
(444,293,o),
(541,294,c),
(546,294,o),
(558,292,o),
(559,287,c),
(559,106,l),
(559,65,o),
(543,55,o),
(494,55,c),
(470,55,l),
(447,55,o),
(444,26,o),
(448,13,c),
(450,2,o),
(460,-3,o),
(471,-3,c),
(604,-3,o),
(682,-1,o),
(751,-3,c),
(776,-4,o),
(795,56,o),
(741,56,c),
(691,56,o),
(676,69,o),
(676,106,c),
(676,200,o),
(673,394,o),
(676,542,c),
(678,586,o),
(700,593,o),
(732,596,c),
(734,596,o),
(738,596,o),
(741,597,c),
(770,603,o),
(759,651,o),
(732,650,c),
(673,648,o),
(556,655,o),
(484,653,c),
(473,653,o),
(464,651,o),
(457,638,c),
(453,626,o),
(454,602,o),
(473,599,c),
(515,597,o),
(559,599,o),
(559,542,c),
(559,484,o),
(560,436,o),
(559,377,c),
(559,367,o),
(544,361,o),
(540,360,c),
(431,359,o),
(340,360,o),
(240,360,c),
(234,360,o),
(228,365,o),
(228,375,c),
(228,542,l),
(228,582,o),
(240,599,o),
(293,599,c),
(303,600,o),
(312,600,o),
(315,612,c),
(317,623,o),
(319,635,o),
(310,644,c),
(303,648,o),
(302,651,o),
(293,650,c),
(237,647,o),
(120,647,o),
(57,650,c),
(40,651,o),
(31,600,o),
(55,598,c),
(61,598,l),
(100,595,o),
(111,586,o),
(111,542,c),
(111,106,l),
(111,64,o),
(101,57,o),
(60,55,c),
(54,55,o),
(47,56,o),
(41,55,c),
(18,53,o),
(15,28,o),
(22,10,c),
(27,-2,o),
(39,-3,o),
(47,-3,c)
);
}
);
width = 788;
}
);
unicode = 72;
},
{
glyphname = I;
lastChange = "2023-05-15 06:07:10 +0000";
layers = (
{
hints = (
{
horizontal = 1;
place = (598, 53);
place = (598, 53);
type = Stem;
},
{
horizontal = 1;
place = (-4, 21);
target = up;
type = BottomGhost;
},
{
place = (124, 114);
place = (124, 114);
type = Stem;
}
);
layerId = m01;
shapes = (
{
closed = 1;
nodes = (
(127,-2,o),
(245,-2,o),
(306,-4,c),
(323,-4,o),
(329,24,o),
(322,41,c),
(317,52,o),
(312,54,o),
(302,54,c),
(289,55,o),
(263,54,o),
(251,61,c),
(243,67,o),
(238,78,o),
(238,106,c),
(238,508,l),
(238,595,o),
(244,597,o),
(294,598,c),
(302,598,o),
(314,600,o),
(319,608,c),
(322,615,o),
(323,624,o),
(322,631,c),
(320,649,o),
(306,651,o),
(296,651,c),
(179,646,o),
(154,650,o),
(76,651,c),
(73,651,o),
(71,651,o),
(70,651,c),
(47,650,o),
(43,612,o),
(59,601,c),
(63,599,o),
(69,598,o),
(73,598,c),
(119,593,o),
(122,588,o),
(123,542,c),
(124,508,l),
(124,140,l),
(123,106,l),
(122,66,o),
(115,58,o),
(73,53,c),
(68,53,o),
(64,53,o),
(60,52,c),
(44,49,o),
(45,34,o),
(45,22,c),
(45,8,o),
(54,-4,o),
(67,-4,c)
);
}
);
width = 363;
}
);
unicode = 73;
},
{
glyphname = Iacute;
lastChange = "2023-05-15 06:07:10 +0000";
layers = (
{
hints = (
{
horizontal = 1;
place = (604, -20);
target = down;
type = TopGhost;
},
{
horizontal = 1;
place = (-3, 21);
target = up;
type = BottomGhost;
},
{
place = (124, 114);
place = (124, 114);
type = Stem;
},
{
horizontal = 1;
place = (603, 53);
place = (603, 53);
type = Stem;
}
);
layerId = m01;
shapes = (
{
closed = 1;
nodes = (
(129,-1,o),
(246,-1,o),
(307,-3,c),
(328,-4,o),
(329,40,o),
(312,51,c),
(294,56,o),
(267,50,o),
(252,61,c),
(243,66,o),
(238,78,o),
(238,107,c),
(238,512,l),
(238,600,o),
(244,602,o),
(294,603,c),
(299,603,o),
(303,604,o),
(308,604,c),
(318,605,o),
(323,624,o),
(322,637,c),
(320,655,o),
(306,657,o),
(296,656,c),
(174,651,o),
(183,655,o),
(71,657,c),
(45,657,o),
(40,608,o),
(71,605,c),
(118,599,o),
(122,593,o),
(123,546,c),
(124,512,l),
(124,141,l),
(123,107,l),
(122,60,o),
(121,56,o),
(65,51,c),
(54,50,o),
(47,32,o),
(47,22,c),
(47,8,o),
(56,-3,o),
(69,-3,c)
);
},
{
closed = 1;
nodes = (
(156,714,o),
(257,838,o),
(286,875,c),
(300,892,o),
(305,911,o),
(271,914,c),
(254,916,o),
(226,913,o),
(188,913,c),
(177,913,o),
(166,905,o),
(160,894,c),
(113,733,l),
(105,705,o),
(146,702,o),
(156,714,c)
);
}
);
width = 363;
}
);
unicode = 205;
},
{
glyphname = Icircumflex;
lastChange = "2023-05-15 06:07:10 +0000";
layers = (
{
hints = (
{
horizontal = 1;
place = (603, -20);
target = down;
type = TopGhost;
},
{
horizontal = 1;
place = (-3, 21);
target = up;
type = BottomGhost;
},
{
place = (124, 113);
place = (124, 113);
type = Stem;
},
{
horizontal = 1;
place = (602, 54);
place = (602, 54);
type = Stem;
}
);
layerId = m01;
shapes = (
{
closed = 1;
nodes = (
(129,-1,o),
(247,-1,o),
(308,-3,c),
(327,-4,o),
(334,38,o),
(312,51,c),
(294,56,o),
(267,50,o),
(252,61,c),
(243,67,o),
(237,78,o),
(237,107,c),
(237,512,l),
(237,600,o),
(245,602,o),
(295,602,c),
(298,602,o),
(303,603,o),
(309,603,c),
(323,606,o),
(337,658,o),
(297,656,c),
(173,650,o),
(184,655,o),
(70,656,c),
(44,656,o),
(39,608,o),
(71,604,c),
(118,599,o),
(122,592,o),
(123,546,c),
(124,512,l),
(124,141,l),
(123,107,l),
(122,60,o),
(121,56,o),
(65,51,c),
(55,50,o),
(46,32,o),
(46,22,c),
(46,7,o),
(56,-3,o),
(69,-3,c)
);
},
{
closed = 1;
nodes = (
(334,714,o),
(331,730,o),
(327,738,c),
(242,886,l),
(236,897,o),
(230,900,o),
(218,901,c),
(205,902,o),
(151,901,o),
(142,900,c),
(135,897,o),
(128,893,o),
(123,885,c),
(38,733,l),
(27,713,o),
(61,700,o),
(76,714,c),
(180,810,l),
(291,714,l),
(298,708,o),
(312,708,o),
(320,710,c)
);
}
);
width = 362;
}
);
unicode = 206;
},
{
glyphname = Idieresis;
lastChange = "2023-05-15 06:07:10 +0000";
layers = (
{
hints = (
{
horizontal = 1;
place = (709, 138);
place = (709, 138);
type = Stem;
},
{
place = (198, 137);
place = (198, 137);
type = Stem;
},
{
place = (27, 136);
place = (27, 136);
type = Stem;
},
{
horizontal = 1;
place = (603, -20);
target = down;
type = TopGhost;
},
{
horizontal = 1;
place = (-3, 21);
target = up;
type = BottomGhost;
},
{
horizontal = 1;
place = (602, 53);
place = (602, 53);
type = Stem;
},
{
place = (124, 114);
place = (124, 114);
type = Stem;
}
);
layerId = m01;
shapes = (
{
closed = 1;
nodes = (
(130,-1,o),
(247,-1,o),
(308,-3,c),
(329,-4,o),
(330,40,o),
(313,51,c),
(295,56,o),
(268,50,o),
(252,61,c),
(244,66,o),
(238,78,o),
(238,107,c),
(238,511,l),
(238,599,o),
(245,601,o),
(295,602,c),
(300,602,o),
(304,603,o),
(309,603,c),
(319,604,o),
(325,623,o),
(323,635,c),
(321,654,o),
(307,656,o),
(297,655,c),
(175,650,o),
(184,654,o),
(71,655,c),
(45,656,o),
(40,607,o),
(72,604,c),
(118,598,o),
(122,592,o),
(123,545,c),
(124,511,l),
(124,141,l),
(123,107,l),
(122,60,o),
(121,56,o),
(65,51,c),
(54,50,o),
(47,32,o),
(47,22,c),
(47,8,o),
(56,-3,o),
(69,-3,c)
);
},
{
closed = 1;
nodes = (
(133,709,o),
(163,739,o),
(163,778,c),
(163,816,o),
(133,847,o),
(95,847,c),
(58,847,o),
(27,816,o),
(27,778,c),
(27,739,o),
(58,709,o),
(95,709,c)
);
},
{
closed = 1;
nodes = (
(305,709,o),
(335,740,o),
(335,778,c),
(335,816,o),
(305,847,o),
(266,847,c),
(228,847,o),
(198,816,o),
(198,778,c),
(198,740,o),
(228,709,o),
(266,709,c)
);
}
);
width = 363;
}
);
unicode = 207;
},
{
glyphname = Igrave;
lastChange = "2023-05-15 06:07:10 +0000";
layers = (
{
hints = (
{
place = (124, 114);
place = (124, 114);
type = Stem;
},
{
horizontal = 1;
place = (901, -20);
target = down;
type = TopGhost;
},
{
horizontal = 1;
place = (603, 53);
place = (603, 53);
type = Stem;
},
{
horizontal = 1;
place = (-3, 21);
target = up;
type = BottomGhost;
},
{
horizontal = 1;
place = (900, -20);
target = down;
type = TopGhost;
},
{
horizontal = 1;
place = (604, -20);
target = down;
type = TopGhost;
}
);
layerId = m01;
shapes = (
{
closed = 1;
nodes = (
(129,-1,o),
(246,-1,o),
(307,-3,c),
(328,-4,o),
(329,40,o),
(312,51,c),
(294,56,o),
(267,50,o),
(252,61,c),
(243,66,o),
(238,78,o),
(238,107,c),
(238,512,l),
(238,600,o),
(244,602,o),
(294,603,c),
(299,603,o),
(303,604,o),
(308,604,c),
(318,605,o),
(323,624,o),
(322,636,c),
(320,655,o),
(306,657,o),
(296,656,c),
(174,651,o),
(183,655,o),
(71,656,c),
(45,657,o),
(40,608,o),
(71,605,c),
(118,599,o),
(122,592,o),
(123,546,c),
(124,512,l),
(124,141,l),
(123,107,l),
(122,60,o),
(121,56,o),
(65,51,c),
(54,50,o),
(47,32,o),
(47,22,c),
(47,8,o),
(56,-3,o),
(69,-3,c)
);
},
{
closed = 1;
nodes = (
(208,699,o),
(240,699,o),
(238,725,c),
(228,768,o),
(206,842,o),
(190,887,c),
(181,901,o),
(171,901,o),
(162,901,c),
(88,900,l),
(75,900,o),
(51,882,o),
(67,864,c),
(108,819,o),
(164,751,o),
(196,710,c)
);
}
);
width = 363;
}
);
unicode = 204;
},
{
glyphname = J;
lastChange = "2023-05-15 06:07:10 +0000";
layers = (
{
hints = (
{
horizontal = 1;
place = (597, -20);
target = down;
type = TopGhost;
},
{
horizontal = 1;
place = (-289, 127);
place = (-289, 127);
type = Stem;
},
{
place = (106, 115);
place = (106, 115);
type = Stem;
},
{
horizontal = 1;
place = (596, 54);
place = (596, 54);
type = Stem;
},
{
horizontal = 1;
place = (598, -20);
target = down;
type = TopGhost;
}
);
layerId = m01;
shapes = (
{
closed = 1;
nodes = (
(73,-289,o),
(120,-252,o),
(155,-197,c),
(201,-127,o),
(221,-7,o),
(221,75,c),
(221,541,l),
(221,575,o),
(234,594,o),
(260,596,c),
(264,596,o),
(271,596,o),
(277,597,c),
(282,597,o),
(288,598,o),
(292,600,c),
(304,603,o),
(317,650,o),
(283,650,c),
(178,651,o),
(114,649,o),
(55,649,c),
(46,650,o),
(40,650,o),
(34,650,c),
(16,652,o),
(10,637,o),
(10,626,c),
(10,615,o),
(13,599,o),
(26,598,c),
(30,598,o),
(36,595,o),
(42,596,c),
(93,596,o),
(104,588,o),
(105,541,c),
(106,521,o),
(106,501,o),
(106,481,c),
(106,427,o),
(106,305,o),
(106,11,c),
(106,-126,o),
(102,-160,o),
(83,-188,c),
(71,-205,o),
(45,-215,o),
(29,-206,c),
(21,-201,o),
(14,-195,o),
(6,-189,c),
(-8,-178,o),
(-22,-162,o),
(-42,-162,c),
(-72,-162,o),
(-95,-189,o),
(-95,-218,c),
(-95,-263,o),
(-47,-289,o),
(10,-289,c)
);
}
);
width = 324;
}
);
unicode = 74;
},
{
glyphname = K;
lastChange = "2023-05-15 06:41:04 +0000";
layers = (
{
hints = (
{
horizontal = 1;
place = (-4, 58);
place = (-4, 58);
type = Stem;
},
{
horizontal = 1;
place = (600, 50);
place = (600, 50);
type = Stem;
},
{
horizontal = 1;
place = (598, -20);
target = down;
type = TopGhost;
},
{
place = (332, 99);
place = (332, 99);
type = Stem;
},
{
place = (122, 117);
place = (122, 117);
type = Stem;
},
{
horizontal = 1;
place = (651, -20);
target = down;
type = TopGhost;
},
{
horizontal = 1;
place = (652, -20);
target = down;
type = TopGhost;
}
);
layerId = m01;
shapes = (
{
closed = 1;
nodes = (
(44,-4,o),
(46,-4,o),
(48,-4,c),
(104,-2,o),
(235,-1,o),
(309,-4,c),
(317,-4,o),
(328,-3,o),
(332,6,c),
(337,14,o),
(336,32,o),
(332,41,c),
(327,51,o),
(313,53,o),
(304,53,c),
(250,53,o),
(239,67,o),
(239,106,c),
(239,266,l),
(239,274,o),
(236,288,o),
(243,288,c),
(253,286,o),
(261,283,o),
(272,275,c),
(345,223,o),
(397,151,o),
(451,82,c),
(473,55,o),
(431,51,o),
(411,50,c),
(389,50,o),
(387,24,o),
(393,8,c),
(399,-2,o),
(405,-2,o),
(414,-4,c),
(482,-3,o),
(618,2,o),
(698,-3,c),
(724,2,o),
(722,30,o),
(716,43,c),
(710,54,o),
(702,54,o),
(693,54,c),
(635,54,o),
(615,60,o),
(574,109,c),
(518,175,o),
(467,246,o),
(404,306,c),
(383,325,o),
(370,337,o),
(358,345,c),
(360,347,l),
(397,390,o),
(445,455,o),
(476,502,c),
(485,516,o),
(494,531,o),
(505,546,c),
(535,587,o),
(568,599,o),
(631,600,c),
(663,596,o),
(664,651,o),
(631,650,c),
(584,648,o),
(483,647,o),
(386,650,c),
(379,651,o),
(367,649,o),
(363,639,c),
(360,631,o),
(356,612,o),
(372,600,c),
(390,598,l),
(430,594,o),
(431,594,o),
(431,585,c),
(431,535,o),
(323,405,o),
(273,362,c),
(262,352,o),
(253,345,o),
(242,341,c),
(240,341,o),
(239,343,o),
(239,345,c),
(239,542,l),
(239,587,o),
(249,598,o),
(304,598,c),
(320,598,o),
(332,606,o),
(332,625,c),
(332,647,o),
(316,651,o),
(308,651,c),
(255,649,o),
(163,649,o),
(43,652,c),
(35,652,o),
(24,651,o),
(20,639,c),
(15,629,o),
(15,600,o),
(37,598,c),
(57,598,l),
(111,598,o),
(122,587,o),
(122,542,c),
(122,106,l),
(122,65,o),
(97,54,o),
(58,54,c),
(51,55,o),
(42,56,o),
(35,54,c),
(9,45,o),
(13,15,o),
(21,4,c),
(26,-3,o),
(34,-4,o),
(42,-4,c)
);
}
);
width = 740;
}
);
unicode = 75;
},
{
glyphname = L;
lastChange = "2023-05-15 06:41:04 +0000";
layers = (
{
hints = (
{
horizontal = 1;
place = (-4, 70);
place = (-4, 70);
type = Stem;
},
{
place = (117, 116);
place = (117, 116);
type = Stem;
},
{
horizontal = 1;
place = (593, 59);
place = (593, 59);
type = Stem;
},
{
horizontal = 1;
place = (597, -20);
target = down;
type = TopGhost;
}
);
layerId = m01;
shapes = (
{
closed = 1;
nodes = (
(496,-4,o),
(507,8,o),
(515,19,c),
(528,40,o),
(553,95,o),
(576,150,c),
(577,152,o),
(581,167,o),
(568,174,c),
(559,181,o),
(546,178,o),
(536,174,c),
(500,127,l),
(454,67,o),
(442,66,o),
(371,66,c),
(288,66,l),
(252,66,o),
(233,75,o),
(233,108,c),
(233,552,l),
(233,587,o),
(240,591,o),
(300,593,c),
(311,593,o),
(322,594,o),
(332,595,c),
(357,597,o),
(358,620,o),
(354,636,c),
(350,651,o),
(337,652,o),
(330,652,c),
(217,650,o),
(149,649,o),
(51,651,c),
(46,652,o),
(33,652,o),
(26,641,c),
(21,632,o),
(20,599,o),
(40,597,c),
(52,597,l),
(106,596,o),
(117,587,o),
(117,542,c),
(117,144,l),
(117,105,o),
(116,99,o),
(115,88,c),
(109,61,o),
(69,56,o),
(46,56,c),
(44,55,o),
(41,56,o),
(39,56,c),
(33,56,l),
(14,54,o),
(14,26,o),
(18,13,c),
(21,4,o),
(31,-4,o),
(43,-3,c),
(73,-1,o),
(298,-1,o),
(475,-4,c)
);
}
);
width = 595;
}
);
unicode = 76;
},
{
glyphname = Lslash;
lastChange = "2023-05-15 06:07:10 +0000";
layers = (
{
hints = (
{
horizontal = 1;
place = (-5, 68);
place = (-5, 68);
type = Stem;
},
{
place = (116, 117);
place = (116, 117);
type = Stem;
},
{
horizontal = 1;
place = (603, -20);
target = down;
type = TopGhost;
},
{
horizontal = 1;
place = (604, 55);
place = (604, 55);
type = Stem;
},
{
horizontal = 1;
place = (661, -20);
target = down;
type = TopGhost;
},
{
horizontal = 1;
place = (-7, 21);
target = up;
type = BottomGhost;
}
);
layerId = m01;
shapes = (
{
closed = 1;
nodes = (
(100,-3,o),
(363,-5,o),
(467,-5,c),
(489,-5,o),
(503,1,o),
(509,13,c),
(545,82,o),
(568,118,o),
(578,138,c),
(589,158,o),
(590,174,o),
(563,174,c),
(540,174,l),
(503,126,l),
(457,64,o),
(452,63,o),
(382,63,c),
(288,63,l),
(244,63,o),
(233,63,o),
(233,106,c),
(233,314,l),
(233,325,o),
(241,337,o),
(246,342,c),
(340,421,l),
(349,428,o),
(353,436,o),
(353,448,c),
(353,508,l),
(353,538,o),
(335,526,o),
(321,514,c),
(307,502,o),
(256,458,o),
(242,446,c),
(236,442,o),
(233,443,o),
(233,451,c),
(233,557,l),
(233,590,o),
(239,598,o),
(262,600,c),
(283,602,o),
(312,602,o),
(326,603,c),
(337,603,o),
(343,608,o),
(347,614,c),
(352,623,o),
(352,639,o),
(347,649,c),
(344,656,o),
(339,659,o),
(334,659,c),
(262,659,o),
(118,659,o),
(48,661,c),
(36,659,o),
(25,657,o),
(25,645,c),
(25,642,o),
(24,624,o),
(24,621,c),
(25,601,o),
(42,604,o),
(51,604,c),
(104,604,o),
(116,594,o),
(116,548,c),
(116,356,l),
(116,352,o),
(114,343,o),
(105,335,c),
(6,253,l),
(-2,247,o),
(-3,240,o),
(-3,228,c),
(-3,182,l),
(-3,148,o),
(11,150,o),
(27,165,c),
(50,183,o),
(83,207,o),
(106,227,c),
(112,232,o),
(116,233,o),
(116,212,c),
(116,169,o),
(117,140,o),
(116,97,c),
(114,57,o),
(95,55,o),
(51,55,c),
(36,55,o),
(22,52,o),
(16,36,c),
(14,30,o),
(16,17,o),
(16,11,c),
(20,-3,o),
(21,-6,o),
(48,-7,c)
);
}
);
width = 583;
}
);
unicode = 321;
},
{
glyphname = M;
lastChange = "2023-05-15 06:07:10 +0000";
layers = (
{
hints = (
{
place = (689, 122);
place = (689, 122);
type = Stem;
},
{
horizontal = 1;
place = (-2, 54);
place = (-2, 54);
type = Stem;
},
{
place = (139, 59);
place = (139, 59);
type = Stem;
},
{
place = (709, 116);
place = (709, 116);
type = Stem;
},
{
place = (113, 73);
place = (113, 73);
type = Stem;
}
);
layerId = m01;
shapes = (
{
closed = 1;
nodes = (
(249,-2,o),
(253,-2,o),
(256,-1,c),
(272,3,o),
(273,22,o),
(270,35,c),
(266,49,o),
(253,51,o),
(245,51,c),
(193,55,o),
(186,67,o),
(186,96,c),
(186,107,o),
(187,125,o),
(188,144,c),
(209,481,l),
(209,484,o),
(216,471,o),
(216,469,c),
(426,5,l),
(432,-9,o),
(471,-9,o),
(477,5,c),
(679,467,l),
(683,476,o),
(688,492,o),
(689,478,c),
(696,368,o),
(704,258,o),
(709,149,c),
(711,88,o),
(726,52,o),
(645,52,c),
(633,52,o),
(619,44,o),
(618,35,c),
(617,28,o),
(616,19,o),
(618,13,c),
(620,1,o),
(630,-2,o),
(645,-2,c),
(710,-1,o),
(844,0,o),
(893,-3,c),
(905,-3,o),
(916,1,o),
(918,14,c),
(918,35,o),
(922,52,o),
(890,52,c),
(842,52,o),
(831,54,o),
(825,143,c),
(798,526,l),
(797,540,o),
(796,551,o),
(796,566,c),
(796,583,o),
(802,589,o),
(811,592,c),
(823,596,o),
(838,595,o),
(851,597,c),
(879,599,o),
(873,651,o),
(846,650,c),
(801,649,o),
(756,649,o),
(711,650,c),
(704,650,o),
(685,647,o),
(677,633,c),
(480,186,l),
(476,178,o),
(471,169,o),
(468,176,c),
(263,634,l),
(256,650,o),
(241,650,o),
(230,650,c),
(198,649,o),
(128,649,o),
(94,651,c),
(82,652,o),
(73,647,o),
(70,632,c),
(68,624,o),
(69,614,o),
(72,607,c),
(85,579,o),
(139,614,o),
(139,564,c),
(139,423,o),
(122,282,o),
(113,141,c),
(112,124,o),
(111,109,o),
(110,96,c),
(105,58,o),
(90,49,o),
(45,51,c),
(34,52,o),
(28,49,o),
(23,39,c),
(19,31,o),
(19,20,o),
(22,12,c),
(27,-2,o),
(36,0,o),
(47,-2,c),
(115,0,o),
(194,-1,o),
(245,-3,c)
);
}
);
width = 942;
}
);
unicode = 77;
},
{
glyphname = N;
lastChange = "2023-05-15 06:07:10 +0000";
layers = (
{
hints = (
{
horizontal = 1;
place = (-4, 57);
place = (-4, 57);
type = Stem;
},
{
horizontal = 1;
place = (598, 53);
place = (598, 53);
type = Stem;
},
{
place = (121, 82);
place = (121, 82);
type = Stem;
},
{
place = (635, 80);
place = (635, 80);
type = Stem;
}
);
layerId = m01;
shapes = (
{
closed = 1;
nodes = (
(112,-1,o),
(222,-2,o),
(283,-3,c),
(311,-4,o),
(311,30,o),
(304,44,c),
(301,52,o),
(288,56,o),
(275,57,c),
(250,58,o),
(219,50,o),
(208,82,c),
(202,100,o),
(203,125,o),
(203,145,c),
(203,489,l),
(203,506,o),
(206,497,o),
(213,492,c),
(360,327,o),
(486,183,o),
(651,-2,c),
(661,-13,o),
(715,-17,o),
(715,14,c),
(715,525,l),
(715,596,o),
(716,596,o),
(786,598,c),
(803,598,o),
(811,604,o),
(810,623,c),
(809,633,o),
(809,652,o),
(793,652,c),
(704,650,o),
(628,648,o),
(552,651,c),
(522,652,o),
(526,597,o),
(551,596,c),
(573,594,o),
(590,594,o),
(604,592,c),
(615,590,o),
(622,587,o),
(626,583,c),
(634,575,o),
(635,560,o),
(635,509,c),
(635,198,l),
(635,185,o),
(628,192,o),
(622,199,c),
(623,199,l),
(234,636,l),
(226,645,o),
(210,651,o),
(202,651,c),
(168,650,o),
(116,654,o),
(61,651,c),
(47,650,o),
(35,645,o),
(35,625,c),
(35,612,o),
(41,598,o),
(49,598,c),
(82,597,o),
(105,593,o),
(121,583,c),
(121,99,l),
(121,80,o),
(115,53,o),
(57,53,c),
(16,53,o),
(26,-6,o),
(52,-4,c)
);
}
);
width = 834;
}
);
unicode = 78;
},
{
glyphname = Ntilde;
lastChange = "2023-05-15 06:07:10 +0000";
layers = (
{
hints = (
{
horizontal = 1;
place = (723, 90);
place = (723, 90);
type = Stem;
},
{
horizontal = 1;
place = (883, -20);
target = down;
type = TopGhost;
},
{
horizontal = 1;
place = (-4, 57);
place = (-4, 57);
type = Stem;
},
{
horizontal = 1;
place = (598, 53);
place = (598, 53);
type = Stem;
},
{
place = (121, 82);
place = (121, 82);
type = Stem;
},
{
place = (635, 80);
place = (635, 80);
type = Stem;
}
);
layerId = m01;
shapes = (
{
closed = 1;
nodes = (
(112,-1,o),
(222,-2,o),
(283,-3,c),
(311,-4,o),
(311,30,o),
(304,44,c),
(301,52,o),
(288,56,o),
(275,57,c),
(250,58,o),
(219,50,o),
(208,82,c),
(202,100,o),
(203,125,o),
(203,145,c),
(203,489,l),
(203,506,o),
(206,497,o),
(213,492,c),
(360,327,o),
(486,183,o),
(651,-2,c),
(661,-13,o),
(715,-17,o),
(715,14,c),
(715,525,l),
(715,596,o),
(716,596,o),
(786,598,c),
(803,598,o),
(811,604,o),
(810,623,c),
(809,633,o),
(809,652,o),
(793,652,c),
(704,650,o),
(628,648,o),
(552,651,c),
(522,652,o),
(526,597,o),
(551,596,c),
(573,594,o),
(590,594,o),
(604,592,c),
(615,590,o),
(622,587,o),
(626,583,c),
(634,575,o),
(635,560,o),
(635,509,c),
(635,198,l),
(635,185,o),
(628,192,o),
(622,199,c),
(623,199,l),
(234,636,l),
(226,645,o),
(210,651,o),
(202,651,c),
(168,650,o),
(116,654,o),
(61,651,c),
(47,650,o),
(35,645,o),
(35,625,c),
(35,612,o),
(41,598,o),
(49,598,c),
(82,597,o),
(105,593,o),
(121,583,c),
(121,99,l),
(121,80,o),
(115,53,o),
(57,53,c),
(16,53,o),
(26,-6,o),
(52,-4,c)
);
},
{
closed = 1;
nodes = (
(530,723,o),
(573,782,o),
(573,854,c),
(573,857,o),
(573,862,o),
(571,869,c),
(569,881,o),
(554,883,o),
(548,883,c),
(506,881,o),
(533,813,o),
(497,813,c),
(488,813,o),
(475,817,o),
(445,837,c),
(400,868,o),
(376,878,o),
(343,878,c),
(275,878,o),
(241,822,o),
(237,736,c),
(241,708,o),
(278,721,o),
(284,734,c),
(285,740,o),
(287,746,o),
(287,753,c),
(295,786,o),
(303,789,o),
(313,789,c),
(322,789,o),
(328,788,o),
(365,763,c),
(402,737,o),
(436,723,o),
(465,723,c)
);
}
);
width = 834;
}
);
unicode = 209;
},
{
glyphname = O;
lastChange = "2023-05-15 06:07:10 +0000";
layers = (
{
hints = (
{
horizontal = 1;
place = (-19, 58);
place = (-19, 58);
type = Stem;
},
{
horizontal = 1;
place = (610, 57);
place = (610, 57);
type = Stem;
},
{
place = (45, 131);
place = (45, 131);
type = Stem;
},
{
place = (646, 131);
place = (646, 131);
type = Stem;
}
);
layerId = m01;
shapes = (
{
closed = 1;
nodes = (
(622,-19,o),
(777,138,o),
(777,339,c),
(777,527,o),
(626,667,o),
(415,667,c),
(200,667,o),
(45,515,o),
(45,312,c),
(45,125,o),
(202,-19,o),
(413,-19,c)
);
},
{
closed = 1;
nodes = (
(282,39,o),
(176,166,o),
(176,338,c),
(176,502,o),
(260,610,o),
(387,610,c),
(542,610,o),
(646,487,o),
(646,309,c),
(646,163,o),
(594,39,o),
(430,39,c)
);
}
);
width = 827;
}
);
unicode = 79;
},
{
glyphname = Oacute;
lastChange = "2023-05-15 06:07:10 +0000";
layers = (
{
hints = (
{
horizontal = 1;
place = (-19, 59);
place = (-19, 59);
type = Stem;
},
{
horizontal = 1;
place = (612, 57);
place = (612, 57);
type = Stem;
},
{
place = (45, 131);
place = (45, 131);
type = Stem;
},
{
place = (646, 131);
place = (646, 131);
type = Stem;
}
);
layerId = m01;
shapes = (
{
closed = 1;
nodes = (
(622,-19,o),
(777,139,o),
(777,340,c),
(777,529,o),
(626,669,o),
(415,669,c),
(200,669,o),
(45,517,o),
(45,314,c),
(45,125,o),
(202,-19,o),
(413,-19,c)
);
},
{
closed = 1;
nodes = (
(282,40,o),
(176,166,o),
(176,339,c),
(176,503,o),
(260,612,o),
(387,612,c),
(542,612,o),
(646,489,o),
(646,311,c),
(646,164,o),
(594,40,o),
(430,40,c)
);
},
{
closed = 1;
nodes = (
(548,873,l),
(550,876,o),
(551,880,o),
(551,884,c),
(554,898,o),
(545,904,o),
(522,905,c),
(504,906,o),
(476,904,o),
(440,904,c),
(430,904,o),
(417,897,o),
(413,884,c),
(365,724,l),
(356,696,o),
(393,695,o),
(403,707,c)
);
}
);
width = 827;
}
);
unicode = 211;
},
{
glyphname = Ocircumflex;
lastChange = "2023-05-15 06:07:10 +0000";
layers = (
{
hints = (
{
horizontal = 1;
place = (-19, 59);
place = (-19, 59);
type = Stem;
},
{
horizontal = 1;
place = (612, 57);
place = (612, 57);
type = Stem;
},
{
place = (45, 131);
place = (45, 131);
type = Stem;
},
{
place = (646, 131);
place = (646, 131);
type = Stem;
}
);
layerId = m01;
shapes = (
{
closed = 1;
nodes = (
(622,-19,o),
(777,139,o),
(777,340,c),
(777,529,o),
(626,669,o),
(415,669,c),
(200,669,o),
(45,517,o),
(45,313,c),
(45,125,o),
(202,-19,o),
(413,-19,c)
);
},
{
closed = 1;
nodes = (
(282,40,o),
(176,166,o),
(176,339,c),
(176,503,o),
(260,612,o),
(387,612,c),
(542,612,o),
(646,489,o),
(646,311,c),
(646,164,o),
(594,40,o),
(430,40,c)
);
},
{
closed = 1;
nodes = (
(582,703,o),
(582,717,o),
(576,728,c),
(490,876,l),
(483,888,o),
(477,890,o),
(465,891,c),
(452,892,o),
(397,891,o),
(388,890,c),
(381,887,o),
(373,883,o),
(368,875,c),
(281,723,l),
(270,703,o),
(304,690,o),
(320,704,c),
(427,800,l),
(540,704,l),
(547,697,o),
(563,698,o),
(569,700,c)
);
}
);
width = 827;
}
);
unicode = 212;
},
{
glyphname = Odieresis;
lastChange = "2023-05-15 06:07:10 +0000";
layers = (
{
hints = (
{
horizontal = 1;
place = (-19, 59);
place = (-19, 59);
type = Stem;
},
{
horizontal = 1;
place = (611, 58);
place = (611, 58);
type = Stem;
},
{
horizontal = 1;
place = (714, 138);
place = (714, 138);
type = Stem;
},
{
place = (45, 131);
place = (45, 131);
type = Stem;
},
{
place = (257, 140);
place = (257, 140);
type = Stem;
},
{
place = (432, 140);
place = (432, 140);
type = Stem;
},
{
place = (646, 131);
place = (646, 131);
type = Stem;
}
);
layerId = m01;
shapes = (
{
closed = 1;
nodes = (
(622,-19,o),
(777,138,o),
(777,340,c),
(777,529,o),
(626,669,o),
(415,669,c),
(200,669,o),
(45,517,o),
(45,313,c),
(45,125,o),
(202,-19,o),
(413,-19,c)
);
},
{
closed = 1;
nodes = (
(282,40,o),
(176,166,o),
(176,339,c),
(176,503,o),
(260,611,o),
(387,611,c),
(542,611,o),
(646,488,o),
(646,310,c),
(646,164,o),
(594,40,o),
(430,40,c)
);
},
{
closed = 1;
nodes = (
(365,714,o),
(397,744,o),
(397,783,c),
(397,821,o),
(366,852,o),
(327,852,c),
(289,852,o),
(257,821,o),
(257,783,c),
(257,744,o),
(289,714,o),
(327,714,c)
);
},
{
closed = 1;
nodes = (
(541,714,o),
(572,745,o),
(572,783,c),
(572,821,o),
(541,852,o),
(502,852,c),
(463,852,o),
(432,821,o),
(432,783,c),
(432,745,o),
(463,714,o),
(502,714,c)
);
}
);
width = 827;
}
);
unicode = 214;
},
{
glyphname = Ograve;
lastChange = "2023-05-15 06:07:10 +0000";
layers = (
{
hints = (
{
horizontal = 1;
place = (911, -20);
target = down;
type = TopGhost;
},
{
horizontal = 1;
place = (-19, 59);
place = (-19, 59);
type = Stem;
},
{
horizontal = 1;
place = (612, 57);
place = (612, 57);
type = Stem;
},
{
place = (45, 131);
place = (45, 131);
type = Stem;
},
{
place = (646, 131);
place = (646, 131);
type = Stem;
},
{
horizontal = 1;
place = (910, -20);
target = down;
type = TopGhost;
}
);
layerId = m01;
shapes = (
{
closed = 1;
nodes = (
(622,-19,o),
(777,139,o),
(777,340,c),
(777,529,o),
(626,669,o),
(415,669,c),
(200,669,o),
(45,517,o),
(45,313,c),
(45,125,o),
(202,-19,o),
(413,-19,c)
);
},
{
closed = 1;
nodes = (
(282,40,o),
(176,166,o),
(176,339,c),
(176,503,o),
(260,612,o),
(387,612,c),
(542,612,o),
(646,489,o),
(646,311,c),
(646,164,o),
(594,40,o),
(430,40,c)
);
},
{
closed = 1;
nodes = (
(464,712,o),
(494,707,o),
(494,735,c),
(483,778,o),
(461,853,o),
(444,897,c),
(438,910,o),
(428,911,o),
(416,911,c),
(344,910,l),
(331,910,o),
(305,893,o),
(322,874,c),
(364,829,o),
(422,763,o),
(454,722,c)
);
}
);
width = 827;
}
);
unicode = 210;
},
{
glyphname = Oslash;
lastChange = "2023-05-15 06:07:10 +0000";
layers = (
{
hints = (
{
horizontal = 1;
place = (-22, 57);
place = (-22, 57);
type = Stem;
},
{
horizontal = 1;
place = (618, 58);
place = (618, 58);
type = Stem;
},
{
place = (43, 132);
place = (43, 132);
type = Stem;
}
);
layerId = m01;
shapes = (
{
closed = 1;
nodes = (
(104,-72,o),
(113,-77,o),
(129,-59,c),
(199,23,l),
(207,31,o),
(215,33,o),
(219,31,c),
(282,-3,o),
(355,-22,o),
(429,-22,c),
(643,-22,o),
(812,136,o),
(812,341,c),
(812,441,o),
(774,518,o),
(698,584,c),
(693,588,o),
(701,595,o),
(704,598,c),
(753,654,l),
(762,664,o),
(771,679,o),
(756,691,c),
(748,697,l),
(734,707,o),
(721,699,o),
(716,695,c),
(661,627,l),
(656,621,o),
(652,617,o),
(648,619,c),
(581,659,o),
(509,676,o),
(432,676,c),
(214,676,o),
(43,521,o),
(43,317,c),
(43,218,o),
(87,131,o),
(161,69,c),
(167,64,o),
(160,57,o),
(156,52,c),
(85,-27,l),
(73,-40,o),
(79,-52,o),
(89,-61,c)
);
},
{
closed = 1;
nodes = (
(384,35,o),
(329,54,o),
(279,96,c),
(278,97,o),
(276,108,o),
(282,114,c),
(368,213,o),
(526,395,o),
(613,494,c),
(619,501,o),
(626,506,o),
(630,499,c),
(700,392,o),
(698,229,o),
(624,124,c),
(580,61,o),
(526,35,o),
(447,35,c)
);
},
{
closed = 1;
nodes = (
(193,202,o),
(175,269,o),
(175,343,c),
(175,509,o),
(272,618,o),
(403,618,c),
(474,618,o),
(536,596,o),
(585,552,c),
(590,547,o),
(579,537,o),
(575,533,c),
(488,439,o),
(334,260,o),
(248,157,c),
(239,146,o),
(236,142,o),
(231,150,c)
);
}
);
width = 851;
}
);
unicode = 216;
},
{
glyphname = Otilde;
lastChange = "2023-05-15 06:07:10 +0000";
layers = (
{
hints = (
{
horizontal = 1;
place = (713, 87);
place = (713, 87);
type = Stem;
},
{
horizontal = 1;
place = (-19, 59);
place = (-19, 59);
type = Stem;
},
{
horizontal = 1;
place = (611, 58);
place = (611, 58);
type = Stem;
},
{
place = (45, 131);
place = (45, 131);
type = Stem;
},
{
place = (646, 131);
place = (646, 131);
type = Stem;
}
);
layerId = m01;
shapes = (
{
closed = 1;
nodes = (
(622,-19,o),
(777,138,o),
(777,340,c),
(777,529,o),
(626,669,o),
(415,669,c),
(200,669,o),
(45,517,o),
(45,313,c),
(45,125,o),
(202,-19,o),
(413,-19,c)
);
},
{
closed = 1;
nodes = (
(282,40,o),
(176,166,o),
(176,339,c),
(176,503,o),
(260,611,o),
(387,611,c),
(542,611,o),
(646,488,o),
(646,310,c),
(646,164,o),
(594,40,o),
(430,40,c)
);
},
{
closed = 1;
nodes = (
(537,713,o),
(579,770,o),
(579,839,c),
(579,842,o),
(579,846,o),
(577,853,c),
(576,865,o),
(561,867,o),
(555,866,c),
(513,865,o),
(541,800,o),
(504,800,c),
(496,800,o),
(483,804,o),
(453,823,c),
(409,852,o),
(385,862,o),
(352,862,c),
(285,862,o),
(251,809,o),
(247,727,c),
(252,700,o),
(288,713,o),
(294,725,c),
(295,731,o),
(297,737,o),
(297,743,c),
(305,774,o),
(312,777,o),
(323,777,c),
(331,777,o),
(337,775,o),
(374,750,c),
(411,726,o),
(444,713,o),
(473,713,c)
);
}
);
width = 827;
}
);
unicode = 213;
},
{
glyphname = OE;
lastChange = "2023-05-15 06:07:10 +0000";
layers = (
{
hints = (
{
horizontal = 1;
place = (-12, 76);
place = (-12, 76);
type = Stem;
},
{
place = (534, 122);
place = (534, 122);
type = Stem;
},
{
horizontal = 1;
place = (304, 68);
place = (304, 68);
type = Stem;
},
{
horizontal = 1;
place = (590, 68);
place = (590, 68);
type = Stem;
},
{
place = (49, 130);
place = (49, 130);
type = Stem;
},
{
horizontal = 1;
place = (664, -20);
target = down;
type = TopGhost;
},
{
horizontal = 1;
place = (-12, 58);
place = (-12, 58);
type = Stem;
},
{
horizontal = 1;
place = (-4, 21);
target = up;
type = BottomGhost;
},
{
horizontal = 1;
place = (609, 49);
place = (609, 49);
type = Stem;
}
);
layerId = m01;
shapes = (
{
closed = 1;
nodes = (
(460,-12,o),
(526,-3,o),
(593,-3,c),
(713,-3,o),
(823,-4,o),
(942,-4,c),
(960,-4,o),
(980,-4,o),
(984,23,c),
(989,58,o),
(997,111,o),
(998,150,c),
(998,166,o),
(996,176,o),
(980,176,c),
(969,176,l),
(956,176,o),
(950,173,o),
(948,159,c),
(945,137,o),
(931,106,o),
(916,88,c),
(899,68,o),
(891,64,o),
(814,64,c),
(673,64,l),
(665,64,o),
(656,74,o),
(656,80,c),
(656,280,l),
(656,284,o),
(659,304,o),
(665,304,c),
(798,304,l),
(846,304,o),
(854,299,o),
(859,248,c),
(859,239,o),
(863,225,o),
(879,225,c),
(897,225,l),
(911,225,o),
(911,240,o),
(911,250,c),
(912,299,o),
(909,376,o),
(911,431,c),
(909,442,o),
(908,451,o),
(893,451,c),
(879,451,l),
(863,451,o),
(859,436,o),
(859,431,c),
(857,418,o),
(853,390,o),
(845,381,c),
(838,375,o),
(827,372,o),
(789,372,c),
(674,372,l),
(670,372,o),
(656,375,o),
(656,383,c),
(656,579,l),
(656,588,o),
(676,590,o),
(677,590,c),
(835,590,l),
(883,590,o),
(888,588,o),
(903,526,c),
(908,507,l),
(911,496,o),
(915,490,o),
(922,489,c),
(928,488,o),
(934,489,o),
(940,489,c),
(946,489,o),
(957,490,o),
(957,498,c),
(959,529,o),
(954,620,o),
(952,632,c),
(950,653,o),
(942,658,o),
(922,658,c),
(638,658,l),
(606,658,o),
(595,657,o),
(584,657,c),
(574,657,o),
(562,658,o),
(529,660,c),
(492,662,o),
(456,664,o),
(418,664,c),
(345,664,o),
(296,654,o),
(246,630,c),
(129,574,o),
(49,454,o),
(49,321,c),
(49,135,o),
(205,-12,o),
(394,-12,c)
);
},
{
closed = 1;
nodes = (
(283,46,o),
(179,170,o),
(179,341,c),
(179,512,o),
(264,609,o),
(405,609,c),
(498,609,o),
(534,574,o),
(534,504,c),
(534,229,l),
(534,110,o),
(528,95,o),
(498,72,c),
(475,55,o),
(448,46,o),
(413,46,c)
);
}
);
width = 1036;
}
);
unicode = 338;
},
{
glyphname = P;
lastChange = "2023-05-15 06:41:04 +0000";
layers = (
{
hints = (
{
horizontal = 1;
place = (-4, 60);
place = (-4, 60);
type = Stem;
},
{
horizontal = 1;
place = (261, 51);
place = (261, 51);
type = Stem;
},
{
horizontal = 1;
place = (659, -20);
target = down;
type = TopGhost;
},
{
horizontal = 1;
place = (601, -20);
target = down;
type = TopGhost;
},
{
place = (122, 119);
place = (122, 119);
type = Stem;
},
{
place = (418, 126);
place = (418, 126);
type = Stem;
}
);
layerId = m01;
shapes = (
{
closed = 1;
nodes = (
(351,-7,o),
(359,9,o),
(360,22,c),
(361,32,o),
(359,40,o),
(356,45,c),
(348,57,o),
(342,56,o),
(324,57,c),
(311,57,o),
(298,55,o),
(287,55,c),
(251,54,o),
(241,68,o),
(241,106,c),
(241,254,l),
(241,263,o),
(242,265,o),
(245,264,c),
(259,262,o),
(267,261,o),
(288,261,c),
(445,261,o),
(544,339,o),
(544,468,c),
(544,553,o),
(486,623,o),
(396,646,c),
(357,656,o),
(332,659,o),
(263,659,c),
(187,659,o),
(116,659,o),
(37,650,c),
(25,649,o),
(20,634,o),
(20,623,c),
(25,588,o),
(62,600,o),
(87,601,c),
(116,601,o),
(122,595,o),
(122,532,c),
(122,86,l),
(122,59,o),
(120,56,o),
(74,56,c),
(40,56,o),
(36,58,o),
(35,25,c),
(34,18,o),
(36,12,o),
(39,7,c),
(46,-3,o),
(55,-4,o),
(66,-4,c),
(135,-2,o),
(260,-2,o),
(337,-5,c)
);
},
{
closed = 1;
nodes = (
(267,312,o),
(267,312,o),
(252,315,c),
(245,317,o),
(241,326,o),
(241,332,c),
(241,592,l),
(241,598,o),
(242,606,o),
(252,607,c),
(287,611,o),
(326,608,o),
(357,592,c),
(393,573,o),
(418,530,o),
(418,470,c),
(418,373,o),
(375,312,o),
(282,312,c)
);
}
);
width = 577;
}
);
unicode = 80;
},
{
glyphname = Thorn;
lastChange = "2023-05-15 06:07:10 +0000";
layers = (
{
hints = (
{
horizontal = 1;
place = (-5, 53);
place = (-5, 53);
type = Stem;
},
{
horizontal = 1;
place = (138, 52);
place = (138, 52);
type = Stem;
},
{
horizontal = 1;
place = (607, -20);
target = down;
type = TopGhost;
},
{
horizontal = 1;
place = (659, -20);
target = down;
type = TopGhost;
},
{
place = (111, 120);
place = (111, 120);
type = Stem;
},
{
place = (431, 128);
place = (431, 128);
type = Stem;
}
);
layerId = m01;
shapes = (
{
closed = 1;
nodes = (
(124,-2,o),
(254,-2,o),
(321,-4,c),
(348,-5,o),
(348,14,o),
(347,29,c),
(347,40,o),
(342,47,o),
(326,48,c),
(316,49,o),
(297,48,o),
(296,48,c),
(241,48,o),
(231,62,o),
(231,108,c),
(231,117,o),
(230,124,o),
(231,133,c),
(231,140,o),
(233,142,o),
(238,141,c),
(259,138,o),
(277,138,o),
(299,138,c),
(456,138,o),
(559,214,o),
(559,344,c),
(559,436,o),
(498,505,o),
(411,527,c),
(355,541,o),
(297,542,o),
(240,542,c),
(236,542,o),
(231,547,o),
(231,550,c),
(231,564,o),
(228,584,o),
(236,597,c),
(243,607,o),
(280,607,o),
(291,607,c),
(294,607,o),
(297,607,o),
(300,608,c),
(307,609,o),
(311,617,o),
(311,628,c),
(311,639,l),
(311,655,o),
(300,659,o),
(286,658,c),
(221,656,o),
(92,658,o),
(38,659,c),
(29,659,o),
(18,658,o),
(18,639,c),
(18,630,l),
(18,619,o),
(19,611,o),
(29,609,c),
(44,604,o),
(75,611,o),
(91,605,c),
(101,604,o),
(103,603,o),
(106,599,c),
(109,592,o),
(111,581,o),
(111,541,c),
(111,135,l),
(111,90,l),
(111,53,o),
(99,47,o),
(61,47,c),
(45,47,o),
(35,42,o),
(33,33,c),
(31,25,o),
(33,21,o),
(32,15,c),
(30,-7,o),
(44,-5,o),
(55,-5,c)
);
},
{
closed = 1;
nodes = (
(256,190,o),
(247,191,o),
(235,193,c),
(235,193,o),
(231,195,o),
(231,206,c),
(231,484,l),
(231,489,o),
(240,491,o),
(244,491,c),
(286,496,o),
(335,493,o),
(371,474,c),
(408,455,o),
(431,410,o),
(431,350,c),
(431,254,o),
(367,190,o),
(271,190,c)
);
}
);
width = 589;
}
);
unicode = 222;
},
{
glyphname = Q;
lastChange = "2023-05-15 06:07:10 +0000";
layers = (
{
hints = (
{
horizontal = 1;
place = (-213, 62);
place = (-213, 62);
type = Stem;
},
{
horizontal = 1;
place = (609, 58);
place = (609, 58);
type = Stem;
},
{
place = (38, 131);
place = (38, 131);
type = Stem;
},
{
place = (635, 133);
place = (635, 133);
type = Stem;
}
);
layerId = m01;
shapes = (
{
closed = 1;
nodes = (
(748,-213,o),
(762,-211,o),
(781,-207,c),
(791,-205,o),
(802,-193,o),
(808,-182,c),
(816,-169,o),
(815,-155,o),
(802,-151,c),
(741,-149,o),
(710,-134,o),
(651,-84,c),
(615,-54,o),
(575,-22,o),
(530,-1,c),
(528,0,o),
(528,1,o),
(530,1,c),
(672,55,o),
(768,184,o),
(768,336,c),
(768,526,o),
(625,667,o),
(412,667,c),
(196,667,o),
(38,513,o),
(38,312,c),
(38,132,o),
(172,-4,o),
(373,-22,c),
(396,-31,o),
(407,-35,o),
(420,-45,c),
(435,-56,o),
(452,-73,o),
(488,-103,c),
(555,-159,o),
(634,-213,o),
(729,-213,c)
);
},
{
closed = 1;
nodes = (
(277,32,o),
(169,162,o),
(169,335,c),
(169,500,o),
(255,609,o),
(385,609,c),
(540,609,o),
(635,487,o),
(635,307,c),
(635,179,o),
(566,32,o),
(426,32,c)
);
}
);
width = 822;
}
);
unicode = 81;
},
{
glyphname = R;
lastChange = "2023-05-15 06:41:04 +0000";
layers = (
{
hints = (
{
place = (423, 129);
place = (423, 129);
type = Stem;
},
{
horizontal = 1;
place = (608, 51);
place = (608, 51);
type = Stem;
},
{
horizontal = 1;
place = (599, -20);
target = down;
type = TopGhost;
},
{
place = (117, 120);
place = (117, 120);
type = Stem;
},
{
horizontal = 1;
place = (-3, 56);
place = (-3, 56);
type = Stem;
},
{
horizontal = 1;
place = (-15, 21);
target = up;
type = BottomGhost;
}
);
layerId = m01;
shapes = (
{
closed = 1;
nodes = (
(645,-15,o),
(652,-15,o),
(659,-14,c),
(667,-13,o),
(674,-11,o),
(681,-6,c),
(692,10,o),
(687,26,o),
(674,36,c),
(649,41,o),
(635,48,o),
(623,58,c),
(592,82,o),
(585,89,o),
(563,120,c),
(527,174,o),
(490,227,o),
(455,282,c),
(449,293,o),
(451,294,o),
(453,295,c),
(512,329,o),
(552,394,o),
(552,466,c),
(552,619,o),
(402,659,o),
(279,659,c),
(198,659,o),
(114,659,o),
(32,651,c),
(12,641,o),
(12,599,o),
(35,599,c),
(81,598,o),
(100,597,o),
(108,587,c),
(113,582,o),
(115,575,o),
(116,562,c),
(117,549,o),
(117,532,o),
(117,509,c),
(117,140,l),
(117,106,l),
(117,66,o),
(109,53,o),
(55,53,c),
(52,53,o),
(49,53,o),
(46,53,c),
(42,53,o),
(38,53,o),
(35,52,c),
(1,47,o),
(11,-2,o),
(31,-3,c),
(47,-4,l),
(119,1,o),
(250,-3,o),
(321,-3,c),
(349,-3,o),
(348,19,o),
(344,39,c),
(337,60,o),
(317,57,o),
(300,55,c),
(250,55,o),
(240,64,o),
(238,106,c),
(237,156,o),
(237,195,o),
(237,245,c),
(237,246,o),
(240,258,o),
(246,257,c),
(280,256,o),
(308,257,o),
(341,260,c),
(348,261,o),
(353,248,o),
(355,243,c),
(370,217,o),
(382,191,o),
(398,165,c),
(424,125,o),
(451,84,o),
(483,48,c),
(510,17,o),
(548,-15,o),
(638,-15,c)
);
},
{
closed = 1;
nodes = (
(245,311,o),
(237,315,o),
(237,322,c),
(237,596,l),
(237,609,o),
(258,608,o),
(269,608,c),
(393,608,o),
(423,549,o),
(423,460,c),
(423,395,o),
(390,335,o),
(329,314,c),
(306,307,o),
(269,310,o),
(245,311,c)
);
}
);
width = 696;
}
);
unicode = 82;
},
{
glyphname = S;
lastChange = "2023-05-15 06:41:04 +0000";
layers = (
{
hints = (
{
horizontal = 1;
place = (-19, 60);
place = (-19, 60);
type = Stem;
},
{
horizontal = 1;
place = (611, 56);
place = (611, 56);
type = Stem;
},
{
place = (54, 110);
place = (54, 110);
type = Stem;
},
{
place = (354, 114);
place = (354, 114);
type = Stem;
}
);
layerId = m01;
shapes = (
{
closed = 1;
nodes = (
(379,-19,o),
(468,60,o),
(468,169,c),
(468,277,o),
(369,340,o),
(289,393,c),
(243,424,o),
(164,473,o),
(164,534,c),
(164,579,o),
(191,611,o),
(248,611,c),
(308,611,o),
(348,571,o),
(377,499,c),
(380,493,o),
(421,474,o),
(423,509,c),
(422,523,o),
(418,552,o),
(407,635,c),
(406,644,o),
(402,652,o),
(392,651,c),
(384,652,o),
(375,652,o),
(367,649,c),
(361,645,l),
(360,643,o),
(358,642,o),
(356,642,c),
(352,642,o),
(345,643,o),
(324,650,c),
(292,660,o),
(274,667,o),
(239,667,c),
(131,667,o),
(54,600,o),
(54,505,c),
(54,408,o),
(137,348,o),
(211,299,c),
(267,262,o),
(354,216,o),
(354,140,c),
(354,84,o),
(314,41,o),
(244,41,c),
(212,41,o),
(196,48,o),
(169,67,c),
(135,90,o),
(119,115,o),
(99,175,c),
(89,186,o),
(49,180,o),
(51,164,c),
(58,103,o),
(65,52,o),
(72,12,c),
(75,-9,o),
(101,-7,o),
(115,0,c),
(120,7,o),
(121,8,o),
(123,8,c),
(126,8,o),
(128,8,o),
(149,2,c),
(183,-8,o),
(217,-19,o),
(253,-19,c)
);
}
);
width = 513;
}
);
unicode = 83;
},
{
glyphname = Scaron;
lastChange = "2023-05-15 06:07:10 +0000";
layers = (
{
hints = (
{
horizontal = 1;
place = (886, -20);
target = down;
type = TopGhost;
},
{
horizontal = 1;
place = (-19, 60);
place = (-19, 60);
type = Stem;
},
{
horizontal = 1;
place = (611, 56);
place = (611, 56);
type = Stem;
},
{
horizontal = 1;
place = (667, 21);
target = up;
type = BottomGhost;
},
{
place = (54, 110);
place = (54, 110);
type = Stem;
},
{
place = (354, 114);
place = (354, 114);
type = Stem;
},
{
horizontal = 1;
place = (885, -20);
target = down;
type = TopGhost;
}
);
layerId = m01;
shapes = (
{
closed = 1;
nodes = (
(379,-19,o),
(468,60,o),
(468,169,c),
(468,277,o),
(369,340,o),
(289,393,c),
(243,424,o),
(164,473,o),
(164,534,c),
(164,579,o),
(191,611,o),
(248,611,c),
(308,611,o),
(348,571,o),
(377,499,c),
(380,493,o),
(421,474,o),
(423,509,c),
(422,523,o),
(418,552,o),
(407,635,c),
(406,644,o),
(402,652,o),
(392,651,c),
(384,652,o),
(375,652,o),
(367,649,c),
(361,645,l),
(360,643,o),
(358,642,o),
(356,642,c),
(352,642,o),
(345,643,o),
(324,650,c),
(292,660,o),
(274,667,o),
(239,667,c),
(131,667,o),
(54,600,o),
(54,505,c),
(54,408,o),
(137,348,o),
(211,299,c),
(267,262,o),
(354,216,o),
(354,140,c),
(354,84,o),
(314,41,o),
(244,41,c),
(212,41,o),
(196,48,o),
(169,67,c),
(135,90,o),
(119,115,o),
(99,175,c),
(89,186,o),
(49,180,o),
(51,164,c),
(58,103,o),
(65,52,o),
(72,12,c),
(75,-9,o),
(101,-7,o),
(115,0,c),
(120,7,o),
(121,8,o),
(123,8,c),
(126,8,o),
(128,8,o),
(149,2,c),
(183,-8,o),
(217,-19,o),
(253,-19,c)
);
},
{
closed = 1;
nodes = (
(296,688,l),
(306,688,o),
(311,689,o),
(318,696,c),
(414,866,l),
(417,877,o),
(404,885,o),
(392,885,c),
(386,885,o),
(377,883,o),
(371,879,c),
(267,782,l),
(144,878,l),
(139,884,o),
(128,886,o),
(121,886,c),
(117,886,o),
(112,886,o),
(108,884,c),
(104,882,o),
(96,875,o),
(102,864,c),
(196,701,l),
(199,692,o),
(210,688,o),
(222,688,c)
);
}
);
width = 513;
}
);
unicode = 352;
},
{
glyphname = T;
lastChange = "2023-05-15 06:41:04 +0000";
layers = (
{
hints = (
{
horizontal = 1;
place = (582, 69);
place = (582, 69);
type = Stem;
},
{
place = (282, 121);
place = (282, 121);
type = Stem;
},
{
horizontal = 1;
place = (-4, 58);
place = (-4, 58);
type = Stem;
},
{
horizontal = 1;
place = (-3, 21);
target = up;
type = BottomGhost;
}
);
layerId = m01;
shapes = (
{
closed = 1;
nodes = (
(265,-2,o),
(414,0,o),
(492,-3,c),
(500,-3,o),
(512,-4,o),
(518,12,c),
(523,25,o),
(519,57,o),
(494,57,c),
(466,57,l),
(408,57,o),
(403,75,o),
(403,106,c),
(403,140,l),
(403,249,o),
(403,493,o),
(403,557,c),
(403,578,o),
(411,582,o),
(416,582,c),
(548,582,l),
(574,582,o),
(588,575,o),
(605,492,c),
(608,476,o),
(614,469,o),
(634,469,c),
(643,469,o),
(658,474,o),
(657,490,c),
(642,652,l),
(641,661,o),
(638,668,o),
(628,670,c),
(617,672,o),
(596,671,o),
(592,661,c),
(589,654,o),
(586,653,o),
(582,652,c),
(577,651,o),
(557,651,o),
(545,651,c),
(442,650,o),
(239,650,o),
(139,651,c),
(129,651,o),
(99,649,o),
(94,661,c),
(89,674,o),
(61,679,o),
(45,661,c),
(39,614,o),
(31,531,o),
(29,491,c),
(28,474,o),
(60,466,o),
(78,478,c),
(97,574,o),
(112,582,o),
(139,582,c),
(159,582,l),
(265,582,l),
(280,582,o),
(282,566,o),
(282,560,c),
(283,547,o),
(282,260,o),
(282,140,c),
(282,106,l),
(282,56,o),
(256,54,o),
(230,54,c),
(215,55,o),
(204,54,o),
(191,54,c),
(180,52,o),
(177,52,o),
(170,41,c),
(167,32,o),
(167,18,o),
(170,10,c),
(172,4,o),
(177,-4,o),
(192,-4,c)
);
}
);
width = 681;
}
);
unicode = 84;
},
{
glyphname = U;
lastChange = "2023-05-15 06:41:04 +0000";
layers = (
{
hints = (
{
horizontal = 1;
place = (-19, 84);
place = (-19, 84);
type = Stem;
},
{
horizontal = 1;
place = (598, 52);
place = (598, 52);
type = Stem;
},
{
horizontal = 1;
place = (597, -20);
target = down;
type = TopGhost;
},
{
place = (110, 121);
place = (110, 121);
type = Stem;
},
{
place = (619, 79);
place = (619, 79);
type = Stem;
}
);
layerId = m01;
shapes = (
{
closed = 1;
nodes = (
(501,-19,o),
(554,4,o),
(612,55,c),
(697,130,o),
(698,204,o),
(698,305,c),
(698,484,l),
(698,586,o),
(711,597,o),
(780,599,c),
(795,602,o),
(798,618,o),
(798,625,c),
(798,636,o),
(792,650,o),
(779,650,c),
(718,651,o),
(589,651,o),
(539,650,c),
(533,650,o),
(524,646,o),
(521,640,c),
(517,631,o),
(517,618,o),
(521,610,c),
(525,600,o),
(531,600,o),
(539,598,c),
(609,596,o),
(619,585,o),
(619,480,c),
(619,304,l),
(619,260,o),
(620,216,o),
(604,174,c),
(578,106,o),
(526,65,o),
(425,65,c),
(270,65,o),
(231,170,o),
(231,310,c),
(231,499,l),
(231,514,o),
(232,527,o),
(232,542,c),
(233,589,o),
(243,597,o),
(297,597,c),
(306,597,l),
(324,597,o),
(338,650,o),
(297,650,c),
(231,650,o),
(111,650,o),
(46,650,c),
(36,650,o),
(30,649,o),
(24,641,c),
(13,626,o),
(19,599,o),
(41,597,c),
(93,595,o),
(110,605,o),
(110,549,c),
(110,296,l),
(110,201,o),
(112,178,o),
(133,132,c),
(178,35,o),
(265,-19,o),
(402,-19,c)
);
}
);
width = 815;
}
);
unicode = 85;
},
{
glyphname = Uacute;
lastChange = "2023-05-15 06:07:10 +0000";
layers = (
{
hints = (
{
horizontal = 1;
place = (885, -20);
target = down;
type = TopGhost;
},
{
horizontal = 1;
place = (-19, 85);
place = (-19, 85);
type = Stem;
},
{
horizontal = 1;
place = (603, 52);
place = (603, 52);
type = Stem;
},
{
place = (112, 116);
place = (112, 116);
type = Stem;
},
{
place = (620, 78);
place = (620, 78);
type = Stem;
},
{
horizontal = 1;
place = (884, -20);
target = down;
type = TopGhost;
}
);
layerId = m01;
shapes = (
{
closed = 1;
nodes = (
(501,-19,o),
(554,5,o),
(612,56,c),
(697,131,o),
(698,206,o),
(698,308,c),
(698,488,l),
(698,591,o),
(711,602,o),
(780,604,c),
(795,607,o),
(798,623,o),
(798,630,c),
(798,641,o),
(792,655,o),
(779,655,c),
(718,656,o),
(585,656,o),
(535,655,c),
(511,655,o),
(518,609,o),
(533,605,c),
(540,603,l),
(610,601,o),
(620,590,o),
(620,484,c),
(620,307,l),
(620,263,o),
(621,218,o),
(605,176,c),
(579,107,o),
(526,66,o),
(425,66,c),
(270,66,o),
(228,172,o),
(228,313,c),
(228,503,l),
(228,518,o),
(229,532,o),
(229,546,c),
(230,593,o),
(241,603,o),
(294,603,c),
(303,603,l),
(326,603,o),
(332,655,o),
(304,655,c),
(222,657,o),
(64,657,o),
(37,655,c),
(4,653,o),
(24,604,o),
(37,603,c),
(109,603,o),
(112,597,o),
(112,552,c),
(112,298,l),
(112,203,o),
(114,180,o),
(135,134,c),
(180,35,o),
(264,-19,o),
(402,-19,c)
);
},
{
closed = 1;
nodes = (
(391,685,o),
(534,855,o),
(535,858,c),
(536,859,l),
(541,876,o),
(528,885,o),
(512,885,c),
(425,884,l),
(414,884,o),
(401,877,o),
(397,864,c),
(349,704,l),
(340,676,o),
(381,673,o),
(391,685,c)
);
}
);
width = 815;
}
);
unicode = 218;
},
{
glyphname = Ucircumflex;
lastChange = "2023-05-15 06:07:10 +0000";
layers = (
{
hints = (
{
horizontal = 1;
place = (602, 53);
place = (602, 53);
type = Stem;
},
{
place = (620, 78);
place = (620, 78);
type = Stem;
},
{
horizontal = 1;
place = (-19, 85);
place = (-19, 85);
type = Stem;
},
{
place = (112, 116);
place = (112, 116);
type = Stem;
},
{
horizontal = 1;
place = (603, -20);
target = down;
type = TopGhost;
}
);
layerId = m01;
shapes = (
{
closed = 1;
nodes = (
(501,-19,o),
(554,5,o),
(612,56,c),
(697,131,o),
(698,206,o),
(698,308,c),
(698,488,l),
(698,590,o),
(711,602,o),
(780,604,c),
(795,607,o),
(798,623,o),
(798,630,c),
(798,641,o),
(792,655,o),
(779,655,c),
(718,656,o),
(585,656,o),
(535,655,c),
(511,655,o),
(518,609,o),
(533,604,c),
(540,602,l),
(610,601,o),
(620,590,o),
(620,484,c),
(620,307,l),
(620,262,o),
(621,218,o),
(605,176,c),
(579,107,o),
(526,66,o),
(425,66,c),
(270,66,o),
(228,171,o),
(228,313,c),
(228,503,l),
(228,518,o),
(229,531,o),
(229,546,c),
(230,593,o),
(241,603,o),
(294,603,c),
(303,603,l),
(326,603,o),
(332,655,o),
(304,655,c),
(222,657,o),
(64,657,o),
(37,655,c),
(4,653,o),
(24,603,o),
(37,603,c),
(109,602,o),
(112,597,o),
(112,552,c),
(112,298,l),
(112,203,o),
(114,180,o),
(135,134,c),
(180,35,o),
(264,-19,o),
(402,-19,c)
);
},
{
closed = 1;
nodes = (
(569,718,o),
(566,735,o),
(561,743,c),
(470,887,l),
(464,897,o),
(460,901,o),
(446,902,c),
(432,903,o),
(381,902,o),
(372,901,c),
(365,898,o),
(357,894,o),
(353,886,c),
(266,738,l),
(254,718,o),
(289,705,o),
(305,719,c),
(411,815,l),
(524,719,l),
(532,713,o),
(545,713,o),
(554,715,c)
);
}
);
width = 815;
}
);
unicode = 219;
},
{
glyphname = Udieresis;
lastChange = "2023-05-15 06:07:10 +0000";
layers = (
{
hints = (
{
horizontal = 1;
place = (706, 138);
place = (706, 138);
type = Stem;
},
{
place = (461, 140);
place = (461, 140);
type = Stem;
},
{
place = (237, 140);
place = (237, 140);
type = Stem;
},
{
horizontal = 1;
place = (601, 53);
place = (601, 53);
type = Stem;
},
{
place = (620, 78);
place = (620, 78);
type = Stem;
},
{
horizontal = 1;
place = (-19, 85);
place = (-19, 85);
type = Stem;
},
{
place = (110, 121);
place = (110, 121);
type = Stem;
},
{
horizontal = 1;
place = (602, -20);
target = down;
type = TopGhost;
}
);
layerId = m01;
shapes = (
{
closed = 1;
nodes = (
(501,-19,o),
(554,5,o),
(612,56,c),
(697,131,o),
(698,206,o),
(698,307,c),
(698,487,l),
(698,590,o),
(711,601,o),
(780,603,c),
(795,606,o),
(798,622,o),
(798,629,c),
(798,640,o),
(792,654,o),
(779,654,c),
(718,655,o),
(585,655,o),
(535,654,c),
(511,654,o),
(518,608,o),
(533,604,c),
(540,601,l),
(610,600,o),
(620,589,o),
(620,483,c),
(620,306,l),
(620,262,o),
(621,218,o),
(605,175,c),
(579,107,o),
(526,66,o),
(425,66,c),
(270,66,o),
(231,171,o),
(231,312,c),
(231,502,l),
(231,517,o),
(232,531,o),
(232,545,c),
(233,592,o),
(241,602,o),
(294,602,c),
(303,602,l),
(326,602,o),
(332,654,o),
(304,654,c),
(222,656,o),
(64,656,o),
(37,654,c),
(4,652,o),
(24,603,o),
(37,602,c),
(109,602,o),
(110,597,o),
(110,551,c),
(110,298,l),
(110,203,o),
(112,179,o),
(133,133,c),
(178,35,o),
(265,-19,o),
(402,-19,c)
);
},
{
closed = 1;
nodes = (
(345,706,o),
(377,736,o),
(377,775,c),
(377,813,o),
(345,844,o),
(307,844,c),
(268,844,o),
(237,813,o),
(237,775,c),
(237,736,o),
(269,706,o),
(307,706,c)
);
},
{
closed = 1;
nodes = (
(571,706,o),
(601,737,o),
(601,775,c),
(601,813,o),
(571,844,o),
(532,844,c),
(494,844,o),
(461,813,o),
(461,775,c),
(461,737,o),
(494,706,o),
(532,706,c)
);
}
);
width = 815;
}
);
unicode = 220;
},
{
glyphname = Ugrave;
lastChange = "2023-05-15 06:07:10 +0000";
layers = (
{
hints = (
{
horizontal = 1;
place = (881, -20);
target = down;
type = TopGhost;
},
{
horizontal = 1;
place = (-19, 85);
place = (-19, 85);
type = Stem;
},
{
horizontal = 1;
place = (602, 53);
place = (602, 53);
type = Stem;
},
{
place = (112, 116);
place = (112, 116);
type = Stem;
},
{
place = (620, 78);
place = (620, 78);
type = Stem;
},
{
horizontal = 1;
place = (880, -20);
target = down;
type = TopGhost;
},
{
horizontal = 1;
place = (603, -20);
target = down;
type = TopGhost;
}
);
layerId = m01;
shapes = (
{
closed = 1;
nodes = (
(501,-19,o),
(554,5,o),
(612,56,c),
(697,131,o),
(698,206,o),
(698,308,c),
(698,488,l),
(698,591,o),
(711,602,o),
(780,604,c),
(795,607,o),
(798,623,o),
(798,630,c),
(798,641,o),
(792,655,o),
(779,655,c),
(718,656,o),
(585,656,o),
(535,655,c),
(511,655,o),
(518,609,o),
(533,605,c),
(540,602,l),
(610,601,o),
(620,590,o),
(620,484,c),
(620,307,l),
(620,263,o),
(621,218,o),
(605,176,c),
(579,107,o),
(526,66,o),
(425,66,c),
(270,66,o),
(228,172,o),
(228,313,c),
(228,503,l),
(228,518,o),
(229,531,o),
(229,546,c),
(230,593,o),
(241,603,o),
(294,603,c),
(303,603,l),
(326,603,o),
(332,655,o),
(304,655,c),
(222,657,o),
(64,657,o),
(37,655,c),
(4,653,o),
(24,604,o),
(37,603,c),
(109,603,o),
(112,597,o),
(112,552,c),
(112,298,l),
(112,203,o),
(114,180,o),
(135,134,c),
(180,35,o),
(264,-19,o),
(402,-19,c)
);
},
{
closed = 1;
nodes = (
(443,682,o),
(479,674,o),
(479,705,c),
(468,748,o),
(446,822,o),
(429,867,c),
(421,881,o),
(409,881,o),
(401,881,c),
(325,880,l),
(311,880,o),
(286,862,o),
(303,844,c),
(346,798,o),
(404,731,o),
(436,690,c)
);
}
);
width = 815;
}
);
unicode = 217;
},
{
glyphname = V;
lastChange = "2023-05-15 06:41:04 +0000";
layers = (
{
hints = (
{
horizontal = 1;
place = (600, 50);
place = (600, 50);
type = Stem;
},
{
horizontal = 1;
place = (598, -20);
target = down;
type = TopGhost;
}
);
layerId = m01;
shapes = (
{
closed = 1;
nodes = (
(415,-23,o),
(428,-7,o),
(431,1,c),
(629,505,l),
(661,587,o),
(678,600,o),
(727,600,c),
(748,603,o),
(756,651,o),
(723,650,c),
(685,649,o),
(536,647,o),
(498,650,c),
(491,651,o),
(478,648,o),
(474,642,c),
(468,633,o),
(468,620,o),
(473,610,c),
(479,599,o),
(484,598,o),
(495,598,c),
(516,598,o),
(530,598,o),
(540,596,c),
(559,591,o),
(564,580,o),
(563,565,c),
(562,550,o),
(555,532,o),
(549,517,c),
(412,161,l),
(410,155,o),
(403,162,o),
(401,166,c),
(254,526,l),
(251,534,o),
(248,541,o),
(245,548,c),
(240,565,o),
(235,584,o),
(259,589,c),
(272,592,o),
(293,593,o),
(322,595,c),
(330,599,o),
(337,600,o),
(341,611,c),
(345,620,o),
(343,635,o),
(337,643,c),
(331,652,o),
(317,650,o),
(307,650,c),
(244,648,o),
(114,648,o),
(47,650,c),
(40,650,o),
(25,649,o),
(21,635,c),
(18,629,o),
(17,618,o),
(20,609,c),
(25,599,o),
(31,597,o),
(40,595,c),
(80,594,o),
(100,592,o),
(129,520,c),
(341,-1,l),
(344,-9,o),
(353,-21,o),
(363,-23,c),
(378,-25,o),
(397,-25,o),
(404,-24,c)
);
}
);
width = 761;
}
);
unicode = 86;
},
{
glyphname = W;
lastChange = "2023-05-15 06:41:04 +0000";
layers = (
{
hints = (
{
horizontal = 1;
place = (599, 52);
place = (599, 52);
type = Stem;
},
{
horizontal = 1;
place = (598, -20);
target = down;
type = TopGhost;
},
{
horizontal = 1;
place = (594, -20);
target = down;
type = TopGhost;
},
{
horizontal = 1;
place = (600, -20);
target = down;
type = TopGhost;
},
{
horizontal = 1;
place = (652, -20);
target = down;
type = TopGhost;
}
);
layerId = m01;
shapes = (
{
closed = 1;
nodes = (
(435,-15,o),
(441,-7,o),
(446,6,c),
(546,247,l),
(550,257,o),
(555,261,o),
(560,249,c),
(664,5,l),
(666,1,o),
(668,-5,o),
(670,-8,c),
(680,-20,o),
(725,-18,o),
(738,-16,c),
(750,-14,o),
(755,0,o),
(757,5,c),
(957,520,l),
(985,594,o),
(998,600,o),
(1050,600,c),
(1068,600,o),
(1072,618,o),
(1072,627,c),
(1071,639,o),
(1063,652,o),
(1050,652,c),
(987,650,o),
(898,648,o),
(851,651,c),
(827,653,o),
(817,606,o),
(845,601,c),
(902,599,o),
(906,595,o),
(882,533,c),
(732,146,l),
(728,135,o),
(725,138,o),
(722,146,c),
(722,146,o),
(658,297,o),
(615,399,c),
(612,406,o),
(613,414,o),
(615,418,c),
(664,536,l),
(687,591,o),
(695,597,o),
(755,598,c),
(759,598,o),
(765,598,o),
(769,600,c),
(781,607,o),
(782,638,o),
(770,646,c),
(762,650,o),
(758,652,o),
(749,651,c),
(620,649,o),
(444,649,o),
(342,651,c),
(319,652,o),
(325,603,o),
(340,600,c),
(410,597,o),
(413,594,o),
(437,537,c),
(507,375,l),
(509,369,o),
(508,354,o),
(505,347,c),
(426,156,l),
(421,143,o),
(417,147,o),
(413,153,c),
(414,153,l),
(263,524,l),
(247,563,o),
(245,574,o),
(245,582,c),
(245,592,o),
(247,599,o),
(283,599,c),
(290,599,o),
(299,600,o),
(303,609,c),
(306,617,o),
(307,629,o),
(305,638,c),
(302,649,o),
(290,651,o),
(281,651,c),
(191,650,o),
(91,650,o),
(37,650,c),
(4,650,o),
(9,606,o),
(23,598,c),
(30,594,o),
(37,594,o),
(43,594,c),
(61,593,o),
(94,595,o),
(109,582,c),
(122,572,o),
(131,551,o),
(149,505,c),
(347,8,l),
(351,-2,o),
(358,-12,o),
(368,-16,c),
(380,-19,o),
(409,-21,o),
(421,-18,c)
);
},
{
closed = 1;
nodes = (
(562,518,o),
(539,574,o),
(536,584,c),
(532,598,o),
(535,598,o),
(550,599,c),
(564,599,o),
(581,598,o),
(591,599,c),
(605,598,o),
(607,594,o),
(604,585,c),
(596,562,o),
(586,533,o),
(576,510,c),
(573,502,o),
(570,500,o),
(565,510,c)
);
}
);
width = 1086;
}
);
unicode = 87;
},
{
glyphname = X;
lastChange = "2023-05-15 06:07:10 +0000";
layers = (
{
hints = (
{
horizontal = 1;
place = (-2, 51);
place = (-2, 51);
type = Stem;
},
{
horizontal = 1;
place = (599, 51);
place = (599, 51);
type = Stem;
},
{
horizontal = 1;
place = (597, -20);
target = down;
type = TopGhost;
},
{
horizontal = 1;
place = (652, -20);
target = down;
type = TopGhost;
},
{
horizontal = 1;
place = (-3, 21);
target = up;
type = BottomGhost;
}
);
layerId = m01;
shapes = (
{
closed = 1;
nodes = (
(302,-3,o),
(300,49,o),
(272,49,c),
(263,49,l),
(237,49,o),
(225,52,o),
(220,55,c),
(216,57,o),
(215,59,o),
(215,63,c),
(215,66,o),
(219,77,o),
(235,97,c),
(362,254,l),
(373,268,o),
(373,271,o),
(384,256,c),
(496,106,l),
(505,94,o),
(522,73,o),
(523,58,c),
(523,50,o),
(501,49,o),
(489,49,c),
(476,49,l),
(462,49,o),
(457,21,o),
(464,7,c),
(469,-2,o),
(477,-4,o),
(486,-3,c),
(529,-1,o),
(700,0,o),
(752,-2,c),
(768,-3,o),
(773,14,o),
(773,22,c),
(773,33,o),
(767,47,o),
(755,48,c),
(670,58,o),
(667,75,o),
(622,134,c),
(618,139,o),
(511,286,o),
(451,353,c),
(447,358,o),
(446,359,o),
(451,365,c),
(541,483,l),
(591,547,o),
(630,594,o),
(711,599,c),
(738,598,o),
(742,647,o),
(711,651,c),
(630,647,o),
(561,650,o),
(480,650,c),
(474,650,o),
(466,648,o),
(462,644,c),
(452,636,o),
(452,612,o),
(463,602,c),
(470,596,o),
(493,597,o),
(502,597,c),
(525,597,o),
(530,590,o),
(516,570,c),
(482,520,o),
(445,474,o),
(409,427,c),
(409,427,o),
(401,418,o),
(398,421,c),
(302,547,l),
(294,557,o),
(284,571,o),
(280,581,c),
(275,592,o),
(277,596,o),
(285,597,c),
(294,598,o),
(306,598,o),
(327,599,c),
(335,599,o),
(341,601,o),
(347,603,c),
(356,612,o),
(355,633,o),
(352,638,c),
(346,652,o),
(333,652,o),
(326,652,c),
(251,648,o),
(117,648,o),
(50,651,c),
(36,652,o),
(26,647,o),
(22,638,c),
(18,629,o),
(21,615,o),
(22,610,c),
(25,599,o),
(41,592,o),
(47,592,c),
(86,591,o),
(104,589,o),
(120,579,c),
(142,567,o),
(168,531,o),
(183,511,c),
(320,338,l),
(322,333,o),
(331,329,o),
(322,320,c),
(261,244,o),
(205,176,o),
(145,99,c),
(117,62,o),
(91,55,o),
(42,51,c),
(28,50,o),
(22,34,o),
(22,25,c),
(22,15,o),
(28,-3,o),
(42,-2,c),
(111,1,o),
(222,-2,o),
(274,-3,c)
);
}
);
width = 785;
}
);
unicode = 88;
},
{
glyphname = Y;
lastChange = "2023-05-15 06:41:04 +0000";
layers = (
{
hints = (
{
horizontal = 1;
place = (599, -20);
target = down;
type = TopGhost;
},
{
horizontal = 1;
place = (-4, 61);
place = (-4, 61);
type = Stem;
},
{
place = (328, 119);
place = (328, 119);
type = Stem;
},
{
horizontal = 1;
place = (598, 52);
place = (598, 52);
type = Stem;
},
{
horizontal = 1;
place = (597, -20);
target = down;
type = TopGhost;
},
{
horizontal = 1;
place = (-3, 21);
target = up;
type = BottomGhost;
}
);
layerId = m01;
shapes = (
{
closed = 1;
nodes = (
(542,-4,o),
(547,13,o),
(547,23,c),
(547,34,o),
(549,47,o),
(537,53,c),
(527,59,o),
(517,56,o),
(506,56,c),
(471,58,o),
(447,65,o),
(447,106,c),
(447,134,o),
(448,205,o),
(447,252,c),
(592,493,l),
(623,544,o),
(645,595,o),
(716,599,c),
(731,599,o),
(735,617,o),
(735,625,c),
(735,635,o),
(730,650,o),
(715,650,c),
(638,648,o),
(552,648,o),
(502,650,c),
(464,652,o),
(478,604,o),
(491,598,c),
(503,598,l),
(543,598,o),
(546,594,o),
(546,583,c),
(546,575,o),
(537,554,o),
(519,524,c),
(413,349,l),
(404,334,o),
(401,341,o),
(396,349,c),
(272,536,l),
(258,558,o),
(252,569,o),
(249,576,c),
(245,587,o),
(245,593,o),
(258,596,c),
(265,597,o),
(276,597,o),
(294,597,c),
(333,597,o),
(319,651,o),
(297,650,c),
(244,648,o),
(101,649,o),
(33,650,c),
(20,652,o),
(13,639,o),
(11,630,c),
(10,625,o),
(10,616,o),
(11,612,c),
(15,598,o),
(26,598,o),
(35,598,c),
(89,596,o),
(103,586,o),
(149,515,c),
(328,240,l),
(330,203,o),
(329,138,o),
(327,107,c),
(325,74,o),
(315,59,o),
(285,57,c),
(262,56,o),
(239,67,o),
(228,39,c),
(226,32,o),
(225,20,o),
(229,10,c),
(233,2,o),
(247,-3,o),
(255,-3,c),
(362,0,o),
(405,-2,o),
(525,-4,c)
);
}
);
width = 728;
}
);
unicode = 89;
},
{
glyphname = Yacute;
lastChange = "2023-05-15 06:07:10 +0000";
layers = (
{
hints = (
{
horizontal = 1;
place = (913, -20);
target = down;
type = TopGhost;
},
{
horizontal = 1;
place = (-4, 61);
place = (-4, 61);
type = Stem;
},
{
horizontal = 1;
place = (601, 52);
place = (601, 52);
type = Stem;
},
{
horizontal = 1;
place = (600, -20);
target = down;
type = TopGhost;
},
{
place = (328, 119);
place = (328, 119);
type = Stem;
},
{
horizontal = 1;
place = (912, -20);
target = down;
type = TopGhost;
},
{
horizontal = 1;
place = (-3, 21);
target = up;
type = BottomGhost;
}
);
layerId = m01;
shapes = (
{
closed = 1;
nodes = (
(542,-4,o),
(547,13,o),
(547,23,c),
(547,34,o),
(549,47,o),
(537,54,c),
(527,60,o),
(517,56,o),
(506,57,c),
(471,58,o),
(447,65,o),
(447,106,c),
(447,134,o),
(448,206,o),
(447,254,c),
(592,495,l),
(623,547,o),
(645,598,o),
(716,601,c),
(731,602,o),
(735,620,o),
(735,628,c),
(735,638,o),
(730,653,o),
(715,653,c),
(638,651,o),
(552,650,o),
(502,653,c),
(464,654,o),
(478,606,o),
(491,601,c),
(503,601,l),
(543,601,o),
(546,596,o),
(546,585,c),
(546,578,o),
(537,557,o),
(519,526,c),
(413,350,l),
(410,345,o),
(403,340,o),
(401,344,c),
(272,538,l),
(258,560,o),
(252,571,o),
(249,578,c),
(247,584,o),
(247,585,o),
(247,591,c),
(247,595,o),
(249,600,o),
(294,600,c),
(333,600,o),
(319,653,o),
(297,653,c),
(244,651,o),
(101,652,o),
(33,653,c),
(20,654,o),
(13,642,o),
(11,633,c),
(10,627,o),
(10,619,o),
(11,614,c),
(15,600,o),
(26,600,o),
(35,600,c),
(89,599,o),
(103,589,o),
(149,517,c),
(328,241,l),
(330,204,o),
(329,138,o),
(327,107,c),
(325,74,o),
(315,59,o),
(285,57,c),
(262,56,o),
(239,67,o),
(228,39,c),
(226,32,o),
(225,20,o),
(229,10,c),
(233,2,o),
(247,-3,o),
(255,-3,c),
(362,0,o),
(405,-2,o),
(525,-4,c)
);
},
{
closed = 1;
nodes = (
(359,713,o),
(501,883,o),
(502,886,c),
(508,904,o),
(496,913,o),
(479,913,c),
(392,912,l),
(380,912,o),
(370,904,o),
(364,893,c),
(316,732,l),
(308,704,o),
(348,701,o),
(359,713,c)
);
}
);
width = 728;
}
);
unicode = 221;
},
{
glyphname = Ydieresis;
lastChange = "2023-05-15 06:07:10 +0000";
layers = (
{
hints = (
{
horizontal = 1;
place = (706, 138);
place = (706, 138);
type = Stem;
},
{
place = (411, 139);
place = (411, 139);
type = Stem;
},
{
place = (236, 140);
place = (236, 140);
type = Stem;
},
{
horizontal = 1;
place = (599, -20);
target = down;
type = TopGhost;
},
{
horizontal = 1;
place = (-4, 61);
place = (-4, 61);
type = Stem;
},
{
horizontal = 1;
place = (598, 52);
place = (598, 52);
type = Stem;
},
{
horizontal = 1;
place = (597, -20);
target = down;
type = TopGhost;
},
{
place = (328, 119);
place = (328, 119);
type = Stem;
},
{
horizontal = 1;
place = (-3, 21);
target = up;
type = BottomGhost;
}
);
layerId = m01;
shapes = (
{
closed = 1;
nodes = (
(542,-4,o),
(547,13,o),
(547,23,c),
(547,34,o),
(549,47,o),
(537,53,c),
(527,59,o),
(517,56,o),
(506,56,c),
(471,58,o),
(447,65,o),
(447,106,c),
(447,134,o),
(448,205,o),
(447,252,c),
(592,493,l),
(623,544,o),
(645,595,o),
(716,599,c),
(731,599,o),
(735,617,o),
(735,625,c),
(735,635,o),
(730,650,o),
(715,650,c),
(638,648,o),
(552,648,o),
(502,650,c),
(464,652,o),
(478,604,o),
(491,598,c),
(503,598,l),
(543,598,o),
(546,594,o),
(546,583,c),
(546,575,o),
(537,554,o),
(519,524,c),
(413,349,l),
(404,334,o),
(401,341,o),
(396,349,c),
(272,536,l),
(258,558,o),
(252,569,o),
(249,576,c),
(245,587,o),
(245,593,o),
(258,596,c),
(265,597,o),
(276,597,o),
(294,597,c),
(333,597,o),
(319,651,o),
(297,650,c),
(244,648,o),
(101,649,o),
(33,650,c),
(20,652,o),
(13,639,o),
(11,630,c),
(10,625,o),
(10,616,o),
(11,612,c),
(15,598,o),
(26,598,o),
(35,598,c),
(89,596,o),
(103,586,o),
(149,515,c),
(328,240,l),
(330,203,o),
(329,138,o),
(327,107,c),
(325,74,o),
(315,59,o),
(285,57,c),
(262,56,o),
(239,67,o),
(228,39,c),
(226,32,o),
(225,20,o),
(229,10,c),
(233,2,o),
(247,-3,o),
(255,-3,c),
(362,0,o),
(405,-2,o),
(525,-4,c)
);
},
{
closed = 1;
nodes = (
(345,706,o),
(376,736,o),
(376,775,c),
(376,813,o),
(345,844,o),
(306,844,c),
(268,844,o),
(236,813,o),
(236,775,c),
(236,736,o),
(268,706,o),
(306,706,c)
);
},
{
closed = 1;
nodes = (
(520,706,o),
(550,737,o),
(550,775,c),
(550,813,o),
(520,844,o),
(481,844,c),
(442,844,o),
(411,813,o),
(411,775,c),
(411,737,o),
(442,706,o),
(481,706,c)
);
}
);
width = 728;
}
);
unicode = 376;
},
{
glyphname = Z;
lastChange = "2023-05-15 06:41:04 +0000";
layers = (
{
hints = (
{
horizontal = 1;
place = (-3, 70);
place = (-3, 70);
type = Stem;
},
{
horizontal = 1;
place = (583, 67);
place = (583, 67);
type = Stem;
},
{
horizontal = 1;
place = (-2, 21);
target = up;
type = BottomGhost;
}
);
layerId = m01;
shapes = (
{
closed = 1;
nodes = (
(388,-3,o),
(518,-2,o),
(588,-2,c),
(597,-2,o),
(625,5,o),
(628,18,c),
(633,63,o),
(640,149,o),
(642,198,c),
(642,206,o),
(638,211,o),
(625,211,c),
(620,211,o),
(609,212,o),
(601,211,c),
(587,210,o),
(587,205,o),
(586,196,c),
(576,99,o),
(562,67,o),
(457,67,c),
(227,67,l),
(224,67,o),
(196,67,o),
(201,72,c),
(615,604,l),
(624,619,o),
(618,635,o),
(615,640,c),
(610,651,o),
(594,650,o),
(585,650,c),
(117,650,l),
(106,648,o),
(89,643,o),
(86,632,c),
(82,598,o),
(81,530,o),
(81,492,c),
(81,470,o),
(131,474,o),
(132,483,c),
(133,488,l),
(144,579,o),
(153,583,o),
(246,583,c),
(448,583,l),
(449,583,o),
(448,577,o),
(446,574,c),
(38,45,l),
(35,41,o),
(32,32,o),
(31,26,c),
(28,3,o),
(50,-2,o),
(61,-2,c),
(73,-2,o),
(167,-3,o),
(276,-3,c)
);
}
);
width = 705;
}
);
unicode = 90;
},
{
glyphname = Zcaron;
lastChange = "2023-05-15 06:07:10 +0000";
layers = (
{
hints = (
{
horizontal = 1;
place = (886, -20);
target = down;
type = TopGhost;
},
{
horizontal = 1;
place = (-3, 70);
place = (-3, 70);
type = Stem;
},
{
horizontal = 1;
place = (583, 67);
place = (583, 67);
type = Stem;
},
{
horizontal = 1;
place = (650, 38);
place = (650, 38);
type = Stem;
},
{
horizontal = 1;
place = (885, -20);
target = down;
type = TopGhost;
},
{
horizontal = 1;
place = (-2, 21);
target = up;
type = BottomGhost;
}
);
layerId = m01;
shapes = (
{
closed = 1;
nodes = (
(388,-3,o),
(518,-2,o),
(588,-2,c),
(597,-2,o),
(625,5,o),
(628,18,c),
(633,63,o),
(640,149,o),
(642,198,c),
(642,206,o),
(638,211,o),
(625,211,c),
(620,211,o),
(609,212,o),
(601,211,c),
(587,210,o),
(587,205,o),
(586,196,c),
(576,99,o),
(562,67,o),
(457,67,c),
(227,67,l),
(224,67,o),
(196,67,o),
(201,72,c),
(615,604,l),
(624,619,o),
(618,635,o),
(615,640,c),
(609,651,o),
(594,650,o),
(585,650,c),
(117,650,l),
(106,648,o),
(89,643,o),
(86,632,c),
(82,598,o),
(81,530,o),
(81,492,c),
(81,470,o),
(131,474,o),
(132,483,c),
(133,488,l),
(144,579,o),
(153,583,o),
(246,583,c),
(448,583,l),
(449,583,o),
(448,577,o),
(446,574,c),
(38,45,l),
(35,41,o),
(32,32,o),
(31,26,c),
(28,3,o),
(50,-2,o),
(61,-2,c),
(73,-2,o),
(167,-3,o),
(276,-3,c)
);
},
{
closed = 1;
nodes = (
(393,688,l),
(403,688,o),
(408,689,o),
(415,696,c),
(512,866,l),
(515,877,o),
(502,885,o),
(490,885,c),
(482,885,o),
(474,883,o),
(469,879,c),
(364,782,l),
(239,878,l),
(233,884,o),
(224,886,o),
(216,886,c),
(212,886,o),
(207,886,o),
(204,884,c),
(200,882,o),
(191,875,o),
(197,864,c),
(292,702,l),
(294,691,o),
(309,688,o),
(318,688,c)
);
}
);
width = 705;
}
);
unicode = 381;
},
{
glyphname = a;
lastChange = "2023-05-15 06:41:04 +0000";
layers = (
{
hints = (
{
horizontal = 1;
place = (-12, 66);
place = (-12, 66);
type = Stem;
},
{
horizontal = 1;
place = (371, 60);
place = (371, 60);
type = Stem;
},
{
place = (29, 90);
place = (29, 90);
type = Stem;
},
{
place = (227, 101);
place = (227, 101);
type = Stem;
}
);
layerId = m01;
shapes = (
{
closed = 1;
nodes = (
(168,-12,o),
(190,1,o),
(234,35,c),
(234,36,l),
(242,5,o),
(261,-12,o),
(292,-12,c),
(321,-12,o),
(362,11,o),
(404,48,c),
(408,60,o),
(410,84,o),
(389,87,c),
(381,87,o),
(379,86,o),
(373,82,c),
(362,73,o),
(352,67,o),
(339,67,c),
(332,67,o),
(328,69,o),
(328,104,c),
(328,278,l),
(328,338,o),
(327,348,o),
(309,372,c),
(285,406,o),
(237,431,o),
(192,431,c),
(158,431,o),
(131,418,o),
(94,390,c),
(57,361,o),
(29,330,o),
(29,301,c),
(29,273,o),
(44,270,o),
(65,277,c),
(72,279,o),
(120,299,o),
(132,313,c),
(127,326,o),
(128,325,o),
(128,338,c),
(128,351,o),
(155,371,o),
(173,371,c),
(205,371,o),
(226,348,o),
(227,295,c),
(228,234,l),
(228,230,o),
(225,227,o),
(223,225,c),
(194,212,o),
(165,199,o),
(134,191,c),
(65,173,o),
(23,140,o),
(23,84,c),
(23,27,o),
(68,-12,o),
(128,-12,c)
);
},
{
closed = 1;
nodes = (
(137,54,o),
(119,72,o),
(119,96,c),
(119,116,o),
(128,131,o),
(165,145,c),
(186,154,o),
(201,160,o),
(221,170,c),
(224,171,o),
(227,166,o),
(227,162,c),
(227,96,l),
(219,79,o),
(177,54,o),
(162,54,c)
);
}
);
width = 421;
}
);
unicode = 97;
},
{
glyphname = aacute;
lastChange = "2023-05-15 06:07:10 +0000";
layers = (
{
hints = (
{
horizontal = 1;
place = (-12, 66);
place = (-12, 66);
type = Stem;
},
{
horizontal = 1;
place = (371, 60);
place = (371, 60);
type = Stem;
},
{
horizontal = 1;
place = (661, -20);
target = down;
type = TopGhost;
},
{
place = (29, 89);
place = (29, 89);
type = Stem;
},
{
place = (227, 100);
place = (227, 100);
type = Stem;
}
);
layerId = m01;
shapes = (
{
closed = 1;
nodes = (
(168,-12,o),
(190,1,o),
(233,35,c),
(233,36,l),
(242,5,o),
(260,-12,o),
(292,-12,c),
(320,-12,o),
(362,11,o),
(403,48,c),
(408,60,o),
(409,84,o),
(389,87,c),
(381,87,o),
(379,86,o),
(373,82,c),
(361,73,o),
(352,67,o),
(338,67,c),
(331,67,o),
(327,69,o),
(327,104,c),
(327,278,l),
(327,338,o),
(326,348,o),
(309,372,c),
(284,406,o),
(237,431,o),
(192,431,c),
(157,431,o),
(131,418,o),
(94,390,c),
(57,361,o),
(29,330,o),
(29,301,c),
(29,273,o),
(44,270,o),
(65,277,c),
(72,279,o),
(119,299,o),
(132,313,c),
(126,326,o),
(127,325,o),
(127,338,c),
(127,351,o),
(154,371,o),
(172,371,c),
(205,371,o),
(226,348,o),
(227,295,c),
(228,234,l),
(228,230,o),
(225,227,o),
(222,225,c),
(193,212,o),
(165,199,o),
(134,191,c),
(65,173,o),
(23,140,o),
(23,84,c),
(23,27,o),
(67,-12,o),
(128,-12,c)
);
},
{
closed = 1;
nodes = (
(137,54,o),
(118,72,o),
(118,96,c),
(118,116,o),
(128,131,o),
(164,145,c),
(186,154,o),
(201,160,o),
(221,170,c),
(224,171,o),
(227,166,o),
(227,162,c),
(227,96,l),
(219,79,o),
(177,54,o),
(162,54,c)
);
},
{
closed = 1;
nodes = (
(328,631,l),
(330,633,o),
(330,635,o),
(331,638,c),
(332,639,l),
(334,657,o),
(318,661,o),
(308,661,c),
(222,661,l),
(211,661,o),
(198,654,o),
(194,641,c),
(147,482,l),
(138,454,o),
(179,452,o),
(189,464,c)
);
}
);
width = 421;
}
);
unicode = 225;
},
{
glyphname = acircumflex;
lastChange = "2023-05-15 06:07:10 +0000";
layers = (
{
hints = (
{
horizontal = 1;
place = (-12, 66);
place = (-12, 66);
type = Stem;
},
{
horizontal = 1;
place = (371, 60);
place = (371, 60);
type = Stem;
},
{
place = (29, 89);
place = (29, 89);
type = Stem;
},
{
place = (227, 100);
place = (227, 100);
type = Stem;
}
);
layerId = m01;
shapes = (
{
closed = 1;
nodes = (
(168,-12,o),
(190,1,o),
(233,35,c),
(233,36,l),
(242,5,o),
(260,-12,o),
(292,-12,c),
(320,-12,o),
(362,11,o),
(403,48,c),
(408,60,o),
(409,84,o),
(389,87,c),
(381,87,o),
(379,86,o),
(373,82,c),
(361,73,o),
(352,67,o),
(338,67,c),
(331,67,o),
(327,69,o),
(327,104,c),
(327,278,l),
(327,338,o),
(326,348,o),
(309,372,c),
(284,406,o),
(237,431,o),
(192,431,c),
(157,431,o),
(131,418,o),
(94,390,c),
(57,361,o),
(29,330,o),
(29,301,c),
(29,273,o),
(44,270,o),
(65,277,c),
(72,279,o),
(119,299,o),
(132,313,c),
(126,326,o),
(127,325,o),
(127,338,c),
(127,351,o),
(154,371,o),
(172,371,c),
(205,371,o),
(226,348,o),
(227,295,c),
(228,234,l),
(228,230,o),
(225,227,o),
(222,225,c),
(193,212,o),
(165,199,o),
(134,191,c),
(65,173,o),
(23,140,o),
(23,84,c),
(23,27,o),
(67,-12,o),
(128,-12,c)
);
},
{
closed = 1;
nodes = (
(137,54,o),
(118,72,o),
(118,96,c),
(118,116,o),
(128,131,o),
(164,145,c),
(186,154,o),
(201,160,o),
(221,170,c),
(224,171,o),
(227,166,o),
(227,162,c),
(227,96,l),
(219,79,o),
(177,54,o),
(162,54,c)
);
},
{
closed = 1;
nodes = (
(342,471,o),
(339,484,o),
(335,493,c),
(248,635,l),
(241,646,o),
(236,648,o),
(224,649,c),
(210,650,o),
(166,649,o),
(158,648,c),
(151,645,o),
(144,641,o),
(139,634,c),
(51,489,l),
(40,471,o),
(75,457,o),
(90,471,c),
(191,562,l),
(299,471,l),
(306,465,o),
(319,465,o),
(327,467,c)
);
}
);
width = 421;
}
);
unicode = 226;
},
{
glyphname = adieresis;
lastChange = "2023-05-15 06:07:10 +0000";
layers = (
{
hints = (
{
horizontal = 1;
place = (467, 131);
place = (467, 131);
type = Stem;
},
{
place = (227, 132);
place = (227, 132);
type = Stem;
},
{
place = (63, 132);
place = (63, 132);
type = Stem;
},
{
horizontal = 1;
place = (-12, 66);
place = (-12, 66);
type = Stem;
},
{
horizontal = 1;
place = (371, 60);
place = (371, 60);
type = Stem;
},
{
place = (227, 100);
place = (227, 100);
type = Stem;
},
{
place = (29, 89);
place = (29, 89);
type = Stem;
}
);
layerId = m01;
shapes = (
{
closed = 1;
nodes = (
(168,-12,o),
(190,1,o),
(233,35,c),
(233,36,l),
(242,5,o),
(260,-12,o),
(292,-12,c),
(320,-12,o),
(362,11,o),
(403,48,c),
(408,60,o),
(409,84,o),
(389,87,c),
(381,87,o),
(379,86,o),
(373,82,c),
(361,73,o),
(352,67,o),
(338,67,c),
(331,67,o),
(327,69,o),
(327,104,c),
(327,278,l),
(327,338,o),
(326,348,o),
(309,372,c),
(284,406,o),
(237,431,o),
(192,431,c),
(157,431,o),
(131,418,o),
(94,390,c),
(57,361,o),
(29,330,o),
(29,301,c),
(29,273,o),
(44,270,o),
(65,277,c),
(72,279,o),
(119,299,o),
(132,313,c),
(126,326,o),
(127,325,o),
(127,338,c),
(127,351,o),
(154,371,o),
(172,371,c),
(205,371,o),
(226,348,o),
(227,295,c),
(228,234,l),
(228,230,o),
(225,227,o),
(222,225,c),
(193,212,o),
(165,199,o),
(134,191,c),
(65,173,o),
(23,140,o),
(23,84,c),
(23,27,o),
(67,-12,o),
(128,-12,c)
);
},
{
closed = 1;
nodes = (
(137,54,o),
(118,72,o),
(118,96,c),
(118,116,o),
(128,131,o),
(164,145,c),
(186,154,o),
(201,160,o),
(221,170,c),
(224,171,o),
(227,166,o),
(227,162,c),
(227,96,l),
(219,79,o),
(177,54,o),
(162,54,c)
);
},
{
closed = 1;
nodes = (
(165,467,o),
(195,495,o),
(195,533,c),
(195,568,o),
(165,598,o),
(129,598,c),
(93,598,o),
(63,568,o),
(63,533,c),
(63,495,o),
(93,467,o),
(129,467,c)
);
},
{
closed = 1;
nodes = (
(330,467,o),
(359,497,o),
(359,533,c),
(359,568,o),
(330,598,o),
(293,598,c),
(257,598,o),
(227,568,o),
(227,533,c),
(227,496,o),
(257,467,o),
(293,467,c)
);
}
);
width = 421;
}
);
unicode = 228;
},
{
glyphname = agrave;
lastChange = "2023-05-15 06:07:10 +0000";
layers = (
{
hints = (
{
horizontal = 1;
place = (658, -20);
target = down;
type = TopGhost;
},
{
horizontal = 1;
place = (-12, 66);
place = (-12, 66);
type = Stem;
},
{
horizontal = 1;
place = (371, 60);
place = (371, 60);
type = Stem;
},
{
place = (29, 89);
place = (29, 89);
type = Stem;
},
{
place = (227, 100);
place = (227, 100);
type = Stem;
},
{
horizontal = 1;
place = (657, -20);
target = down;
type = TopGhost;
}
);
layerId = m01;
shapes = (
{
closed = 1;
nodes = (
(168,-12,o),
(190,1,o),
(233,35,c),
(233,36,l),
(242,5,o),
(260,-12,o),
(292,-12,c),
(320,-12,o),
(362,11,o),
(403,48,c),
(408,60,o),
(409,84,o),
(389,87,c),
(381,87,o),
(379,86,o),
(373,82,c),
(361,73,o),
(352,67,o),
(338,67,c),
(331,67,o),
(327,69,o),
(327,104,c),
(327,278,l),
(327,338,o),
(326,348,o),
(309,372,c),
(284,406,o),
(237,431,o),
(192,431,c),
(157,431,o),
(131,418,o),
(94,390,c),
(57,361,o),
(29,330,o),
(29,301,c),
(29,273,o),
(44,270,o),
(65,277,c),
(72,279,o),
(119,299,o),
(132,313,c),
(126,326,o),
(127,325,o),
(127,338,c),
(127,351,o),
(154,371,o),
(172,371,c),
(205,371,o),
(226,348,o),
(227,295,c),
(228,234,l),
(228,230,o),
(225,227,o),
(222,225,c),
(193,212,o),
(165,199,o),
(134,191,c),
(65,173,o),
(23,140,o),
(23,84,c),
(23,27,o),
(67,-12,o),
(128,-12,c)
);
},
{
closed = 1;
nodes = (
(137,54,o),
(118,72,o),
(118,96,c),
(118,116,o),
(128,131,o),
(164,145,c),
(186,154,o),
(201,160,o),
(221,170,c),
(224,171,o),
(227,166,o),
(227,162,c),
(227,96,l),
(219,79,o),
(177,54,o),
(162,54,c)
);
},
{
closed = 1;
nodes = (
(240,461,o),
(275,452,o),
(275,483,c),
(265,526,o),
(242,600,o),
(225,644,c),
(219,657,o),
(209,658,o),
(198,658,c),
(124,657,l),
(110,657,o),
(85,639,o),
(101,621,c),
(144,576,o),
(201,510,o),
(232,468,c)
);
}
);
width = 421;
}
);
unicode = 224;
},
{
glyphname = aring;
lastChange = "2023-05-15 06:07:10 +0000";
layers = (
{
hints = (
{
horizontal = 1;
place = (467, 64);
place = (467, 64);
type = Stem;
},
{
place = (241, 65);
place = (241, 65);
type = Stem;
},
{
horizontal = 1;
place = (616, 64);
place = (616, 64);
type = Stem;
},
{
place = (92, 65);
place = (92, 65);
type = Stem;
},
{
horizontal = 1;
place = (-12, 66);
place = (-12, 66);
type = Stem;
},
{
horizontal = 1;
place = (371, 60);
place = (371, 60);
type = Stem;
},
{
place = (227, 100);
place = (227, 100);
type = Stem;
},
{
place = (29, 89);
place = (29, 89);
type = Stem;
}
);
layerId = m01;
shapes = (
{
closed = 1;
nodes = (
(168,-12,o),
(190,1,o),
(233,35,c),
(233,36,l),
(242,5,o),
(260,-12,o),
(292,-12,c),
(320,-12,o),
(362,11,o),
(403,48,c),
(408,60,o),
(409,84,o),
(389,87,c),
(381,87,o),
(379,86,o),
(373,82,c),
(361,73,o),
(352,67,o),
(338,67,c),
(331,67,o),
(327,69,o),
(327,104,c),
(327,278,l),
(327,338,o),
(326,348,o),
(309,372,c),
(284,406,o),
(237,431,o),
(192,431,c),
(157,431,o),
(131,418,o),
(94,390,c),
(57,361,o),
(29,330,o),
(29,301,c),
(29,273,o),
(44,270,o),
(65,277,c),
(72,279,o),
(119,299,o),
(132,313,c),
(126,326,o),
(127,325,o),
(127,338,c),
(127,351,o),
(154,371,o),
(172,371,c),
(205,371,o),
(226,348,o),
(227,295,c),
(228,234,l),
(228,230,o),
(225,227,o),
(222,225,c),
(193,212,o),
(165,199,o),
(134,191,c),
(65,173,o),
(23,140,o),
(23,84,c),
(23,27,o),
(67,-12,o),
(128,-12,c)
);
},
{
closed = 1;
nodes = (
(137,54,o),
(118,72,o),
(118,96,c),
(118,116,o),
(128,131,o),
(164,145,c),
(186,154,o),
(201,160,o),
(221,170,c),
(224,171,o),
(227,166,o),
(227,162,c),
(227,96,l),
(219,79,o),
(177,54,o),
(162,54,c)
);
},
{
closed = 1;
nodes = (
(258,467,o),
(306,515,o),
(306,574,c),
(306,632,o),
(258,680,o),
(200,680,c),
(140,680,o),
(92,632,o),
(92,574,c),
(92,515,o),
(140,467,o),
(200,467,c)
);
},
{
closed = 1;
nodes = (
(176,531,o),
(157,550,o),
(157,574,c),
(157,597,o),
(176,616,o),
(200,616,c),
(222,616,o),
(241,597,o),
(241,574,c),
(241,550,o),
(222,531,o),
(200,531,c)
);
}
);
width = 421;
}
);
unicode = 229;
},
{
glyphname = atilde;
lastChange = "2023-05-15 06:07:10 +0000";
layers = (
{
hints = (
{
horizontal = 1;
place = (459, 87);
place = (459, 87);
type = Stem;
},
{
horizontal = 1;
place = (612, -20);
target = down;
type = TopGhost;
},
{
horizontal = 1;
place = (-12, 66);
place = (-12, 66);
type = Stem;
},
{
horizontal = 1;
place = (371, 60);
place = (371, 60);
type = Stem;
},
{
place = (29, 89);
place = (29, 89);
type = Stem;
},
{
place = (227, 100);
place = (227, 100);
type = Stem;
}
);
layerId = m01;
shapes = (
{
closed = 1;
nodes = (
(168,-12,o),
(190,1,o),
(233,35,c),
(233,36,l),
(242,5,o),
(260,-12,o),
(292,-12,c),
(320,-12,o),
(362,11,o),
(403,48,c),
(408,60,o),
(409,84,o),
(389,87,c),
(381,87,o),
(379,86,o),
(373,82,c),
(361,73,o),
(352,67,o),
(338,67,c),
(331,67,o),
(327,69,o),
(327,104,c),
(327,278,l),
(327,338,o),
(326,348,o),
(309,372,c),
(284,406,o),
(237,431,o),
(192,431,c),
(157,431,o),
(131,418,o),
(94,390,c),
(57,361,o),
(29,330,o),
(29,301,c),
(29,273,o),
(44,270,o),
(65,277,c),
(72,279,o),
(119,299,o),
(132,313,c),
(126,326,o),
(127,325,o),
(127,338,c),
(127,351,o),
(154,371,o),
(172,371,c),
(205,371,o),
(226,348,o),
(227,295,c),
(228,234,l),
(228,230,o),
(225,227,o),
(222,225,c),
(193,212,o),
(165,199,o),
(134,191,c),
(65,173,o),
(23,140,o),
(23,84,c),
(23,27,o),
(67,-12,o),
(128,-12,c)
);
},
{
closed = 1;
nodes = (
(137,54,o),
(118,72,o),
(118,96,c),
(118,116,o),
(128,131,o),
(164,145,c),
(186,154,o),
(201,160,o),
(221,170,c),
(224,171,o),
(227,166,o),
(227,162,c),
(227,96,l),
(219,79,o),
(177,54,o),
(162,54,c)
);
},
{
closed = 1;
nodes = (
(332,459,o),
(374,516,o),
(374,585,c),
(374,588,o),
(374,592,o),
(372,598,c),
(370,611,o),
(356,612,o),
(349,612,c),
(308,610,o),
(335,546,o),
(299,546,c),
(291,546,o),
(277,550,o),
(248,569,c),
(203,598,o),
(179,607,o),
(147,607,c),
(79,607,o),
(46,555,o),
(42,473,c),
(46,447,o),
(82,459,o),
(88,471,c),
(89,477,o),
(91,483,o),
(92,489,c),
(99,520,o),
(107,523,o),
(117,523,c),
(126,523,o),
(132,521,o),
(168,497,c),
(206,472,o),
(239,459,o),
(268,459,c)
);
}
);
width = 421;
}
);
unicode = 227;
},
{
glyphname = ae;
lastChange = "2023-05-15 06:07:10 +0000";
layers = (
{
hints = (
{
horizontal = 1;
place = (252, 51);
place = (252, 51);
type = Stem;
},
{
horizontal = 1;
place = (369, 64);
place = (369, 64);
type = Stem;
},
{
horizontal = 1;
place = (-17, 68);
place = (-17, 68);
type = Stem;
},
{
place = (40, 100);
place = (40, 100);
type = Stem;
},
{
place = (250, 99);
place = (250, 99);
type = Stem;
},
{
horizontal = 1;
place = (431, -20);
target = down;
type = TopGhost;
},
{
horizontal = 1;
place = (380, -20);
target = down;
type = TopGhost;
},
{
horizontal = 1;
place = (-17, 82);
place = (-17, 82);
type = Stem;
}
);
layerId = m01;
shapes = (
{
closed = 1;
nodes = (
(186,-17,o),
(244,13,o),
(286,55,c),
(289,58,o),
(291,57,o),
(295,53,c),
(329,8,o),
(378,-17,o),
(434,-17,c),
(507,-17,o),
(570,35,o),
(614,84,c),
(622,93,o),
(628,103,o),
(615,114,c),
(603,124,l),
(593,134,o),
(581,127,o),
(574,119,c),
(534,79,o),
(510,65,o),
(471,65,c),
(423,65,o),
(375,98,o),
(360,144,c),
(353,165,o),
(349,206,o),
(349,241,c),
(349,249,o),
(352,252,o),
(366,252,c),
(602,252,l),
(621,252,o),
(632,254,o),
(632,274,c),
(632,292,l),
(619,305,o),
(618,307,o),
(614,314,c),
(583,386,o),
(547,433,o),
(458,433,c),
(409,433,o),
(360,416,o),
(324,383,c),
(321,381,o),
(322,381,o),
(319,383,c),
(291,413,o),
(250,431,o),
(208,431,c),
(175,431,o),
(145,420,o),
(109,393,c),
(65,360,o),
(40,333,o),
(40,303,c),
(40,264,o),
(51,264,o),
(74,274,c),
(128,298,l),
(147,307,o),
(140,320,o),
(140,335,c),
(140,350,o),
(160,369,o),
(191,369,c),
(227,369,o),
(250,345,o),
(250,287,c),
(250,229,l),
(224,213,o),
(204,204,o),
(167,195,c),
(68,170,o),
(31,144,o),
(31,80,c),
(31,24,o),
(79,-17,o),
(139,-17,c)
);
},
{
closed = 1;
nodes = (
(147,51,o),
(130,66,o),
(130,93,c),
(130,117,o),
(139,129,o),
(193,147,c),
(215,154,o),
(231,161,o),
(243,166,c),
(250,170,o),
(250,158,o),
(250,146,c),
(250,90,l),
(220,62,o),
(195,51,o),
(174,51,c)
);
},
{
closed = 1;
nodes = (
(355,303,o),
(357,308,o),
(358,312,c),
(372,358,o),
(399,380,o),
(436,380,c),
(466,380,o),
(496,357,o),
(508,310,c),
(510,304,o),
(505,303,o),
(501,303,c),
(366,303,l)
);
}
);
width = 654;
}
);
unicode = 230;
},
{
glyphname = b;
lastChange = "2023-05-15 06:07:10 +0000";
layers = (
{
hints = (
{
horizontal = 1;
place = (-15, 63);
place = (-15, 63);
type = Stem;
},
{
horizontal = 1;
place = (357, 79);
place = (357, 79);
type = Stem;
},
{
place = (75, 95);
place = (75, 95);
type = Stem;
},
{
place = (366, 98);
place = (366, 98);
type = Stem;
}
);
layerId = m01;
shapes = (
{
closed = 1;
nodes = (
(367,-15,o),
(464,93,o),
(464,232,c),
(464,341,o),
(391,436,o),
(295,436,c),
(253,436,o),
(204,399,o),
(171,376,c),
(170,378,o),
(170,382,o),
(170,388,c),
(170,473,o),
(170,633,o),
(170,700,c),
(170,720,o),
(164,732,o),
(138,724,c),
(19,684,l),
(1,678,o),
(1,644,o),
(19,638,c),
(34,635,o),
(47,632,o),
(61,630,c),
(73,628,o),
(74,626,o),
(74,621,c),
(74,614,o),
(75,603,o),
(75,586,c),
(76,461,o),
(77,224,o),
(75,31,c),
(76,20,o),
(83,7,o),
(92,4,c),
(142,-7,o),
(200,-15,o),
(230,-15,c)
);
},
{
closed = 1;
nodes = (
(214,48,o),
(185,71,o),
(177,106,c),
(171,128,o),
(170,175,o),
(170,221,c),
(170,248,o),
(170,275,o),
(171,294,c),
(171,306,o),
(171,315,o),
(174,317,c),
(213,345,o),
(235,357,o),
(258,357,c),
(318,357,o),
(366,298,o),
(366,201,c),
(366,106,o),
(320,48,o),
(255,48,c)
);
}
);
width = 494;
}
);
unicode = 98;
},
{
glyphname = c;
lastChange = "2023-05-15 06:07:10 +0000";
layers = (
{
hints = (
{
horizontal = 1;
place = (-12, 74);
place = (-12, 74);
type = Stem;
},
{
place = (25, 100);
place = (25, 100);
type = Stem;
},
{
horizontal = 1;
place = (375, 57);
place = (375, 57);
type = Stem;
},
{
horizontal = 1;
place = (315, 117);
place = (315, 117);
type = Stem;
}
);
layerId = m01;
shapes = (
{
closed = 1;
nodes = (
(287,-12,o),
(349,25,o),
(393,93,c),
(396,96,o),
(401,107,o),
(398,116,c),
(396,122,o),
(388,132,o),
(382,135,c),
(366,139,o),
(355,126,o),
(352,118,c),
(327,82,o),
(292,62,o),
(247,62,c),
(178,62,o),
(125,121,o),
(125,216,c),
(125,306,o),
(180,375,o),
(235,375,c),
(251,375,o),
(263,371,o),
(283,352,c),
(309,327,o),
(326,315,o),
(351,315,c),
(376,315,o),
(396,335,o),
(396,361,c),
(396,409,o),
(330,432,o),
(270,432,c),
(135,432,o),
(25,326,o),
(25,194,c),
(25,77,o),
(103,-12,o),
(213,-12,c)
);
}
);
width = 434;
}
);
unicode = 99;
},
{
glyphname = ccedilla;
lastChange = "2023-05-15 06:07:10 +0000";
layers = (
{
hints = (
{
horizontal = 1;
place = (-18, 72);
place = (-18, 72);
type = Stem;
},
{
place = (25, 100);
place = (25, 100);
type = Stem;
},
{
horizontal = 1;
place = (375, 57);
place = (375, 57);
type = Stem;
},
{
horizontal = 1;
place = (-234, 21);
target = up;
type = BottomGhost;
},
{
place = (232, 73);
place = (232, 73);
type = Stem;
},
{
horizontal = 1;
place = (314, 118);
place = (314, 118);
type = Stem;
}
);
layerId = m01;
shapes = (
{
closed = 1;
nodes = (
(255,-234,o),
(305,-189,o),
(305,-133,c),
(305,-89,o),
(272,-55,o),
(234,-46,c),
(233,-46,o),
(236,-44,o),
(237,-44,c),
(252,-16,l),
(309,-5,o),
(357,31,o),
(394,88,c),
(396,91,o),
(402,102,o),
(399,111,c),
(397,117,o),
(388,127,o),
(383,130,c),
(367,134,o),
(356,119,o),
(353,114,c),
(328,77,o),
(293,54,o),
(248,54,c),
(179,54,o),
(125,116,o),
(125,212,c),
(125,304,o),
(181,375,o),
(236,375,c),
(252,375,o),
(264,370,o),
(284,350,c),
(310,326,o),
(327,314,o),
(352,314,c),
(377,314,o),
(397,334,o),
(397,360,c),
(397,408,o),
(331,432,o),
(271,432,c),
(136,432,o),
(25,326,o),
(25,191,c),
(25,79,o),
(94,-10,o),
(195,-18,c),
(197,-18,o),
(198,-19,o),
(196,-22,c),
(137,-120,l),
(125,-140,o),
(154,-150,o),
(164,-141,c),
(199,-112,o),
(232,-121,o),
(232,-149,c),
(232,-167,o),
(212,-184,o),
(190,-184,c),
(188,-184,o),
(185,-184,o),
(182,-183,c),
(171,-181,o),
(156,-178,o),
(150,-191,c),
(148,-193,o),
(148,-195,o),
(146,-196,c),
(140,-208,o),
(145,-223,o),
(155,-227,c),
(173,-233,o),
(186,-234,o),
(200,-234,c)
);
}
);
width = 434;
}
);
unicode = 231;
},
{
glyphname = d;
lastChange = "2023-05-15 06:41:04 +0000";
layers = (
{
hints = (
{
horizontal = 1;
place = (-15, 79);
place = (-15, 79);
type = Stem;
},
{
horizontal = 1;
place = (375, 61);
place = (375, 61);
type = Stem;
},
{
place = (19, 101);
place = (19, 101);
type = Stem;
},
{
place = (330, 99);
place = (330, 99);
type = Stem;
}
);
layerId = m01;
shapes = (
{
closed = 1;
nodes = (
(232,-15,o),
(271,3,o),
(324,38,c),
(328,41,o),
(331,35,o),
(331,31,c),
(330,14,o),
(337,-19,o),
(366,-10,c),
(400,0,o),
(463,23,o),
(496,39,c),
(506,43,o),
(508,61,o),
(504,73,c),
(498,93,o),
(490,92,o),
(474,88,c),
(469,86,o),
(450,79,o),
(445,79,c),
(429,79,o),
(429,81,o),
(429,124,c),
(429,713,l),
(429,726,o),
(423,743,o),
(399,733,c),
(360,719,o),
(311,703,o),
(277,692,c),
(262,689,o),
(258,677,o),
(259,665,c),
(260,654,o),
(262,645,o),
(276,643,c),
(289,642,o),
(319,642,o),
(329,636,c),
(331,635,o),
(331,630,o),
(331,628,c),
(332,609,o),
(333,479,o),
(331,441,c),
(331,435,o),
(334,421,o),
(327,423,c),
(300,431,o),
(276,436,o),
(250,436,c),
(119,436,o),
(19,330,o),
(19,196,c),
(19,82,o),
(94,-15,o),
(193,-15,c)
);
},
{
closed = 1;
nodes = (
(170,64,o),
(120,128,o),
(120,226,c),
(120,319,o),
(165,375,o),
(228,375,c),
(267,375,o),
(296,357,o),
(330,309,c),
(330,116,l),
(330,109,o),
(327,103,o),
(326,102,c),
(287,76,o),
(253,64,o),
(229,64,c)
);
}
);
width = 521;
}
);
unicode = 100;
},
{
glyphname = eth;
lastChange = "2023-05-15 06:07:10 +0000";
layers = (
{
hints = (
{
horizontal = 1;
place = (-17, 55);
place = (-17, 55);
type = Stem;
},
{
horizontal = 1;
place = (387, 56);
place = (387, 56);
type = Stem;
},
{
place = (41, 105);
place = (41, 105);
type = Stem;
},
{
place = (402, 106);
place = (402, 106);
type = Stem;
}
);
layerId = m01;
shapes = (
{
closed = 1;
nodes = (
(336,-17,o),
(391,4,o),
(433,41,c),
(487,88,o),
(508,148,o),
(508,240,c),
(508,311,o),
(487,390,o),
(450,455,c),
(425,499,o),
(382,553,o),
(341,584,c),
(335,588,o),
(335,589,o),
(341,593,c),
(349,596,o),
(357,600,o),
(366,604,c),
(382,612,o),
(422,630,o),
(407,655,c),
(400,668,o),
(390,671,o),
(372,666,c),
(284,623,l),
(245,645,o),
(220,654,o),
(162,671,c),
(149,674,o),
(133,669,o),
(125,656,c),
(118,643,l),
(108,626,o),
(127,614,o),
(135,611,c),
(165,601,o),
(181,593,o),
(199,582,c),
(201,581,o),
(201,579,o),
(199,578,c),
(92,522,l),
(77,514,o),
(74,502,o),
(81,486,c),
(88,473,o),
(101,470,o),
(110,473,c),
(235,538,l),
(243,542,o),
(257,540,o),
(262,535,c),
(289,511,o),
(300,498,o),
(315,476,c),
(320,468,o),
(338,440,o),
(338,432,c),
(338,430,o),
(337,432,o),
(334,433,c),
(314,440,o),
(296,443,o),
(271,443,c),
(141,443,o),
(41,343,o),
(41,213,c),
(41,80,o),
(139,-17,o),
(276,-17,c)
);
},
{
closed = 1;
nodes = (
(213,38,o),
(146,125,o),
(146,246,c),
(146,329,o),
(198,387,o),
(258,387,c),
(336,387,o),
(402,303,o),
(402,181,c),
(402,94,o),
(352,38,o),
(288,38,c)
);
}
);
width = 545;
}
);
unicode = 240;
},
{
glyphname = e;
lastChange = "2023-05-15 06:07:10 +0000";
layers = (
{
hints = (
{
horizontal = 1;
place = (-15, 81);
place = (-15, 81);
type = Stem;
},
{
horizontal = 1;
place = (254, 51);
place = (254, 51);
type = Stem;
},
{
horizontal = 1;
place = (379, 50);
place = (379, 50);
type = Stem;
},
{
place = (21, 97);
place = (21, 97);
type = Stem;
}
);
layerId = m01;
shapes = (
{
closed = 1;
nodes = (
(294,-15,o),
(356,41,o),
(405,96,c),
(413,110,o),
(402,129,o),
(389,132,c),
(380,134,o),
(369,130,o),
(364,124,c),
(328,82,o),
(294,66,o),
(251,66,c),
(176,66,o),
(118,132,o),
(118,226,c),
(118,235,o),
(118,254,o),
(132,254,c),
(194,253,o),
(312,251,o),
(387,254,c),
(412,255,o),
(414,277,o),
(408,293,c),
(397,307,o),
(389,323,o),
(381,339,c),
(352,401,o),
(304,429,o),
(232,429,c),
(111,429,o),
(21,331,o),
(21,202,c),
(21,83,o),
(102,-15,o),
(212,-15,c)
);
},
{
closed = 1;
nodes = (
(137,305,o),
(129,305,o),
(130,308,c),
(149,357,o),
(177,379,o),
(210,379,c),
(245,379,o),
(276,357,o),
(290,312,c),
(291,308,o),
(286,305,o),
(278,305,c),
(143,305,l)
);
}
);
width = 427;
}
);
unicode = 101;
},
{
glyphname = eacute;
lastChange = "2023-05-15 06:07:10 +0000";
layers = (
{
hints = (
{
horizontal = 1;
place = (-15, 82);
place = (-15, 82);
type = Stem;
},
{
horizontal = 1;
place = (256, 51);
place = (256, 51);
type = Stem;
},
{
horizontal = 1;
place = (382, 50);
place = (382, 50);
type = Stem;
},
{
horizontal = 1;
place = (661, -20);
target = down;
type = TopGhost;
},
{
place = (21, 97);
place = (21, 97);
type = Stem;
}
);
layerId = m01;
shapes = (
{
closed = 1;
nodes = (
(294,-15,o),
(355,41,o),
(404,97,c),
(412,111,o),
(402,130,o),
(388,133,c),
(380,135,o),
(369,131,o),
(364,125,c),
(327,82,o),
(294,67,o),
(251,67,c),
(176,67,o),
(118,133,o),
(118,228,c),
(118,237,o),
(117,256,o),
(131,256,c),
(194,255,o),
(311,253,o),
(386,256,c),
(412,257,o),
(413,279,o),
(408,295,c),
(396,310,o),
(389,326,o),
(381,342,c),
(351,404,o),
(303,432,o),
(232,432,c),
(110,432,o),
(21,334,o),
(21,204,c),
(21,84,o),
(102,-15,o),
(212,-15,c)
);
},
{
closed = 1;
nodes = (
(140,307,o),
(128,306,o),
(130,311,c),
(148,360,o),
(177,382,o),
(210,382,c),
(246,382,o),
(275,358,o),
(289,308,c),
(290,304,o),
(281,307,o),
(277,307,c),
(142,307,l)
);
},
{
closed = 1;
nodes = (
(349,631,l),
(352,633,o),
(353,637,o),
(353,641,c),
(356,657,o),
(340,661,o),
(329,661,c),
(243,661,l),
(233,661,o),
(220,654,o),
(216,641,c),
(168,482,l),
(160,454,o),
(200,452,o),
(210,464,c)
);
}
);
width = 427;
}
);
unicode = 233;
},
{
glyphname = ecircumflex;
lastChange = "2023-05-15 06:07:10 +0000";
layers = (
{
hints = (
{
horizontal = 1;
place = (-15, 82);
place = (-15, 82);
type = Stem;
},
{
horizontal = 1;
place = (256, 51);
place = (256, 51);
type = Stem;
},
{
horizontal = 1;
place = (382, 50);
place = (382, 50);
type = Stem;
},
{
place = (21, 97);
place = (21, 97);
type = Stem;
}
);
layerId = m01;
shapes = (
{
closed = 1;
nodes = (
(294,-15,o),
(355,41,o),
(404,97,c),
(412,111,o),
(402,130,o),
(388,133,c),
(380,135,o),
(369,131,o),
(364,125,c),
(327,82,o),
(294,67,o),
(251,67,c),
(176,67,o),
(118,133,o),
(118,228,c),
(118,237,o),
(117,256,o),
(131,256,c),
(194,255,o),
(311,253,o),
(386,256,c),
(412,257,o),
(413,279,o),
(408,295,c),
(396,309,o),
(389,325,o),
(381,342,c),
(351,404,o),
(303,432,o),
(232,432,c),
(110,432,o),
(21,333,o),
(21,204,c),
(21,84,o),
(102,-15,o),
(212,-15,c)
);
},
{
closed = 1;
nodes = (
(140,307,o),
(128,305,o),
(130,310,c),
(148,360,o),
(177,382,o),
(210,382,c),
(246,382,o),
(275,358,o),
(289,308,c),
(290,304,o),
(281,307,o),
(277,307,c),
(142,307,l)
);
},
{
closed = 1;
nodes = (
(381,471,o),
(378,484,o),
(374,493,c),
(287,635,l),
(280,646,o),
(275,648,o),
(263,649,c),
(249,650,o),
(205,649,o),
(197,648,c),
(190,645,o),
(183,641,o),
(178,634,c),
(90,489,l),
(79,471,o),
(114,457,o),
(129,471,c),
(230,562,l),
(338,471,l),
(345,465,o),
(358,465,o),
(366,467,c)
);
}
);
width = 427;
}
);
unicode = 234;
},
{
glyphname = edieresis;
lastChange = "2023-05-15 06:07:10 +0000";
layers = (
{
hints = (
{
horizontal = 1;
place = (467, 131);
place = (467, 131);
type = Stem;
},
{
place = (248, 132);
place = (248, 132);
type = Stem;
},
{
place = (84, 133);
place = (84, 133);
type = Stem;
},
{
horizontal = 1;
place = (256, 51);
place = (256, 51);
type = Stem;
},
{
horizontal = 1;
place = (382, 50);
place = (382, 50);
type = Stem;
},
{
horizontal = 1;
place = (-15, 82);
place = (-15, 82);
type = Stem;
},
{
place = (21, 97);
place = (21, 97);
type = Stem;
}
);
layerId = m01;
shapes = (
{
closed = 1;
nodes = (
(294,-15,o),
(355,41,o),
(404,97,c),
(412,111,o),
(402,130,o),
(388,133,c),
(380,135,o),
(369,131,o),
(364,125,c),
(327,82,o),
(294,67,o),
(251,67,c),
(176,67,o),
(118,133,o),
(118,228,c),
(118,236,o),
(117,256,o),
(131,256,c),
(194,255,o),
(311,253,o),
(386,256,c),
(412,257,o),
(413,278,o),
(408,295,c),
(396,309,o),
(389,325,o),
(381,341,c),
(351,403,o),
(303,432,o),
(232,432,c),
(110,432,o),
(21,333,o),
(21,204,c),
(21,83,o),
(102,-15,o),
(212,-15,c)
);
},
{
closed = 1;
nodes = (
(140,307,o),
(128,305,o),
(130,310,c),
(148,359,o),
(177,382,o),
(210,382,c),
(246,382,o),
(275,358,o),
(289,308,c),
(290,304,o),
(281,307,o),
(277,307,c),
(142,307,l)
);
},
{
closed = 1;
nodes = (
(187,467,o),
(217,495,o),
(217,533,c),
(217,568,o),
(187,598,o),
(151,598,c),
(114,598,o),
(84,568,o),
(84,533,c),
(84,495,o),
(114,467,o),
(151,467,c)
);
},
{
closed = 1;
nodes = (
(352,467,o),
(380,497,o),
(380,533,c),
(380,568,o),
(352,598,o),
(314,598,c),
(278,598,o),
(248,568,o),
(248,533,c),
(248,496,o),
(278,467,o),
(314,467,c)
);
}
);
width = 427;
}
);
unicode = 235;
},
{
glyphname = egrave;
lastChange = "2023-05-15 06:07:10 +0000";
layers = (
{
hints = (
{
horizontal = 1;
place = (658, -20);
target = down;
type = TopGhost;
},
{
horizontal = 1;
place = (-15, 82);
place = (-15, 82);
type = Stem;
},
{
horizontal = 1;
place = (256, 51);
place = (256, 51);
type = Stem;
},
{
horizontal = 1;
place = (382, 50);
place = (382, 50);
type = Stem;
},
{
place = (21, 97);
place = (21, 97);
type = Stem;
},
{
horizontal = 1;
place = (657, -20);
target = down;
type = TopGhost;
}
);
layerId = m01;
shapes = (
{
closed = 1;
nodes = (
(294,-15,o),
(355,41,o),
(404,97,c),
(412,111,o),
(402,130,o),
(388,133,c),
(380,135,o),
(369,131,o),
(364,125,c),
(327,82,o),
(294,67,o),
(251,67,c),
(176,67,o),
(118,133,o),
(118,228,c),
(118,237,o),
(117,256,o),
(131,256,c),
(194,255,o),
(311,253,o),
(386,256,c),
(412,257,o),
(413,279,o),
(408,295,c),
(396,310,o),
(389,325,o),
(381,342,c),
(351,404,o),
(303,432,o),
(232,432,c),
(110,432,o),
(21,333,o),
(21,204,c),
(21,84,o),
(102,-15,o),
(212,-15,c)
);
},
{
closed = 1;
nodes = (
(140,307,o),
(128,306,o),
(130,311,c),
(148,360,o),
(177,382,o),
(210,382,c),
(246,382,o),
(275,358,o),
(289,308,c),
(290,304,o),
(281,307,o),
(277,307,c),
(142,307,l)
);
},
{
closed = 1;
nodes = (
(264,459,o),
(296,455,o),
(296,483,c),
(285,526,o),
(263,600,o),
(247,644,c),
(241,657,o),
(230,658,o),
(219,658,c),
(145,657,l),
(132,657,o),
(106,640,o),
(123,621,c),
(165,576,o),
(222,509,o),
(253,468,c)
);
}
);
width = 427;
}
);
unicode = 232;
},
{
glyphname = f;
lastChange = "2023-05-15 06:07:10 +0000";
layers = (
{
hints = (
{
horizontal = 1;
place = (-3, 54);
place = (-3, 54);
type = Stem;
},
{
horizontal = 1;
place = (343, 81);
place = (343, 81);
type = Stem;
},
{
horizontal = 1;
place = (650, 77);
place = (650, 77);
type = Stem;
},
{
place = (93, 101);
place = (93, 101);
type = Stem;
}
);
layerId = m01;
shapes = (
{
closed = 1;
nodes = (
(101,0,o),
(224,-1,o),
(286,-3,c),
(297,-3,o),
(305,12,o),
(305,23,c),
(304,37,o),
(301,52,o),
(283,53,c),
(264,55,o),
(214,48,o),
(202,64,c),
(196,72,o),
(194,86,o),
(194,135,c),
(194,332,l),
(194,338,o),
(194,344,o),
(196,344,c),
(277,343,l),
(293,343,o),
(298,347,o),
(300,361,c),
(300,361,o),
(298,390,o),
(293,410,c),
(292,412,o),
(292,413,o),
(291,414,c),
(288,423,o),
(277,424,o),
(268,424,c),
(200,424,l),
(197,424,o),
(194,426,o),
(194,437,c),
(193,500,l),
(192,544,o),
(197,568,o),
(206,593,c),
(219,628,o),
(249,650,o),
(284,650,c),
(310,650,o),
(346,635,o),
(371,614,c),
(386,602,o),
(408,587,o),
(426,616,c),
(436,631,o),
(447,650,o),
(447,662,c),
(447,668,o),
(446,674,o),
(443,679,c),
(419,713,o),
(360,727,o),
(328,727,c),
(272,727,o),
(217,700,o),
(167,646,c),
(112,586,o),
(99,540,o),
(95,465,c),
(95,449,o),
(94,441,o),
(94,431,c),
(94,428,o),
(94,424,o),
(93,421,c),
(89,410,o),
(34,397,o),
(27,395,c),
(16,388,o),
(17,367,o),
(20,357,c),
(23,347,o),
(32,346,o),
(41,346,c),
(87,346,l),
(89,345,o),
(93,339,o),
(93,337,c),
(93,330,l),
(93,138,l),
(93,58,o),
(89,51,o),
(52,51,c),
(41,51,o),
(31,50,o),
(25,38,c),
(23,33,o),
(22,26,o),
(22,23,c),
(22,13,o),
(27,-4,o),
(41,-3,c)
);
}
);
width = 324;
}
);
unicode = 102;
},
{
glyphname = g;
lastChange = "2023-05-15 06:45:28 +0000";
layers = (
{
hints = (
{
place = (379, 81);
place = (379, 81);
type = Stem;
},
{
horizontal = 1;
place = (-32, 90);
place = (-32, 90);
type = Stem;
},
{
horizontal = 1;
place = (108, 54);
place = (108, 54);
type = Stem;
},
{
horizontal = 1;
place = (-250, 70);
place = (-250, 70);
type = Stem;
},
{
horizontal = 1;
place = (376, 53);
place = (376, 53);
type = Stem;
},
{
place = (23, 94);
place = (23, 94);
type = Stem;
},
{
place = (291, 93);
place = (291, 93);
type = Stem;
},
{
horizontal = 1;
place = (388, -20);
target = down;
type = TopGhost;
},
{
place = (48, 94);
place = (48, 94);
type = Stem;
}
);
layerId = m01;
shapes = (
{
closed = 1;
nodes = (
(332,-250,o),
(460,-173,o),
(460,-65,c),
(460,56,o),
(334,57,o),
(244,58,c),
(187,58,o),
(159,61,o),
(145,65,c),
(124,71,o),
(137,82,o),
(148,91,c),
(156,98,o),
(165,104,o),
(172,112,c),
(184,109,o),
(196,108,o),
(209,108,c),
(308,108,o),
(384,171,o),
(384,266,c),
(384,280,o),
(383,290,o),
(379,303,c),
(379,302,o),
(378,311,o),
(383,310,c),
(397,309,o),
(426,305,o),
(435,305,c),
(450,305,o),
(453,318,o),
(455,326,c),
(456,344,o),
(453,362,o),
(452,379,c),
(450,401,o),
(439,401,o),
(421,399,c),
(397,395,o),
(340,388,o),
(334,388,c),
(331,388,l),
(303,416,o),
(266,429,o),
(223,429,c),
(126,429,o),
(48,356,o),
(48,258,c),
(48,206,o),
(73,164,o),
(115,137,c),
(115,137,o),
(121,134,o),
(117,131,c),
(109,126,o),
(100,121,o),
(89,115,c),
(71,105,o),
(41,91,o),
(41,66,c),
(41,35,o),
(60,7,o),
(106,-12,c),
(109,-13,o),
(107,-17,o),
(103,-20,c),
(59,-47,o),
(23,-73,o),
(23,-133,c),
(23,-210,o),
(125,-250,o),
(191,-250,c)
);
},
{
closed = 1;
nodes = (
(173,-180,o),
(116,-147,o),
(117,-107,c),
(117,-91,o),
(135,-68,o),
(148,-55,c),
(156,-46,o),
(166,-39,o),
(174,-29,c),
(213,-31,o),
(240,-29,o),
(281,-32,c),
(363,-38,o),
(379,-57,o),
(379,-91,c),
(379,-132,o),
(306,-180,o),
(245,-180,c)
);
},
{
closed = 1;
nodes = (
(179,162,o),
(142,201,o),
(142,278,c),
(142,338,o),
(174,376,o),
(211,376,c),
(253,376,o),
(291,332,o),
(291,260,c),
(291,194,o),
(259,162,o),
(219,162,c)
);
}
);
width = 486;
}
);
unicode = 103;
},
{
glyphname = h;
lastChange = "2023-05-15 06:41:04 +0000";
layers = (
{
hints = (
{
horizontal = 1;
place = (-3, 57);
place = (-3, 57);
type = Stem;
},
{
horizontal = 1;
place = (365, 70);
place = (365, 70);
type = Stem;
},
{
place = (85, 101);
place = (85, 101);
type = Stem;
},
{
place = (350, 95);
place = (350, 95);
type = Stem;
}
);
layerId = m01;
shapes = (
{
closed = 1;
nodes = (
(88,-5,o),
(179,-1,o),
(230,-3,c),
(246,-5,o),
(252,0,o),
(252,16,c),
(251,21,o),
(252,28,o),
(252,33,c),
(250,49,o),
(240,51,o),
(227,51,c),
(192,51,o),
(187,52,o),
(186,97,c),
(186,299,l),
(186,306,o),
(185,328,o),
(193,332,c),
(221,349,o),
(240,365,o),
(275,365,c),
(296,365,o),
(314,357,o),
(327,343,c),
(343,326,o),
(350,307,o),
(350,219,c),
(350,172,o),
(348,129,o),
(343,87,c),
(339,58,o),
(337,52,o),
(294,52,c),
(289,52,l),
(272,52,o),
(269,32,o),
(269,24,c),
(270,19,o),
(272,-2,o),
(296,-2,c),
(347,-1,o),
(406,-4,o),
(504,-2,c),
(516,-2,o),
(521,13,o),
(520,25,c),
(518,41,o),
(517,54,o),
(495,54,c),
(448,54,o),
(445,55,o),
(445,72,c),
(445,131,o),
(451,190,o),
(451,248,c),
(451,288,o),
(448,327,o),
(437,359,c),
(421,412,o),
(379,435,o),
(323,435,c),
(267,435,o),
(235,419,o),
(192,392,c),
(188,390,o),
(186,406,o),
(186,408,c),
(186,702,l),
(186,728,o),
(172,734,o),
(154,729,c),
(112,717,o),
(59,699,o),
(27,686,c),
(9,679,o),
(10,642,o),
(30,640,c),
(43,638,o),
(55,637,o),
(69,635,c),
(78,633,o),
(84,628,o),
(84,619,c),
(85,583,l),
(85,138,l),
(85,57,o),
(80,55,o),
(45,52,c),
(41,52,o),
(36,51,o),
(32,51,c),
(23,49,o),
(19,50,o),
(16,44,c),
(12,37,o),
(11,21,o),
(15,12,c),
(20,1,o),
(22,-4,o),
(32,-3,c)
);
}
);
width = 526;
}
);
unicode = 104;
},
{
glyphname = i;
lastChange = "2023-05-15 06:41:04 +0000";
layers = (
{
hints = (
{
horizontal = 1;
place = (548, 114);
place = (548, 114);
type = Stem;
},
{
place = (71, 120);
place = (71, 120);
type = Stem;
},
{
horizontal = 1;
place = (-3, 56);
place = (-3, 56);
type = Stem;
},
{
place = (94, 97);
place = (94, 97);
type = Stem;
}
);
layerId = m01;
shapes = (
{
closed = 1;
nodes = (
(87,-2,o),
(184,0,o),
(230,-3,c),
(244,-4,o),
(255,0,o),
(255,15,c),
(255,18,o),
(255,30,o),
(255,33,c),
(253,48,o),
(242,54,o),
(227,53,c),
(195,53,o),
(193,53,o),
(192,82,c),
(191,95,o),
(191,111,o),
(191,131,c),
(191,413,l),
(191,431,o),
(186,455,o),
(153,444,c),
(113,431,o),
(69,415,o),
(34,402,c),
(24,395,o),
(19,365,o),
(37,359,c),
(51,354,o),
(61,351,o),
(76,348,c),
(79,347,o),
(89,346,o),
(91,343,c),
(93,339,o),
(94,330,o),
(94,305,c),
(94,131,l),
(94,113,o),
(94,98,o),
(94,87,c),
(93,76,o),
(92,70,o),
(89,65,c),
(84,56,o),
(71,53,o),
(35,50,c),
(21,49,o),
(17,33,o),
(18,22,c),
(20,11,o),
(28,-3,o),
(38,-3,c)
);
},
{
closed = 1;
nodes = (
(161,548,o),
(189,570,o),
(189,603,c),
(189,638,o),
(164,662,o),
(130,662,c),
(97,662,o),
(71,637,o),
(71,604,c),
(71,572,o),
(94,548,o),
(129,548,c)
);
}
);
width = 273;
}
);
unicode = 105;
},
{
glyphname = idotless;
lastChange = "2023-05-15 06:07:10 +0000";
layers = (
{
hints = (
{
horizontal = 1;
place = (-2, 51);
place = (-2, 51);
type = Stem;
},
{
place = (91, 95);
place = (91, 95);
type = Stem;
}
);
layerId = m01;
shapes = (
{
closed = 1;
nodes = (
(98,-1,o),
(186,-1,o),
(235,-2,c),
(242,-2,o),
(250,12,o),
(251,22,c),
(251,29,o),
(250,45,o),
(236,49,c),
(225,49,l),
(190,49,o),
(189,50,o),
(187,80,c),
(186,93,o),
(186,110,o),
(186,129,c),
(186,416,l),
(186,437,o),
(173,445,o),
(153,438,c),
(31,396,l),
(21,389,o),
(15,360,o),
(33,353,c),
(47,349,o),
(59,346,o),
(74,343,c),
(77,342,o),
(87,341,o),
(89,338,c),
(91,334,o),
(91,325,o),
(91,300,c),
(91,129,l),
(91,54,o),
(92,49,o),
(44,49,c),
(32,49,l),
(18,49,o),
(14,32,o),
(15,21,c),
(16,10,o),
(25,-2,o),
(34,-2,c)
);
}
);
width = 272;
}
);
unicode = 305;
},
{
glyphname = iacute;
lastChange = "2023-05-15 06:07:10 +0000";
layers = (
{
hints = (
{
horizontal = 1;
place = (-3, 56);
place = (-3, 56);
type = Stem;
},
{
horizontal = 1;
place = (671, -20);
target = down;
type = TopGhost;
},
{
place = (94, 97);
place = (94, 97);
type = Stem;
}
);
layerId = m01;
shapes = (
{
closed = 1;
nodes = (
(87,-2,o),
(184,0,o),
(231,-3,c),
(244,-4,o),
(256,0,o),
(256,15,c),
(256,18,o),
(256,30,o),
(256,33,c),
(254,48,o),
(243,54,o),
(228,53,c),
(196,53,o),
(194,53,o),
(192,81,c),
(191,95,o),
(191,111,o),
(191,131,c),
(191,410,l),
(191,428,o),
(187,455,o),
(153,444,c),
(114,431,o),
(69,415,o),
(35,402,c),
(25,395,o),
(19,365,o),
(37,359,c),
(51,354,o),
(62,351,o),
(77,348,c),
(80,347,o),
(90,346,o),
(92,343,c),
(94,339,o),
(94,330,o),
(94,305,c),
(94,131,l),
(94,113,o),
(95,98,o),
(94,87,c),
(94,76,o),
(93,70,o),
(90,65,c),
(84,56,o),
(72,53,o),
(36,50,c),
(22,49,o),
(18,33,o),
(19,22,c),
(20,11,o),
(28,-3,o),
(38,-3,c)
);
},
{
closed = 1;
nodes = (
(254,642,l),
(256,644,o),
(258,648,o),
(258,652,c),
(259,668,o),
(244,671,o),
(235,671,c),
(151,671,l),
(141,671,o),
(128,664,o),
(124,652,c),
(78,499,l),
(70,472,o),
(110,469,o),
(119,481,c)
);
}
);
width = 273;
}
);
unicode = 237;
},
{
glyphname = icircumflex;
lastChange = "2023-05-15 06:07:10 +0000";
layers = (
{
hints = (
{
horizontal = 1;
place = (-3, 56);
place = (-3, 56);
type = Stem;
},
{
place = (94, 97);
place = (94, 97);
type = Stem;
}
);
layerId = m01;
shapes = (
{
closed = 1;
nodes = (
(87,-2,o),
(184,0,o),
(231,-3,c),
(244,-4,o),
(256,0,o),
(256,15,c),
(255,15,l),
(255,18,o),
(256,30,o),
(256,33,c),
(254,48,o),
(243,54,o),
(228,53,c),
(196,53,o),
(194,53,o),
(192,81,c),
(191,95,o),
(191,111,o),
(191,131,c),
(191,410,l),
(191,428,o),
(187,454,o),
(153,443,c),
(114,431,o),
(69,415,o),
(35,402,c),
(25,395,o),
(19,365,o),
(37,359,c),
(51,354,o),
(62,351,o),
(77,348,c),
(80,347,o),
(90,346,o),
(92,343,c),
(94,339,o),
(94,330,o),
(94,305,c),
(94,131,l),
(94,113,o),
(95,98,o),
(94,87,c),
(94,76,o),
(93,70,o),
(90,65,c),
(84,56,o),
(72,53,o),
(36,50,c),
(22,49,o),
(18,33,o),
(19,22,c),
(20,11,o),
(28,-3,o),
(38,-3,c)
);
},
{
closed = 1;
nodes = (
(292,511,o),
(289,524,o),
(285,533,c),
(198,675,l),
(191,686,o),
(186,688,o),
(174,689,c),
(160,690,o),
(116,689,o),
(108,688,c),
(101,685,o),
(94,681,o),
(89,674,c),
(1,529,l),
(-10,511,o),
(25,497,o),
(40,511,c),
(141,602,l),
(249,511,l),
(256,505,o),
(269,505,o),
(277,507,c)
);
}
);
width = 273;
}
);
unicode = 238;
},
{
glyphname = idieresis;
lastChange = "2023-05-15 06:07:10 +0000";
layers = (
{
hints = (
{
horizontal = 1;
place = (503, 128);
place = (503, 128);
type = Stem;
},
{
place = (154, 137);
place = (154, 137);
type = Stem;
},
{
place = (-17, 137);
place = (-17, 137);
type = Stem;
},
{
horizontal = 1;
place = (-3, 56);
place = (-3, 56);
type = Stem;
},
{
place = (94, 97);
place = (94, 97);
type = Stem;
}
);
layerId = m01;
shapes = (
{
closed = 1;
nodes = (
(87,-2,o),
(184,0,o),
(231,-3,c),
(244,-4,o),
(256,0,o),
(256,15,c),
(256,18,o),
(256,30,o),
(256,33,c),
(254,48,o),
(243,54,o),
(228,53,c),
(196,53,o),
(194,53,o),
(192,81,c),
(191,95,o),
(191,111,o),
(191,131,c),
(191,410,l),
(191,427,o),
(187,454,o),
(153,443,c),
(114,430,o),
(69,414,o),
(35,402,c),
(25,395,o),
(19,365,o),
(37,359,c),
(51,354,o),
(62,351,o),
(77,348,c),
(80,347,o),
(90,346,o),
(92,343,c),
(94,339,o),
(94,330,o),
(94,304,c),
(94,131,l),
(94,113,o),
(95,98,o),
(94,87,c),
(94,76,o),
(93,70,o),
(90,65,c),
(84,56,o),
(72,53,o),
(36,50,c),
(22,49,o),
(18,32,o),
(19,21,c),
(20,11,o),
(28,-3,o),
(38,-3,c)
);
},
{
closed = 1;
nodes = (
(88,503,o),
(120,530,o),
(120,567,c),
(120,603,o),
(89,631,o),
(51,631,c),
(14,631,o),
(-17,602,o),
(-17,567,c),
(-17,531,o),
(14,503,o),
(51,503,c)
);
},
{
closed = 1;
nodes = (
(261,503,o),
(291,532,o),
(291,567,c),
(291,602,o),
(261,631,o),
(223,631,c),
(186,631,o),
(154,603,o),
(154,567,c),
(154,531,o),
(186,503,o),
(223,503,c)
);
}
);
width = 273;
}
);
unicode = 239;
},
{
glyphname = igrave;
lastChange = "2023-05-15 06:07:10 +0000";
layers = (
{
hints = (
{
horizontal = 1;
place = (658, -20);
target = down;
type = TopGhost;
},
{
horizontal = 1;
place = (-3, 56);
place = (-3, 56);
type = Stem;
},
{
place = (94, 97);
place = (94, 97);
type = Stem;
},
{
horizontal = 1;
place = (657, -20);
target = down;
type = TopGhost;
}
);
layerId = m01;
shapes = (
{
closed = 1;
nodes = (
(87,-2,o),
(184,0,o),
(231,-3,c),
(244,-4,o),
(256,0,o),
(256,15,c),
(256,18,o),
(256,30,o),
(256,33,c),
(254,48,o),
(243,54,o),
(228,53,c),
(196,53,o),
(194,53,o),
(192,81,c),
(191,95,o),
(191,111,o),
(191,131,c),
(191,410,l),
(191,428,o),
(187,455,o),
(153,444,c),
(114,431,o),
(69,415,o),
(35,402,c),
(25,395,o),
(19,365,o),
(37,359,c),
(51,354,o),
(62,351,o),
(77,348,c),
(80,347,o),
(90,346,o),
(92,343,c),
(94,339,o),
(94,330,o),
(94,305,c),
(94,131,l),
(94,113,o),
(95,98,o),
(94,87,c),
(94,76,o),
(93,70,o),
(90,65,c),
(84,56,o),
(72,53,o),
(36,50,c),
(22,49,o),
(18,33,o),
(19,22,c),
(20,11,o),
(28,-3,o),
(38,-3,c)
);
},
{
closed = 1;
nodes = (
(164,469,o),
(198,461,o),
(198,490,c),
(188,532,o),
(167,602,o),
(151,645,c),
(143,658,o),
(132,658,o),
(124,658,c),
(52,657,l),
(39,657,o),
(15,639,o),
(31,623,c),
(71,579,o),
(127,516,o),
(157,476,c)
);
}
);
width = 273;
}
);
unicode = 236;
},
{
glyphname = j;
lastChange = "2023-05-15 06:07:10 +0000";
layers = (
{
hints = (
{
horizontal = 1;
place = (536, 115);
place = (536, 115);
type = Stem;
},
{
place = (83, 96);
place = (83, 96);
type = Stem;
},
{
horizontal = 1;
place = (-244, 69);
place = (-244, 69);
type = Stem;
},
{
horizontal = 1;
place = (-244, 129);
place = (-244, 129);
type = Stem;
}
);
layerId = m01;
shapes = (
{
closed = 1;
nodes = (
(44,-244,o),
(85,-229,o),
(117,-194,c),
(134,-175,o),
(149,-154,o),
(159,-129,c),
(177,-86,o),
(179,-56,o),
(179,29,c),
(179,420,l),
(179,431,o),
(173,459,o),
(145,449,c),
(79,427,o),
(30,407,o),
(23,404,c),
(12,399,o),
(7,366,o),
(25,360,c),
(33,358,o),
(43,356,o),
(54,353,c),
(83,347,o),
(83,348,o),
(83,306,c),
(83,-8,l),
(83,-69,l),
(83,-154,o),
(63,-175,o),
(32,-175,c),
(15,-175,o),
(-4,-163,o),
(-16,-148,c),
(-28,-134,o),
(-44,-115,o),
(-64,-115,c),
(-93,-115,o),
(-109,-150,o),
(-109,-177,c),
(-109,-220,o),
(-59,-244,o),
(-4,-244,c)
);
},
{
closed = 1;
nodes = (
(151,536,o),
(176,561,o),
(176,594,c),
(176,626,o),
(152,651,o),
(117,651,c),
(84,651,o),
(57,627,o),
(57,594,c),
(57,561,o),
(83,536,o),
(117,536,c)
);
}
);
width = 250;
}
);
unicode = 106;
},
{
glyphname = k;
lastChange = "2023-05-15 06:07:10 +0000";
layers = (
{
hints = (
{
horizontal = 1;
place = (-3, 52);
place = (-3, 52);
type = Stem;
},
{
horizontal = 1;
place = (378, 53);
place = (378, 53);
type = Stem;
},
{
place = (76, 97);
place = (76, 97);
type = Stem;
},
{
horizontal = 1;
place = (430, -20);
target = down;
type = TopGhost;
},
{
horizontal = 1;
place = (380, -20);
target = down;
type = TopGhost;
}
);
layerId = m01;
shapes = (
{
closed = 1;
nodes = (
(80,0,o),
(176,-2,o),
(224,-3,c),
(236,-3,o),
(240,12,o),
(240,23,c),
(240,34,o),
(236,50,o),
(225,50,c),
(215,50,o),
(209,49,o),
(199,50,c),
(184,50,o),
(179,55,o),
(176,62,c),
(173,71,o),
(174,87,o),
(174,97,c),
(173,130,o),
(173,153,o),
(173,186,c),
(174,186,l),
(172,195,o),
(173,198,o),
(180,191,c),
(289,75,l),
(310,54,o),
(311,49,o),
(285,49,c),
(268,49,o),
(260,46,o),
(260,30,c),
(260,25,o),
(261,10,o),
(264,5,c),
(267,-1,o),
(273,-3,o),
(279,-3,c),
(330,-1,o),
(436,0,o),
(490,-3,c),
(508,-4,o),
(517,39,o),
(493,49,c),
(481,49,l),
(452,49,o),
(442,57,o),
(421,79,c),
(360,139,o),
(303,198,o),
(244,258,c),
(241,261,o),
(242,261,o),
(244,265,c),
(279,289,o),
(309,310,o),
(342,335,c),
(383,365,o),
(412,377,o),
(457,378,c),
(466,378,o),
(473,396,o),
(473,405,c),
(473,414,o),
(468,431,o),
(452,431,c),
(407,430,o),
(331,429,o),
(271,430,c),
(253,430,o),
(248,421,o),
(247,407,c),
(245,387,o),
(254,382,o),
(270,380,c),
(274,380,o),
(278,380,o),
(287,380,c),
(297,379,o),
(299,377,o),
(295,373,c),
(292,370,o),
(286,366,o),
(280,362,c),
(177,287,l),
(172,283,o),
(173,298,o),
(173,302,c),
(173,695,l),
(173,720,o),
(162,730,o),
(138,722,c),
(92,705,o),
(74,698,o),
(22,680,c),
(17,678,o),
(10,673,o),
(9,665,c),
(7,652,o),
(9,639,o),
(25,635,c),
(30,635,o),
(47,630,o),
(49,630,c),
(71,625,o),
(75,624,o),
(75,603,c),
(76,591,o),
(76,582,o),
(76,567,c),
(76,138,l),
(76,55,o),
(75,51,o),
(36,51,c),
(22,51,o),
(16,48,o),
(12,40,c),
(8,30,o),
(9,14,o),
(14,5,c),
(18,-3,o),
(25,-3,o),
(29,-3,c)
);
}
);
width = 518;
}
);
unicode = 107;
},
{
glyphname = l;
lastChange = "2023-05-15 06:41:04 +0000";
layers = (
{
hints = (
{
horizontal = 1;
place = (-2, 53);
place = (-2, 53);
type = Stem;
},
{
place = (91, 98);
place = (91, 98);
type = Stem;
}
);
layerId = m01;
shapes = (
{
closed = 1;
nodes = (
(106,0,o),
(146,-1,o),
(236,-2,c),
(253,-2,o),
(255,11,o),
(255,23,c),
(255,28,o),
(256,32,o),
(255,37,c),
(252,51,o),
(238,51,o),
(227,51,c),
(188,51,o),
(189,55,o),
(189,105,c),
(189,689,l),
(189,713,o),
(180,722,o),
(163,720,c),
(110,704,o),
(60,685,o),
(34,675,c),
(15,668,o),
(17,636,o),
(36,632,c),
(52,628,o),
(68,626,o),
(84,623,c),
(90,622,o),
(91,617,o),
(91,611,c),
(91,104,l),
(91,57,o),
(86,50,o),
(43,51,c),
(36,51,l),
(34,51,o),
(32,51,o),
(29,50,c),
(16,46,o),
(14,24,o),
(17,13,c),
(19,3,o),
(34,-2,o),
(38,-2,c)
);
}
);
width = 269;
}
);
unicode = 108;
},
{
glyphname = lslash;
lastChange = "2023-05-15 06:07:10 +0000";
layers = (
{
hints = (
{
horizontal = 1;
place = (-4, 52);
place = (-4, 52);
type = Stem;
},
{
horizontal = 1;
place = (611, -20);
target = down;
type = TopGhost;
},
{
place = (88, 98);
place = (88, 98);
type = Stem;
}
);
layerId = m01;
shapes = (
{
closed = 1;
nodes = (
(80,-2,o),
(188,-3,o),
(240,-4,c),
(248,-4,o),
(255,-2,o),
(258,6,c),
(262,19,o),
(259,33,o),
(256,41,c),
(251,44,o),
(254,48,o),
(238,48,c),
(194,48,o),
(186,53,o),
(186,104,c),
(186,149,l),
(186,309,l),
(186,319,o),
(188,324,o),
(194,329,c),
(278,401,l),
(288,409,o),
(296,423,o),
(296,434,c),
(296,490,l),
(296,518,o),
(295,538,o),
(263,510,c),
(194,452,l),
(188,447,o),
(186,458,o),
(186,466,c),
(186,683,l),
(186,700,o),
(182,715,o),
(156,708,c),
(18,669,l),
(10,664,o),
(5,656,o),
(6,646,c),
(5,635,o),
(11,627,o),
(18,623,c),
(29,621,o),
(80,615,o),
(86,611,c),
(87,611,o),
(88,607,o),
(88,605,c),
(88,553,l),
(88,373,l),
(88,367,o),
(86,363,o),
(82,359,c),
(51,330,o),
(18,304,o),
(-16,276,c),
(-24,269,o),
(-24,266,o),
(-24,252,c),
(-24,184,l),
(-24,160,o),
(-19,155,o),
(4,171,c),
(12,177,o),
(23,186,o),
(38,199,c),
(50,209,o),
(64,221,o),
(80,235,c),
(87,240,o),
(88,236,o),
(88,225,c),
(88,142,l),
(88,103,l),
(88,59,o),
(77,48,o),
(29,48,c),
(6,48,o),
(5,30,o),
(5,19,c),
(5,8,o),
(12,-2,o),
(24,-4,c)
);
}
);
width = 263;
}
);
unicode = 322;
},
{
glyphname = m;
lastChange = "2023-05-15 06:41:04 +0000";
layers = (
{
hints = (
{
place = (86, 100);
place = (86, 100);
type = Stem;
},
{
horizontal = 1;
place = (-3, 51);
place = (-3, 51);
type = Stem;
},
{
horizontal = 1;
place = (361, 68);
place = (361, 68);
type = Stem;
},
{
place = (355, 99);
place = (355, 99);
type = Stem;
},
{
place = (621, 98);
place = (621, 98);
type = Stem;
},
{
horizontal = 1;
place = (-2, 21);
target = up;
type = BottomGhost;
}
);
layerId = m01;
shapes = (
{
closed = 1;
nodes = (
(91,-1,o),
(191,-1,o),
(240,-3,c),
(248,-3,o),
(254,1,o),
(256,14,c),
(256,27,o),
(255,45,o),
(249,46,c),
(242,47,o),
(241,49,o),
(233,48,c),
(190,48,o),
(186,52,o),
(186,95,c),
(186,310,l),
(216,330,o),
(262,361,o),
(300,361,c),
(332,361,o),
(355,338,o),
(355,291,c),
(355,136,l),
(355,50,o),
(348,49,o),
(306,49,c),
(304,49,o),
(301,49,o),
(299,49,c),
(268,48,o),
(270,-2,o),
(296,-2,c),
(350,-1,o),
(451,-2,o),
(501,-3,c),
(516,-3,o),
(520,16,o),
(520,24,c),
(519,39,o),
(514,48,o),
(497,48,c),
(460,48,o),
(454,53,o),
(454,95,c),
(454,310,l),
(503,342,o),
(539,361,o),
(563,361,c),
(604,361,o),
(621,344,o),
(621,221,c),
(621,164,o),
(621,127,o),
(618,88,c),
(615,53,o),
(609,48,o),
(572,48,c),
(560,48,o),
(555,50,o),
(549,40,c),
(544,31,o),
(546,10,o),
(550,5,c),
(553,0,o),
(560,-3,o),
(568,-3,c),
(637,-2,o),
(716,0,o),
(786,-3,c),
(797,-3,o),
(805,4,o),
(805,16,c),
(806,24,o),
(807,43,o),
(798,48,c),
(791,53,o),
(779,52,o),
(773,52,c),
(722,52,o),
(719,55,o),
(719,78,c),
(719,128,o),
(723,178,o),
(723,229,c),
(723,305,o),
(721,335,o),
(708,366,c),
(690,405,o),
(652,429,o),
(606,429,c),
(545,429,o),
(496,394,o),
(449,361,c),
(447,360,o),
(446,358,o),
(445,360,c),
(429,403,o),
(391,429,o),
(343,429,c),
(287,429,o),
(234,398,o),
(192,370,c),
(188,367,o),
(186,369,o),
(186,373,c),
(186,412,l),
(186,426,o),
(181,444,o),
(158,439,c),
(112,427,o),
(55,410,o),
(27,397,c),
(25,396,o),
(20,393,o),
(18,387,c),
(14,374,o),
(14,354,o),
(30,352,c),
(53,349,l),
(77,346,o),
(82,344,o),
(85,339,c),
(85,338,o),
(86,327,o),
(86,272,c),
(86,136,l),
(86,53,o),
(78,51,o),
(45,50,c),
(39,50,o),
(34,49,o),
(29,48,c),
(24,47,o),
(20,46,o),
(17,43,c),
(11,35,o),
(10,15,o),
(15,6,c),
(18,-1,o),
(26,-3,o),
(34,-3,c)
);
}
);
width = 815;
}
);
unicode = 109;
},
{
glyphname = n;
lastChange = "2023-05-15 06:45:37 +0000";
layers = (
{
hints = (
{
horizontal = 1;
place = (-2, 50);
place = (-2, 50);
type = Stem;
},
{
horizontal = 1;
place = (357, 72);
place = (357, 72);
type = Stem;
},
{
place = (85, 97);
place = (85, 97);
type = Stem;
},
{
place = (353, 90);
place = (353, 90);
type = Stem;
}
);
layerId = m01;
shapes = (
{
closed = 1;
nodes = (
(236,-2,o),
(243,-2,o),
(246,6,c),
(249,12,o),
(249,24,o),
(249,32,c),
(247,44,o),
(239,50,o),
(231,50,c),
(187,50,o),
(182,52,o),
(182,95,c),
(182,306,l),
(224,336,o),
(269,357,o),
(292,357,c),
(330,357,o),
(353,333,o),
(353,261,c),
(353,205,o),
(353,149,o),
(347,94,c),
(343,61,o),
(336,53,o),
(297,50,c),
(291,50,l),
(277,50,o),
(274,28,o),
(274,19,c),
(275,2,o),
(279,-3,o),
(299,-2,c),
(350,-1,o),
(436,-3,o),
(484,-2,c),
(489,-2,o),
(495,-2,o),
(499,0,c),
(514,7,o),
(511,34,o),
(506,43,c),
(499,51,o),
(488,53,o),
(479,50,c),
(446,50,o),
(443,53,o),
(443,74,c),
(443,132,o),
(451,189,o),
(451,247,c),
(451,313,o),
(441,429,o),
(332,429,c),
(283,429,o),
(229,394,o),
(189,367,c),
(183,363,o),
(182,364,o),
(182,373,c),
(182,415,l),
(182,439,o),
(172,446,o),
(147,441,c),
(137,439,o),
(127,435,o),
(116,431,c),
(90,421,o),
(57,409,o),
(30,400,c),
(19,395,o),
(9,359,o),
(31,354,c),
(51,350,l),
(79,345,o),
(80,344,o),
(82,341,c),
(83,338,o),
(85,325,o),
(85,268,c),
(85,137,l),
(85,51,o),
(74,48,o),
(39,48,c),
(34,48,l),
(27,48,o),
(21,44,o),
(17,38,c),
(15,33,o),
(16,11,o),
(18,6,c),
(21,-1,o),
(25,-1,o),
(35,-2,c),
(99,-5,o),
(163,-1,o),
(226,-3,c)
);
}
);
width = 519;
}
);
unicode = 110;
},
{
glyphname = ntilde;
lastChange = "2023-05-15 06:07:10 +0000";
layers = (
{
hints = (
{
horizontal = 1;
place = (489, 89);
place = (489, 89);
type = Stem;
},
{
horizontal = 1;
place = (648, -20);
target = down;
type = TopGhost;
},
{
horizontal = 1;
place = (-2, 50);
place = (-2, 50);
type = Stem;
},
{
horizontal = 1;
place = (357, 72);
place = (357, 72);
type = Stem;
},
{
place = (89, 93);
place = (89, 93);
type = Stem;
},
{
place = (353, 90);
place = (353, 90);
type = Stem;
}
);
layerId = m01;
shapes = (
{
closed = 1;
nodes = (
(236,-2,o),
(243,-2,o),
(246,6,c),
(249,12,o),
(249,24,o),
(249,32,c),
(247,44,o),
(239,50,o),
(231,50,c),
(187,50,o),
(182,52,o),
(182,95,c),
(182,306,l),
(224,336,o),
(269,357,o),
(292,357,c),
(330,357,o),
(353,333,o),
(353,261,c),
(353,205,o),
(353,149,o),
(347,94,c),
(343,61,o),
(336,53,o),
(297,50,c),
(291,50,l),
(277,50,o),
(274,28,o),
(274,19,c),
(275,2,o),
(279,-3,o),
(299,-2,c),
(350,-1,o),
(436,-3,o),
(484,-2,c),
(489,-2,o),
(495,-2,o),
(499,0,c),
(514,7,o),
(511,34,o),
(506,43,c),
(499,51,o),
(488,53,o),
(479,50,c),
(446,50,o),
(443,53,o),
(443,74,c),
(443,132,o),
(451,189,o),
(451,247,c),
(451,313,o),
(441,429,o),
(332,429,c),
(283,429,o),
(229,394,o),
(189,367,c),
(183,363,o),
(182,364,o),
(182,373,c),
(182,415,l),
(182,439,o),
(172,446,o),
(147,441,c),
(137,439,o),
(127,435,o),
(116,431,c),
(90,421,o),
(57,409,o),
(30,400,c),
(19,395,o),
(9,359,o),
(31,354,c),
(51,350,l),
(79,345,o),
(80,344,o),
(82,341,c),
(83,338,o),
(85,325,o),
(85,268,c),
(85,137,l),
(85,51,o),
(74,48,o),
(39,48,c),
(34,48,l),
(27,48,o),
(21,44,o),
(17,38,c),
(15,33,o),
(16,11,o),
(18,6,c),
(21,-1,o),
(25,-1,o),
(35,-2,c),
(99,-5,o),
(163,-1,o),
(226,-3,c)
);
},
{
closed = 1;
nodes = (
(382,489,o),
(424,547,o),
(424,619,c),
(424,622,o),
(424,627,o),
(422,634,c),
(421,647,o),
(406,648,o),
(400,648,c),
(357,646,o),
(385,578,o),
(349,578,c),
(340,578,o),
(327,582,o),
(297,603,c),
(252,633,o),
(228,643,o),
(195,643,c),
(127,643,o),
(93,587,o),
(89,502,c),
(93,474,o),
(130,487,o),
(136,499,c),
(136,506,o),
(139,512,o),
(139,518,c),
(147,552,o),
(154,555,o),
(165,555,c),
(174,555,o),
(180,554,o),
(217,529,c),
(254,503,o),
(288,489,o),
(317,489,c)
);
}
);
width = 519;
}
);
unicode = 241;
},
{
glyphname = o;
lastChange = "2023-05-15 06:41:04 +0000";
layers = (
{
hints = (
{
horizontal = 1;
place = (-15, 56);
place = (-15, 56);
type = Stem;
},
{
horizontal = 1;
place = (375, 55);
place = (375, 55);
type = Stem;
},
{
place = (20, 108);
place = (20, 108);
type = Stem;
},
{
place = (374, 111);
place = (374, 111);
type = Stem;
}
);
layerId = m01;
shapes = (
{
closed = 1;
nodes = (
(383,-15,o),
(484,83,o),
(485,207,c),
(486,334,o),
(382,430,o),
(251,430,c),
(121,430,o),
(20,336,o),
(20,208,c),
(20,82,o),
(122,-15,o),
(254,-15,c)
);
},
{
closed = 1;
nodes = (
(193,41,o),
(128,122,o),
(128,237,c),
(128,319,o),
(177,375,o),
(237,375,c),
(309,375,o),
(374,300,o),
(374,192,c),
(374,105,o),
(326,41,o),
(266,41,c)
);
}
);
width = 502;
}
);
unicode = 111;
},
{
glyphname = oacute;
lastChange = "2023-05-15 06:07:10 +0000";
layers = (
{
hints = (
{
horizontal = 1;
place = (-15, 56);
place = (-15, 56);
type = Stem;
},
{
horizontal = 1;
place = (382, 55);
place = (382, 55);
type = Stem;
},
{
horizontal = 1;
place = (681, -20);
target = down;
type = TopGhost;
},
{
place = (20, 106);
place = (20, 106);
type = Stem;
},
{
place = (375, 108);
place = (375, 108);
type = Stem;
}
);
layerId = m01;
shapes = (
{
closed = 1;
nodes = (
(382,-15,o),
(482,84,o),
(483,210,c),
(484,339,o),
(382,437,o),
(250,437,c),
(119,437,o),
(20,340,o),
(20,211,c),
(20,82,o),
(121,-15,o),
(253,-15,c)
);
},
{
closed = 1;
nodes = (
(192,41,o),
(126,125,o),
(126,242,c),
(126,325,o),
(176,382,o),
(236,382,c),
(308,382,o),
(375,296,o),
(375,186,c),
(375,98,o),
(325,41,o),
(265,41,c)
);
},
{
closed = 1;
nodes = (
(252,483,o),
(393,652,o),
(394,655,c),
(394,656,l),
(394,657,o),
(395,659,o),
(395,661,c),
(398,675,o),
(384,681,o),
(371,681,c),
(284,681,l),
(274,681,o),
(263,673,o),
(257,662,c),
(209,502,l),
(201,475,o),
(240,472,o),
(252,483,c)
);
}
);
width = 500;
}
);
unicode = 243;
},
{
glyphname = ocircumflex;
lastChange = "2023-05-15 06:07:10 +0000";
layers = (
{
hints = (
{
horizontal = 1;
place = (-15, 56);
place = (-15, 56);
type = Stem;
},
{
horizontal = 1;
place = (378, 55);
place = (378, 55);
type = Stem;
},
{
place = (20, 106);
place = (20, 106);
type = Stem;
},
{
place = (375, 108);
place = (375, 108);
type = Stem;
}
);
layerId = m01;
shapes = (
{
closed = 1;
nodes = (
(382,-15,o),
(482,83,o),
(483,208,c),
(484,336,o),
(381,433,o),
(250,433,c),
(119,433,o),
(20,338,o),
(20,209,c),
(20,82,o),
(121,-15,o),
(253,-15,c)
);
},
{
closed = 1;
nodes = (
(192,41,o),
(126,124,o),
(126,239,c),
(126,322,o),
(176,378,o),
(236,378,c),
(308,378,o),
(375,294,o),
(375,185,c),
(375,98,o),
(325,41,o),
(265,41,c)
);
},
{
closed = 1;
nodes = (
(400,479,o),
(397,493,o),
(393,502,c),
(306,644,l),
(299,655,o),
(294,657,o),
(282,658,c),
(268,659,o),
(224,658,o),
(216,657,c),
(209,654,o),
(202,650,o),
(197,643,c),
(109,498,l),
(98,480,o),
(133,466,o),
(148,480,c),
(249,571,l),
(357,480,l),
(364,474,o),
(377,474,o),
(385,476,c)
);
}
);
width = 500;
}
);
unicode = 244;
},
{
glyphname = odieresis;
lastChange = "2023-05-15 06:07:10 +0000";
layers = (
{
hints = (
{
horizontal = 1;
place = (467, 131);
place = (467, 131);
type = Stem;
},
{
place = (269, 133);
place = (269, 133);
type = Stem;
},
{
place = (105, 132);
place = (105, 132);
type = Stem;
},
{
horizontal = 1;
place = (-15, 56);
place = (-15, 56);
type = Stem;
},
{
horizontal = 1;
place = (380, 56);
place = (380, 56);
type = Stem;
},
{
place = (375, 108);
place = (375, 108);
type = Stem;
},
{
place = (20, 106);
place = (20, 106);
type = Stem;
}
);
layerId = m01;
shapes = (
{
closed = 1;
nodes = (
(382,-15,o),
(482,83,o),
(483,209,c),
(484,337,o),
(382,436,o),
(250,436,c),
(119,436,o),
(20,339,o),
(20,210,c),
(20,82,o),
(121,-15,o),
(253,-15,c)
);
},
{
closed = 1;
nodes = (
(192,41,o),
(126,125,o),
(126,241,c),
(126,324,o),
(176,380,o),
(236,380,c),
(308,380,o),
(375,295,o),
(375,186,c),
(375,98,o),
(325,41,o),
(265,41,c)
);
},
{
closed = 1;
nodes = (
(207,467,o),
(237,495,o),
(237,533,c),
(237,568,o),
(207,598,o),
(171,598,c),
(135,598,o),
(105,568,o),
(105,533,c),
(105,495,o),
(135,467,o),
(171,467,c)
);
},
{
closed = 1;
nodes = (
(373,467,o),
(402,497,o),
(402,533,c),
(402,568,o),
(373,598,o),
(335,598,c),
(299,598,o),
(269,568,o),
(269,533,c),
(269,496,o),
(299,467,o),
(335,467,c)
);
}
);
width = 500;
}
);
unicode = 246;
},
{
glyphname = ograve;
lastChange = "2023-05-15 06:07:10 +0000";
layers = (
{
hints = (
{
horizontal = 1;
place = (668, -20);
target = down;
type = TopGhost;
},
{
horizontal = 1;
place = (-15, 56);
place = (-15, 56);
type = Stem;
},
{
horizontal = 1;
place = (382, 55);
place = (382, 55);
type = Stem;
},
{
place = (20, 106);
place = (20, 106);
type = Stem;
},
{
place = (375, 108);
place = (375, 108);
type = Stem;
},
{
horizontal = 1;
place = (667, -20);
target = down;
type = TopGhost;
}
);
layerId = m01;
shapes = (
{
closed = 1;
nodes = (
(382,-15,o),
(482,84,o),
(483,209,c),
(484,338,o),
(382,437,o),
(250,437,c),
(119,437,o),
(20,340,o),
(20,210,c),
(20,82,o),
(121,-15,o),
(253,-15,c)
);
},
{
closed = 1;
nodes = (
(192,41,o),
(126,125,o),
(126,242,c),
(126,325,o),
(176,382,o),
(236,382,c),
(308,382,o),
(375,296,o),
(375,186,c),
(375,98,o),
(325,41,o),
(265,41,c)
);
},
{
closed = 1;
nodes = (
(301,470,o),
(337,464,o),
(334,494,c),
(324,536,o),
(303,610,o),
(286,655,c),
(277,668,o),
(266,668,o),
(258,668,c),
(182,667,l),
(171,667,o),
(144,649,o),
(160,631,c),
(203,586,o),
(260,519,o),
(292,478,c)
);
}
);
width = 500;
}
);
unicode = 242;
},
{
glyphname = oslash;
lastChange = "2023-05-15 06:07:10 +0000";
layers = (
{
hints = (
{
horizontal = 1;
place = (-18, 56);
place = (-18, 56);
type = Stem;
},
{
horizontal = 1;
place = (378, 55);
place = (378, 55);
type = Stem;
},
{
place = (40, 110);
place = (40, 110);
type = Stem;
},
{
place = (402, 108);
place = (402, 108);
type = Stem;
}
);
layerId = m01;
shapes = (
{
closed = 1;
nodes = (
(69,-55,o),
(81,-54,o),
(90,-46,c),
(143,19,l),
(144,20,o),
(144,20,o),
(145,20,c),
(185,-5,o),
(231,-18,o),
(278,-18,c),
(408,-18,o),
(510,79,o),
(510,207,c),
(510,265,o),
(491,313,o),
(454,355,c),
(448,361,o),
(449,364,o),
(452,368,c),
(462,380,o),
(473,393,o),
(484,405,c),
(496,419,o),
(502,422,o),
(493,434,c),
(488,440,o),
(486,443,o),
(480,448,c),
(473,455,o),
(462,457,o),
(454,447,c),
(413,401,l),
(408,395,o),
(409,394,o),
(400,399,c),
(361,422,o),
(321,433,o),
(275,433,c),
(141,433,o),
(40,335,o),
(40,205,c),
(40,146,o),
(60,98,o),
(99,57,c),
(103,53,o),
(102,48,o),
(99,44,c),
(82,26,o),
(64,5,o),
(52,-9,c),
(39,-25,o),
(41,-31,o),
(50,-38,c),
(60,-46,l)
);
},
{
closed = 1;
nodes = (
(260,38,o),
(230,51,o),
(206,77,c),
(202,81,o),
(202,84,o),
(204,87,c),
(374,280,l),
(377,284,o),
(380,282,o),
(382,276,c),
(396,245,o),
(402,214,o),
(402,183,c),
(402,95,o),
(350,38,o),
(289,38,c)
);
},
{
closed = 1;
nodes = (
(174,131,o),
(171,133,o),
(168,138,c),
(155,169,o),
(150,200,o),
(150,236,c),
(150,322,o),
(199,378,o),
(261,378,c),
(292,378,o),
(321,364,o),
(346,337,c),
(349,334,o),
(351,331,o),
(347,326,c),
(179,136,l)
);
}
);
width = 545;
}
);
unicode = 248;
},
{
glyphname = otilde;
lastChange = "2023-05-15 06:07:10 +0000";
layers = (
{
hints = (
{
horizontal = 1;
place = (470, 87);
place = (470, 87);
type = Stem;
},
{
horizontal = 1;
place = (623, -20);
target = down;
type = TopGhost;
},
{
horizontal = 1;
place = (-15, 56);
place = (-15, 56);
type = Stem;
},
{
horizontal = 1;
place = (378, 55);
place = (378, 55);
type = Stem;
},
{
place = (20, 106);
place = (20, 106);
type = Stem;
},
{
place = (375, 108);
place = (375, 108);
type = Stem;
}
);
layerId = m01;
shapes = (
{
closed = 1;
nodes = (
(382,-15,o),
(482,83,o),
(483,208,c),
(484,335,o),
(381,433,o),
(250,433,c),
(119,433,o),
(20,337,o),
(20,209,c),
(20,82,o),
(121,-15,o),
(253,-15,c)
);
},
{
closed = 1;
nodes = (
(192,41,o),
(126,124,o),
(126,239,c),
(126,322,o),
(176,378,o),
(236,378,c),
(308,378,o),
(375,294,o),
(375,184,c),
(375,97,o),
(325,41,o),
(265,41,c)
);
},
{
closed = 1;
nodes = (
(382,470,o),
(424,527,o),
(424,596,c),
(424,599,o),
(424,603,o),
(422,610,c),
(420,622,o),
(406,623,o),
(399,623,c),
(358,621,o),
(385,557,o),
(349,557,c),
(341,557,o),
(327,561,o),
(298,580,c),
(253,609,o),
(229,618,o),
(197,618,c),
(129,618,o),
(96,566,o),
(92,484,c),
(96,458,o),
(132,470,o),
(138,482,c),
(139,488,o),
(141,494,o),
(142,500,c),
(149,531,o),
(157,534,o),
(167,534,c),
(176,534,o),
(182,532,o),
(218,508,c),
(256,483,o),
(289,470,o),
(318,470,c)
);
}
);
width = 500;
}
);
unicode = 245;
},
{
glyphname = oe;
lastChange = "2023-05-15 06:07:10 +0000";
layers = (
{
hints = (
{
horizontal = 1;
place = (-17, 76);
place = (-17, 76);
type = Stem;
},
{
place = (380, 96);
place = (380, 96);
type = Stem;
},
{
horizontal = 1;
place = (252, 51);
place = (252, 51);
type = Stem;
},
{
horizontal = 1;
place = (383, 48);
place = (383, 48);
type = Stem;
},
{
place = (42, 108);
place = (42, 108);
type = Stem;
},
{
horizontal = 1;
place = (377, -20);
target = down;
type = TopGhost;
},
{
horizontal = 1;
place = (-17, 57);
place = (-17, 57);
type = Stem;
}
);
layerId = m01;
shapes = (
{
closed = 1;
nodes = (
(341,-17,o),
(393,3,o),
(433,46,c),
(463,5,o),
(505,-17,o),
(552,-17,c),
(586,-17,o),
(620,-6,o),
(652,14,c),
(681,33,o),
(712,59,o),
(737,87,c),
(746,96,o),
(747,101,o),
(744,108,c),
(743,112,o),
(735,119,o),
(731,123,c),
(717,140,o),
(709,128,o),
(704,123,c),
(654,76,o),
(622,59,o),
(597,59,c),
(536,59,o),
(479,133,o),
(476,241,c),
(476,248,o),
(480,252,o),
(494,252,c),
(729,252,l),
(734,252,o),
(752,254,o),
(752,272,c),
(752,291,l),
(736,305,o),
(732,312,o),
(724,332,c),
(697,399,o),
(647,431,o),
(571,431,c),
(513,431,o),
(468,413,o),
(426,371,c),
(424,368,o),
(423,367,o),
(423,368,c),
(387,410,o),
(335,431,o),
(276,431,c),
(146,431,o),
(42,329,o),
(42,205,c),
(42,77,o),
(145,-17,o),
(278,-17,c)
);
},
{
closed = 1;
nodes = (
(220,40,o),
(150,125,o),
(150,233,c),
(150,320,o),
(201,377,o),
(258,377,c),
(324,377,o),
(380,304,o),
(380,182,c),
(380,85,o),
(341,40,o),
(287,40,c)
);
},
{
closed = 1;
nodes = (
(483,303,o),
(483,306,o),
(484,312,c),
(496,361,o),
(522,383,o),
(556,383,c),
(590,383,o),
(620,354,o),
(625,305,c),
(625,304,o),
(617,303,o),
(615,303,c),
(493,303,l)
);
}
);
width = 775;
}
);
unicode = 339;
},
{
glyphname = p;
lastChange = "2023-05-15 06:41:04 +0000";
layers = (
{
hints = (
{
place = (82, 99);
place = (82, 99);
type = Stem;
},
{
horizontal = 1;
place = (-278, 54);
place = (-278, 54);
type = Stem;
},
{
horizontal = 1;
place = (-20, 63);
place = (-20, 63);
type = Stem;
},
{
horizontal = 1;
place = (346, 79);
place = (346, 79);
type = Stem;
},
{
place = (381, 101);
place = (381, 101);
type = Stem;
},
{
horizontal = 1;
place = (-279, 21);
target = up;
type = BottomGhost;
}
);
layerId = m01;
shapes = (
{
closed = 1;
nodes = (
(254,-279,o),
(267,-278,o),
(272,-269,c),
(276,-261,o),
(276,-244,o),
(273,-236,c),
(269,-225,o),
(254,-221,o),
(246,-221,c),
(232,-221,l),
(187,-221,o),
(181,-220,o),
(181,-126,c),
(181,-19,l),
(181,-10,o),
(185,-8,o),
(189,-9,c),
(213,-16,o),
(231,-20,o),
(254,-20,c),
(376,-20,o),
(482,94,o),
(482,221,c),
(482,326,o),
(408,425,o),
(317,425,c),
(278,425,o),
(243,408,o),
(187,369,c),
(182,366,o),
(181,372,o),
(181,378,c),
(181,430,l),
(181,461,o),
(152,456,o),
(137,447,c),
(26,380,l),
(24,378,o),
(23,377,o),
(22,375,c),
(12,365,o),
(12,338,o),
(31,334,c),
(42,331,o),
(53,326,o),
(65,323,c),
(81,319,o),
(82,318,o),
(82,300,c),
(82,277,l),
(82,-126,l),
(82,-220,o),
(74,-224,o),
(30,-224,c),
(20,-224,o),
(16,-223,o),
(10,-232,c),
(4,-242,o),
(3,-259,o),
(10,-269,c),
(16,-278,o),
(21,-278,o),
(30,-278,c),
(100,-278,o),
(181,-276,o),
(249,-279,c)
);
},
{
closed = 1;
nodes = (
(250,43,o),
(214,59,o),
(181,90,c),
(181,297,l),
(181,302,o),
(183,306,o),
(184,307,c),
(216,332,o),
(244,346,o),
(268,346,c),
(330,346,o),
(381,285,o),
(381,188,c),
(381,103,o),
(337,43,o),
(281,43,c)
);
}
);
width = 506;
}
);
unicode = 112;
},
{
glyphname = thorn;
lastChange = "2023-05-15 06:07:10 +0000";
layers = (
{
hints = (
{
horizontal = 1;
place = (-252, 55);
place = (-252, 55);
type = Stem;
},
{
horizontal = 1;
place = (-6, 63);
place = (-6, 63);
type = Stem;
},
{
horizontal = 1;
place = (364, 82);
place = (364, 82);
type = Stem;
},
{
place = (81, 100);
place = (81, 100);
type = Stem;
},
{
place = (389, 100);
place = (389, 100);
type = Stem;
}
);
layerId = m01;
shapes = (
{
closed = 1;
nodes = (
(73,-250,o),
(196,-251,o),
(250,-252,c),
(267,-252,o),
(277,-248,o),
(276,-231,c),
(274,-196,o),
(267,-196,o),
(234,-198,c),
(190,-201,o),
(181,-191,o),
(181,-104,c),
(181,-4,l),
(181,3,o),
(184,6,o),
(188,5,c),
(213,-3,o),
(235,-6,o),
(257,-6,c),
(382,-6,o),
(489,107,o),
(489,238,c),
(489,345,o),
(414,446,o),
(322,446,c),
(283,446,o),
(247,427,o),
(189,388,c),
(182,384,o),
(181,385,o),
(181,405,c),
(181,683,l),
(181,716,o),
(162,722,o),
(139,708,c),
(32,642,l),
(30,641,o),
(27,640,o),
(26,639,c),
(20,635,o),
(17,630,o),
(18,623,c),
(18,615,o),
(18,608,o),
(20,603,c),
(27,588,o),
(44,588,o),
(63,582,c),
(79,578,o),
(81,577,o),
(81,560,c),
(81,534,l),
(81,-104,l),
(81,-149,o),
(94,-197,o),
(28,-197,c),
(4,-198,o),
(3,-207,o),
(2,-226,c),
(1,-243,o),
(7,-253,o),
(26,-252,c)
);
},
{
closed = 1;
nodes = (
(254,57,o),
(214,74,o),
(181,104,c),
(181,322,l),
(214,350,o),
(247,364,o),
(272,364,c),
(334,364,o),
(389,297,o),
(389,200,c),
(389,113,o),
(341,57,o),
(285,57,c)
);
}
);
width = 523;
}
);
unicode = 254;
},
{
glyphname = q;
lastChange = "2023-05-15 06:07:10 +0000";
layers = (
{
hints = (
{
horizontal = 1;
place = (-277, 56);
place = (-277, 56);
type = Stem;
},
{
horizontal = 1;
place = (-21, 72);
place = (-21, 72);
type = Stem;
},
{
horizontal = 1;
place = (373, 53);
place = (373, 53);
type = Stem;
},
{
place = (29, 96);
place = (29, 96);
type = Stem;
},
{
place = (336, 98);
place = (336, 98);
type = Stem;
}
);
layerId = m01;
shapes = (
{
closed = 1;
nodes = (
(319,-275,o),
(416,-275,o),
(477,-277,c),
(484,-277,o),
(494,-278,o),
(498,-271,c),
(508,-254,o),
(505,-222,o),
(485,-222,c),
(475,-222,l),
(444,-222,o),
(434,-217,o),
(434,-124,c),
(434,298,l),
(434,341,l),
(434,368,o),
(436,394,o),
(442,415,c),
(432,432,o),
(406,427,o),
(399,423,c),
(392,417,o),
(384,406,o),
(376,396,c),
(367,385,o),
(372,389,o),
(361,394,c),
(324,413,o),
(288,426,o),
(253,426,c),
(126,426,o),
(29,322,o),
(29,191,c),
(29,73,o),
(101,-21,o),
(204,-21,c),
(247,-21,o),
(286,-3,o),
(329,30,c),
(335,34,o),
(334,30,o),
(336,17,c),
(336,-124,l),
(336,-219,o),
(329,-221,o),
(287,-221,c),
(273,-221,o),
(259,-220,o),
(246,-222,c),
(230,-229,o),
(231,-238,o),
(231,-252,c),
(231,-274,o),
(249,-277,o),
(260,-277,c)
);
},
{
closed = 1;
nodes = (
(181,51,o),
(125,119,o),
(125,218,c),
(125,319,o),
(173,373,o),
(242,373,c),
(282,373,o),
(316,348,o),
(328,313,c),
(332,302,o),
(334,295,o),
(335,282,c),
(339,228,o),
(337,196,o),
(337,117,c),
(337,108,o),
(335,94,o),
(334,92,c),
(302,65,o),
(271,51,o),
(247,51,c)
);
}
);
width = 507;
}
);
unicode = 113;
},
{
glyphname = r;
lastChange = "2023-05-15 06:07:10 +0000";
layers = (
{
hints = (
{
place = (90, 100);
place = (90, 100);
type = Stem;
},
{
horizontal = 1;
place = (-3, 52);
place = (-3, 52);
type = Stem;
},
{
place = (22, 168);
place = (22, 168);
type = Stem;
}
);
layerId = m01;
shapes = (
{
closed = 1;
nodes = (
(115,1,o),
(186,-3,o),
(256,-3,c),
(260,-3,o),
(265,-3,o),
(269,0,c),
(280,10,o),
(282,50,o),
(257,50,c),
(236,50,l),
(193,50,o),
(192,52,o),
(190,95,c),
(190,120,o),
(189,123,o),
(189,143,c),
(189,162,o),
(189,197,o),
(189,283,c),
(214,328,o),
(230,336,o),
(242,336,c),
(252,336,o),
(260,332,o),
(272,326,c),
(290,317,o),
(297,314,o),
(318,312,c),
(332,337,o),
(343,359,o),
(350,381,c),
(355,395,o),
(341,403,o),
(335,405,c),
(332,406,o),
(329,407,o),
(326,408,c),
(290,416,o),
(260,439,o),
(221,419,c),
(206,411,o),
(194,372,o),
(187,357,c),
(187,371,o),
(187,400,o),
(186,414,c),
(186,428,o),
(175,442,o),
(154,434,c),
(97,413,o),
(74,409,o),
(39,391,c),
(30,388,o),
(25,382,o),
(25,371,c),
(25,357,l),
(26,346,o),
(31,346,o),
(40,342,c),
(55,336,o),
(75,329,o),
(87,324,c),
(89,323,o),
(90,310,o),
(90,308,c),
(90,136,l),
(90,52,o),
(80,49,o),
(45,49,c),
(23,49,o),
(22,40,o),
(22,23,c),
(22,12,o),
(23,-4,o),
(44,-3,c)
);
}
);
width = 363;
}
);
unicode = 114;
},
{
glyphname = s;
lastChange = "2023-05-15 06:07:10 +0000";
layers = (
{
hints = (
{
horizontal = 1;
place = (-10, 50);
place = (-10, 50);
type = Stem;
},
{
horizontal = 1;
place = (379, 56);
place = (379, 56);
type = Stem;
},
{
place = (33, 84);
place = (33, 84);
type = Stem;
},
{
place = (208, 92);
place = (208, 92);
type = Stem;
}
);
layerId = m01;
shapes = (
{
closed = 1;
nodes = (
(73,-14,o),
(81,-10,o),
(89,-7,c),
(92,0,o),
(93,2,o),
(94,3,c),
(95,3,o),
(97,2,o),
(100,1,c),
(119,-7,o),
(140,-10,o),
(161,-10,c),
(235,-10,o),
(300,48,o),
(300,121,c),
(300,177,o),
(260,216,o),
(218,245,c),
(190,264,o),
(117,300,o),
(117,339,c),
(117,362,o),
(135,379,o),
(160,379,c),
(187,379,o),
(212,358,o),
(222,307,c),
(223,298,o),
(236,294,o),
(244,294,c),
(255,294,o),
(267,302,o),
(268,309,c),
(270,334,o),
(269,382,o),
(266,414,c),
(232,428,o),
(203,435,o),
(175,435,c),
(96,435,o),
(33,385,o),
(33,309,c),
(33,235,o),
(102,200,o),
(155,163,c),
(179,146,o),
(208,123,o),
(208,91,c),
(208,63,o),
(187,40,o),
(158,40,c),
(124,40,o),
(97,61,o),
(84,117,c),
(83,122,o),
(81,130,o),
(70,134,c),
(53,136,o),
(36,130,o),
(37,116,c),
(39,83,o),
(42,45,o),
(45,7,c),
(46,-6,o),
(55,-10,o),
(64,-12,c)
);
}
);
width = 327;
}
);
unicode = 115;
},
{
glyphname = scaron;
lastChange = "2023-05-15 06:07:10 +0000";
layers = (
{
hints = (
{
horizontal = 1;
place = (699, -20);
target = down;
type = TopGhost;
},
{
horizontal = 1;
place = (-10, 50);
place = (-10, 50);
type = Stem;
},
{
horizontal = 1;
place = (382, 56);
place = (382, 56);
type = Stem;
},
{
place = (29, 85);
place = (29, 85);
type = Stem;
},
{
place = (204, 92);
place = (204, 92);
type = Stem;
},
{
horizontal = 1;
place = (698, -20);
target = down;
type = TopGhost;
}
);
layerId = m01;
shapes = (
{
closed = 1;
nodes = (
(69,-14,o),
(77,-10,o),
(86,-7,c),
(88,0,o),
(89,2,o),
(90,3,c),
(92,3,o),
(94,2,o),
(96,1,c),
(115,-7,o),
(137,-10,o),
(157,-10,c),
(231,-10,o),
(296,49,o),
(296,122,c),
(296,179,o),
(256,218,o),
(214,246,c),
(186,266,o),
(114,303,o),
(114,342,c),
(114,365,o),
(131,382,o),
(156,382,c),
(184,382,o),
(209,360,o),
(218,310,c),
(220,301,o),
(232,297,o),
(241,297,c),
(251,297,o),
(264,304,o),
(264,311,c),
(266,336,o),
(265,385,o),
(263,417,c),
(228,431,o),
(199,438,o),
(172,438,c),
(92,438,o),
(29,388,o),
(29,312,c),
(29,237,o),
(99,202,o),
(151,164,c),
(175,147,o),
(204,124,o),
(204,92,c),
(204,63,o),
(183,40,o),
(154,40,c),
(121,40,o),
(93,62,o),
(80,118,c),
(79,123,o),
(77,131,o),
(66,135,c),
(50,137,o),
(32,131,o),
(33,117,c),
(35,84,o),
(38,46,o),
(42,7,c),
(43,-6,o),
(52,-10,o),
(60,-12,c)
);
},
{
closed = 1;
nodes = (
(191,502,l),
(200,502,o),
(217,504,o),
(223,511,c),
(317,679,l),
(321,690,o),
(307,698,o),
(296,698,c),
(290,698,o),
(281,696,o),
(275,692,c),
(172,596,l),
(50,691,l),
(45,697,o),
(34,699,o),
(27,699,c),
(15,699,o),
(2,695,o),
(8,678,c),
(101,516,l),
(105,507,o),
(123,502,o),
(135,502,c)
);
}
);
width = 324;
}
);
unicode = 353;
},
{
glyphname = germandbls;
lastChange = "2023-05-15 06:07:10 +0000";
layers = (
{
hints = (
{
horizontal = 1;
place = (-17, 67);
place = (-17, 67);
type = Stem;
},
{
place = (397, 112);
place = (397, 112);
type = Stem;
},
{
horizontal = 1;
place = (656, 55);
place = (656, 55);
type = Stem;
},
{
place = (78, 103);
place = (78, 103);
type = Stem;
},
{
place = (374, 102);
place = (374, 102);
type = Stem;
},
{
horizontal = 1;
place = (-4, 54);
place = (-4, 54);
type = Stem;
},
{
place = (397, 79);
place = (397, 79);
type = Stem;
}
);
layerId = m01;
shapes = (
{
closed = 1;
nodes = (
(423,-17,o),
(509,61,o),
(509,190,c),
(509,281,o),
(453,349,o),
(370,382,c),
(362,385,o),
(361,388,o),
(366,392,c),
(425,429,o),
(476,467,o),
(476,545,c),
(476,641,o),
(391,711,o),
(287,711,c),
(223,711,o),
(169,687,o),
(131,637,c),
(86,580,o),
(78,537,o),
(78,385,c),
(78,138,l),
(78,100,l),
(78,92,o),
(79,64,o),
(73,56,c),
(68,50,o),
(57,50,o),
(35,48,c),
(14,47,o),
(14,33,o),
(14,20,c),
(14,8,o),
(17,-5,o),
(37,-4,c),
(84,-2,o),
(167,-2,o),
(225,-4,c),
(235,-6,o),
(240,0,o),
(244,5,c),
(246,11,o),
(245,23,o),
(245,26,c),
(245,47,o),
(239,47,o),
(221,50,c),
(182,50,o),
(181,53,o),
(181,94,c),
(181,138,l),
(181,431,l),
(181,494,l),
(181,561,o),
(188,589,o),
(207,618,c),
(223,643,o),
(246,656,o),
(276,656,c),
(334,656,o),
(374,612,o),
(374,537,c),
(374,462,o),
(330,414,o),
(249,403,c),
(232,401,o),
(229,399,o),
(229,386,c),
(229,381,o),
(228,368,o),
(232,362,c),
(238,357,o),
(246,355,o),
(255,355,c),
(272,355,o),
(290,354,o),
(304,351,c),
(361,339,o),
(397,281,o),
(397,177,c),
(397,91,o),
(372,52,o),
(359,52,c),
(357,52,o),
(353,54,o),
(336,61,c),
(324,68,o),
(313,75,o),
(298,75,c),
(274,75,o),
(258,54,o),
(258,31,c),
(258,-2,o),
(290,-17,o),
(321,-17,c)
);
}
);
width = 545;
}
);
unicode = 223;
},
{
glyphname = t;
lastChange = "2023-05-15 06:07:10 +0000";
layers = (
{
hints = (
{
horizontal = 1;
place = (-11, 76);
place = (-11, 76);
type = Stem;
},
{
horizontal = 1;
place = (354, 73);
place = (354, 73);
type = Stem;
},
{
place = (66, 96);
place = (66, 96);
type = Stem;
}
);
layerId = m01;
shapes = (
{
closed = 1;
nodes = (
(233,-11,o),
(276,25,o),
(302,83,c),
(307,98,o),
(308,101,o),
(299,112,c),
(292,119,o),
(267,128,o),
(260,110,c),
(241,75,o),
(224,65,o),
(211,65,c),
(177,65,o),
(162,80,o),
(162,182,c),
(162,338,l),
(162,351,o),
(168,354,o),
(172,354,c),
(255,352,l),
(269,352,o),
(274,354,o),
(280,365,c),
(284,375,o),
(288,389,o),
(290,399,c),
(296,420,o),
(278,427,o),
(268,427,c),
(171,427,l),
(169,428,o),
(162,428,o),
(162,430,c),
(160,452,o),
(161,496,o),
(162,518,c),
(163,543,o),
(120,540,o),
(116,521,c),
(94,460,o),
(67,418,o),
(33,401,c),
(30,400,o),
(23,395,o),
(20,389,c),
(16,380,o),
(20,366,o),
(26,356,c),
(41,354,o),
(47,353,o),
(61,352,c),
(65,351,o),
(66,349,o),
(66,339,c),
(66,159,l),
(66,120,l),
(66,45,o),
(112,-11,o),
(180,-11,c)
);
}
);
width = 322;
}
);
unicode = 116;
},
{
glyphname = u;
lastChange = "2023-05-15 06:41:04 +0000";
layers = (
{
hints = (
{
horizontal = 1;
place = (-10, 77);
place = (-10, 77);
type = Stem;
},
{
place = (82, 100);
place = (82, 100);
type = Stem;
},
{
place = (357, 98);
place = (357, 98);
type = Stem;
}
);
layerId = m01;
shapes = (
{
closed = 1;
nodes = (
(259,-10,o),
(305,23,o),
(347,53,c),
(355,59,o),
(356,58,o),
(356,51,c),
(357,37,o),
(357,19,o),
(358,17,c),
(359,-12,o),
(382,-10,o),
(399,-6,c),
(433,1,o),
(481,17,o),
(511,30,c),
(534,35,o),
(531,84,o),
(504,80,c),
(498,78,o),
(490,76,o),
(484,74,c),
(471,71,o),
(455,66,o),
(455,85,c),
(455,115,l),
(455,421,l),
(455,441,o),
(438,447,o),
(424,446,c),
(388,442,o),
(321,427,o),
(280,418,c),
(260,414,o),
(263,382,o),
(277,374,c),
(296,371,o),
(314,368,o),
(333,365,c),
(356,360,o),
(357,328,o),
(357,310,c),
(357,302,o),
(357,294,o),
(357,288,c),
(357,124,l),
(357,120,o),
(355,116,o),
(354,112,c),
(317,84,o),
(281,67,o),
(255,67,c),
(199,67,o),
(182,84,o),
(182,185,c),
(182,420,l),
(182,430,o),
(175,449,o),
(154,445,c),
(119,438,o),
(68,421,o),
(38,414,c),
(10,408,o),
(21,372,o),
(29,371,c),
(42,367,o),
(55,364,o),
(68,360,c),
(80,356,o),
(82,352,o),
(82,335,c),
(82,132,l),
(82,48,o),
(118,-10,o),
(203,-10,c)
);
}
);
width = 534;
}
);
unicode = 117;
},
{
glyphname = uacute;
lastChange = "2023-05-15 06:07:10 +0000";
layers = (
{
hints = (
{
horizontal = 1;
place = (-10, 77);
place = (-10, 77);
type = Stem;
},
{
horizontal = 1;
place = (691, -20);
target = down;
type = TopGhost;
},
{
place = (82, 100);
place = (82, 100);
type = Stem;
},
{
place = (357, 98);
place = (357, 98);
type = Stem;
}
);
layerId = m01;
shapes = (
{
closed = 1;
nodes = (
(259,-10,o),
(305,23,o),
(347,53,c),
(355,59,o),
(356,58,o),
(356,51,c),
(357,37,o),
(357,19,o),
(358,17,c),
(359,-12,o),
(382,-10,o),
(399,-6,c),
(433,1,o),
(481,17,o),
(511,30,c),
(534,35,o),
(531,84,o),
(504,80,c),
(498,78,o),
(490,76,o),
(484,74,c),
(471,71,o),
(455,66,o),
(455,85,c),
(455,115,l),
(455,421,l),
(455,441,o),
(438,447,o),
(424,446,c),
(388,442,o),
(321,427,o),
(280,418,c),
(260,414,o),
(263,382,o),
(277,374,c),
(296,371,o),
(314,368,o),
(333,365,c),
(356,360,o),
(357,328,o),
(357,310,c),
(357,302,o),
(357,294,o),
(357,288,c),
(357,124,l),
(357,120,o),
(355,116,o),
(354,112,c),
(317,84,o),
(281,67,o),
(255,67,c),
(199,67,o),
(182,84,o),
(182,185,c),
(182,420,l),
(182,430,o),
(175,449,o),
(154,445,c),
(119,438,o),
(68,421,o),
(38,414,c),
(10,408,o),
(21,372,o),
(29,371,c),
(42,367,o),
(55,364,o),
(68,360,c),
(80,356,o),
(82,352,o),
(82,335,c),
(82,132,l),
(82,48,o),
(118,-10,o),
(203,-10,c)
);
},
{
closed = 1;
nodes = (
(250,494,o),
(391,662,o),
(393,665,c),
(393,666,l),
(393,667,o),
(394,669,o),
(394,671,c),
(397,685,o),
(383,691,o),
(370,691,c),
(283,691,l),
(272,691,o),
(261,683,o),
(255,672,c),
(207,512,l),
(199,485,o),
(238,482,o),
(250,494,c)
);
}
);
width = 534;
}
);
unicode = 250;
},
{
glyphname = ucircumflex;
lastChange = "2023-05-15 06:07:10 +0000";
layers = (
{
hints = (
{
horizontal = 1;
place = (-10, 77);
place = (-10, 77);
type = Stem;
},
{
place = (82, 100);
place = (82, 100);
type = Stem;
},
{
place = (357, 98);
place = (357, 98);
type = Stem;
}
);
layerId = m01;
shapes = (
{
closed = 1;
nodes = (
(259,-10,o),
(305,23,o),
(347,53,c),
(355,59,o),
(356,58,o),
(356,51,c),
(357,37,o),
(357,19,o),
(358,17,c),
(359,-12,o),
(382,-10,o),
(399,-6,c),
(433,1,o),
(481,17,o),
(511,30,c),
(534,35,o),
(531,84,o),
(504,80,c),
(498,78,o),
(490,76,o),
(484,74,c),
(471,71,o),
(455,66,o),
(455,85,c),
(455,115,l),
(455,421,l),
(455,441,o),
(438,447,o),
(424,446,c),
(388,442,o),
(321,427,o),
(280,418,c),
(260,414,o),
(263,382,o),
(277,374,c),
(296,371,o),
(314,368,o),
(333,365,c),
(356,360,o),
(357,328,o),
(357,310,c),
(357,302,o),
(357,294,o),
(357,288,c),
(357,124,l),
(357,120,o),
(355,116,o),
(354,112,c),
(317,84,o),
(281,67,o),
(255,67,c),
(199,67,o),
(182,84,o),
(182,185,c),
(182,420,l),
(182,430,o),
(175,449,o),
(154,445,c),
(119,438,o),
(68,421,o),
(38,414,c),
(10,408,o),
(21,372,o),
(29,371,c),
(42,367,o),
(55,364,o),
(68,360,c),
(80,356,o),
(82,352,o),
(82,335,c),
(82,132,l),
(82,48,o),
(118,-10,o),
(203,-10,c)
);
},
{
closed = 1;
nodes = (
(406,499,o),
(403,513,o),
(399,522,c),
(312,664,l),
(305,675,o),
(300,677,o),
(288,678,c),
(274,679,o),
(230,678,o),
(222,677,c),
(215,674,o),
(208,670,o),
(203,663,c),
(115,518,l),
(104,500,o),
(139,486,o),
(154,500,c),
(255,591,l),
(363,500,l),
(370,494,o),
(383,494,o),
(391,496,c)
);
}
);
width = 534;
}
);
unicode = 251;
},
{
glyphname = udieresis;
lastChange = "2023-05-15 06:07:10 +0000";
layers = (
{
hints = (
{
horizontal = 1;
place = (497, 131);
place = (497, 131);
type = Stem;
},
{
place = (289, 133);
place = (289, 133);
type = Stem;
},
{
place = (125, 133);
place = (125, 133);
type = Stem;
},
{
horizontal = 1;
place = (-10, 77);
place = (-10, 77);
type = Stem;
},
{
place = (357, 98);
place = (357, 98);
type = Stem;
},
{
place = (82, 100);
place = (82, 100);
type = Stem;
}
);
layerId = m01;
shapes = (
{
closed = 1;
nodes = (
(259,-10,o),
(305,23,o),
(347,53,c),
(355,59,o),
(356,58,o),
(356,51,c),
(357,37,o),
(357,19,o),
(358,17,c),
(359,-12,o),
(382,-10,o),
(399,-6,c),
(433,1,o),
(481,17,o),
(511,30,c),
(534,35,o),
(531,84,o),
(504,80,c),
(498,78,o),
(490,76,o),
(484,74,c),
(471,71,o),
(455,66,o),
(455,85,c),
(455,115,l),
(455,421,l),
(455,441,o),
(438,447,o),
(424,446,c),
(388,442,o),
(321,427,o),
(280,418,c),
(260,414,o),
(263,382,o),
(277,374,c),
(296,371,o),
(314,368,o),
(333,365,c),
(356,360,o),
(357,328,o),
(357,310,c),
(357,302,o),
(357,294,o),
(357,288,c),
(357,124,l),
(357,120,o),
(355,116,o),
(354,112,c),
(317,84,o),
(281,67,o),
(255,67,c),
(199,67,o),
(182,84,o),
(182,185,c),
(182,420,l),
(182,430,o),
(175,449,o),
(154,445,c),
(119,438,o),
(68,421,o),
(38,414,c),
(10,408,o),
(21,372,o),
(29,371,c),
(42,367,o),
(55,364,o),
(68,360,c),
(80,356,o),
(82,352,o),
(82,335,c),
(82,132,l),
(82,48,o),
(118,-10,o),
(203,-10,c)
);
},
{
closed = 1;
nodes = (
(228,497,o),
(258,525,o),
(258,563,c),
(258,598,o),
(228,628,o),
(191,628,c),
(155,628,o),
(125,598,o),
(125,563,c),
(125,525,o),
(155,497,o),
(191,497,c)
);
},
{
closed = 1;
nodes = (
(393,497,o),
(422,527,o),
(422,563,c),
(422,598,o),
(393,628,o),
(356,628,c),
(319,628,o),
(289,598,o),
(289,563,c),
(289,526,o),
(319,497,o),
(356,497,c)
);
}
);
width = 534;
}
);
unicode = 252;
},
{
glyphname = ugrave;
lastChange = "2023-05-15 06:07:10 +0000";
layers = (
{
hints = (
{
horizontal = 1;
place = (688, -20);
target = down;
type = TopGhost;
},
{
horizontal = 1;
place = (-10, 77);
place = (-10, 77);
type = Stem;
},
{
place = (82, 100);
place = (82, 100);
type = Stem;
},
{
place = (357, 98);
place = (357, 98);
type = Stem;
},
{
horizontal = 1;
place = (687, -20);
target = down;
type = TopGhost;
}
);
layerId = m01;
shapes = (
{
closed = 1;
nodes = (
(259,-10,o),
(305,23,o),
(347,53,c),
(355,59,o),
(356,58,o),
(356,51,c),
(357,37,o),
(357,19,o),
(358,17,c),
(359,-12,o),
(382,-10,o),
(399,-6,c),
(433,1,o),
(481,17,o),
(511,30,c),
(534,35,o),
(531,84,o),
(504,80,c),
(498,78,o),
(490,76,o),
(484,74,c),
(471,71,o),
(455,66,o),
(455,85,c),
(455,115,l),
(455,421,l),
(455,441,o),
(438,447,o),
(424,446,c),
(388,442,o),
(321,427,o),
(280,418,c),
(260,414,o),
(263,382,o),
(277,374,c),
(296,371,o),
(314,368,o),
(333,365,c),
(356,360,o),
(357,328,o),
(357,310,c),
(357,302,o),
(357,294,o),
(357,288,c),
(357,124,l),
(357,120,o),
(355,116,o),
(354,112,c),
(317,84,o),
(281,67,o),
(255,67,c),
(199,67,o),
(182,84,o),
(182,185,c),
(182,420,l),
(182,430,o),
(175,449,o),
(154,445,c),
(119,438,o),
(68,421,o),
(38,414,c),
(10,408,o),
(21,372,o),
(29,371,c),
(42,367,o),
(55,364,o),
(68,360,c),
(80,356,o),
(82,352,o),
(82,335,c),
(82,132,l),
(82,48,o),
(118,-10,o),
(203,-10,c)
);
},
{
closed = 1;
nodes = (
(302,490,o),
(338,484,o),
(336,514,c),
(326,556,o),
(304,630,o),
(287,675,c),
(279,688,o),
(267,688,o),
(259,688,c),
(184,687,l),
(172,687,o),
(145,669,o),
(162,651,c),
(204,606,o),
(262,540,o),
(294,498,c)
);
}
);
width = 534;
}
);
unicode = 249;
},
{
glyphname = v;
lastChange = "2023-05-15 06:41:04 +0000";
layers = (
{
hints = (
{
horizontal = 1;
place = (369, 50);
place = (369, 50);
type = Stem;
}
);
layerId = m01;
shapes = (
{
closed = 1;
nodes = (
(284,-8,o),
(286,0,o),
(290,7,c),
(410,276,l),
(445,357,o),
(454,366,o),
(489,370,c),
(497,371,o),
(503,384,o),
(504,394,c),
(504,405,o),
(499,419,o),
(486,419,c),
(432,418,o),
(357,418,o),
(312,419,c),
(306,419,o),
(299,416,o),
(297,408,c),
(294,399,o),
(295,385,o),
(298,378,c),
(301,370,o),
(306,369,o),
(314,369,c),
(325,369,o),
(383,366,o),
(367,333,c),
(343,283,o),
(305,188,o),
(282,135,c),
(279,126,o),
(277,121,o),
(272,132,c),
(258,162,o),
(179,346,o),
(179,359,c),
(179,367,o),
(180,369,o),
(217,369,c),
(226,369,l),
(238,369,o),
(244,383,o),
(244,394,c),
(244,404,o),
(238,419,o),
(228,419,c),
(165,416,o),
(42,421,o),
(22,419,c),
(18,419,o),
(14,416,o),
(12,411,c),
(3,398,o),
(4,373,o),
(25,369,c),
(51,365,o),
(62,366,o),
(75,339,c),
(79,331,o),
(84,318,o),
(94,296,c),
(221,11,l),
(225,3,o),
(226,-4,o),
(237,-8,c),
(243,-11,o),
(266,-11,o),
(273,-10,c)
);
}
);
width = 512;
}
);
unicode = 118;
},
{
glyphname = w;
lastChange = "2023-05-15 06:07:10 +0000";
layers = (
{
hints = (
{
horizontal = 1;
place = (367, 50);
place = (367, 50);
type = Stem;
},
{
horizontal = 1;
place = (416, -20);
target = down;
type = TopGhost;
}
);
layerId = m01;
shapes = (
{
closed = 1;
nodes = (
(241,-12,o),
(261,-13,o),
(267,-11,c),
(278,-9,o),
(280,-4,o),
(283,4,c),
(316,79,o),
(347,161,o),
(383,235,c),
(386,242,o),
(389,240,o),
(393,232,c),
(488,6,l),
(493,-5,o),
(499,-7,o),
(510,-8,c),
(518,-10,o),
(529,-10,o),
(535,-9,c),
(544,-8,o),
(550,-8,o),
(553,1,c),
(595,104,o),
(638,208,o),
(682,311,c),
(690,330,o),
(697,346,o),
(701,352,c),
(711,365,o),
(730,366,o),
(744,367,c),
(762,369,o),
(767,421,o),
(737,417,c),
(679,416,o),
(610,416,o),
(568,417,c),
(546,417,o),
(552,371,o),
(564,367,c),
(571,367,o),
(579,367,o),
(587,367,c),
(610,366,o),
(631,364,o),
(625,334,c),
(623,322,o),
(603,272,o),
(582,223,c),
(566,184,o),
(552,151,o),
(546,137,c),
(544,132,o),
(540,127,o),
(537,136,c),
(462,310,l),
(450,338,o),
(448,346,o),
(448,353,c),
(448,361,o),
(453,366,o),
(493,367,c),
(506,376,o),
(510,420,o),
(478,417,c),
(472,416,l),
(419,411,o),
(322,416,o),
(277,417,c),
(266,417,o),
(261,402,o),
(262,391,c),
(262,381,o),
(269,367,o),
(279,367,c),
(286,367,o),
(286,367,o),
(292,366,c),
(308,366,o),
(316,363,o),
(328,352,c),
(339,341,o),
(348,322,o),
(355,308,c),
(280,134,l),
(276,126,o),
(273,124,o),
(269,134,c),
(248,185,o),
(182,340,o),
(182,356,c),
(182,361,o),
(183,367,o),
(220,368,c),
(237,369,o),
(237,390,o),
(234,401,c),
(230,413,o),
(226,417,o),
(214,417,c),
(151,414,o),
(93,416,o),
(31,416,c),
(23,417,o),
(18,418,o),
(12,409,c),
(5,398,o),
(6,368,o),
(21,367,c),
(64,364,o),
(68,363,o),
(98,293,c),
(218,7,l),
(222,-2,o),
(224,-8,o),
(236,-11,c)
);
}
);
width = 769;
}
);
unicode = 119;
},
{
glyphname = x;
lastChange = "2023-05-15 06:07:10 +0000";
layers = (
{
hints = (
{
horizontal = 1;
place = (-2, 48);
place = (-2, 48);
type = Stem;
},
{
horizontal = 1;
place = (369, 48);
place = (369, 48);
type = Stem;
},
{
horizontal = 1;
place = (-3, 21);
target = up;
type = BottomGhost;
}
);
layerId = m01;
shapes = (
{
closed = 1;
nodes = (
(226,-4,o),
(232,4,o),
(232,20,c),
(232,30,o),
(226,44,o),
(215,45,c),
(207,45,l),
(170,48,o),
(166,53,o),
(166,62,c),
(166,75,o),
(235,146,o),
(247,160,c),
(250,163,o),
(253,158,o),
(256,154,c),
(310,82,l),
(314,76,o),
(333,57,o),
(333,50,c),
(333,44,o),
(328,45,o),
(309,45,c),
(301,45,l),
(288,45,o),
(283,36,o),
(283,21,c),
(283,10,o),
(285,-3,o),
(303,-3,c),
(360,-1,o),
(453,-1,o),
(503,-2,c),
(524,-3,o),
(523,8,o),
(523,19,c),
(523,35,o),
(521,45,o),
(508,47,c),
(467,49,o),
(451,57,o),
(425,89,c),
(390,134,l),
(378,148,o),
(362,171,o),
(316,228,c),
(315,229,o),
(315,231,o),
(317,234,c),
(354,275,l),
(392,315,l),
(428,355,o),
(444,371,o),
(500,369,c),
(524,369,o),
(524,394,o),
(518,407,c),
(513,416,o),
(505,418,o),
(496,417,c),
(456,415,o),
(386,416,o),
(312,417,c),
(307,418,o),
(295,419,o),
(292,403,c),
(292,398,o),
(291,388,o),
(294,380,c),
(300,367,o),
(302,371,o),
(311,369,c),
(343,368,o),
(345,364,o),
(345,357,c),
(345,336,o),
(303,293,o),
(288,278,c),
(284,274,o),
(279,267,o),
(276,271,c),
(266,281,o),
(223,335,o),
(209,359,c),
(202,371,o),
(217,370,o),
(229,370,c),
(238,370,l),
(252,370,o),
(263,418,o),
(232,417,c),
(228,417,l),
(182,416,o),
(91,414,o),
(39,417,c),
(14,418,o),
(19,373,o),
(32,369,c),
(84,367,o),
(92,361,o),
(138,301,c),
(208,209,l),
(212,204,o),
(212,200,o),
(209,196,c),
(134,112,l),
(82,53,o),
(70,47,o),
(27,46,c),
(14,46,o),
(9,33,o),
(9,21,c),
(11,7,o),
(11,-2,o),
(28,-2,c),
(75,-1,o),
(163,0,o),
(214,-3,c)
);
}
);
width = 536;
}
);
unicode = 120;
},
{
glyphname = y;
lastChange = "2023-05-15 06:41:04 +0000";
layers = (
{
hints = (
{
horizontal = 1;
place = (369, 50);
place = (369, 50);
type = Stem;
},
{
horizontal = 1;
place = (-264, 21);
target = up;
type = BottomGhost;
},
{
horizontal = 1;
place = (418, -20);
target = down;
type = TopGhost;
}
);
layerId = m01;
shapes = (
{
closed = 1;
nodes = (
(147,-264,o),
(172,-256,o),
(185,-240,c),
(199,-222,o),
(210,-204,o),
(222,-178,c),
(233,-152,o),
(246,-120,o),
(263,-74,c),
(382,250,l),
(421,356,o),
(437,367,o),
(469,369,c),
(473,370,o),
(479,371,o),
(482,378,c),
(489,393,o),
(486,419,o),
(461,419,c),
(409,419,o),
(372,418,o),
(314,418,c),
(311,418,o),
(308,419,o),
(304,418,c),
(280,414,o),
(291,375,o),
(301,369,c),
(347,369,o),
(350,362,o),
(350,345,c),
(350,326,o),
(334,287,o),
(327,269,c),
(278,136,l),
(274,125,o),
(270,121,o),
(267,128,c),
(240,196,o),
(219,259,o),
(188,326,c),
(184,336,o),
(169,361,o),
(187,366,c),
(196,369,o),
(210,369,o),
(217,369,c),
(234,373,o),
(244,420,o),
(208,419,c),
(180,419,o),
(93,419,o),
(44,419,c),
(41,419,o),
(33,419,o),
(31,419,c),
(-3,420,o),
(6,373,o),
(22,370,c),
(63,366,o),
(65,366,o),
(99,284,c),
(219,-5,l),
(207,-67,o),
(201,-137,o),
(128,-156,c),
(98,-165,o),
(71,-177,o),
(71,-207,c),
(71,-236,o),
(98,-264,o),
(128,-264,c)
);
}
);
width = 491;
}
);
unicode = 121;
},
{
glyphname = yacute;
lastChange = "2023-05-15 06:07:10 +0000";
layers = (
{
hints = (
{
horizontal = 1;
place = (691, -20);
target = down;
type = TopGhost;
},
{
horizontal = 1;
place = (369, 50);
place = (369, 50);
type = Stem;
},
{
horizontal = 1;
place = (-264, 21);
target = up;
type = BottomGhost;
},
{
horizontal = 1;
place = (418, -20);
target = down;
type = TopGhost;
}
);
layerId = m01;
shapes = (
{
closed = 1;
nodes = (
(147,-264,o),
(171,-256,o),
(185,-240,c),
(199,-222,o),
(210,-204,o),
(221,-178,c),
(233,-152,o),
(246,-120,o),
(263,-74,c),
(382,250,l),
(421,356,o),
(437,367,o),
(468,369,c),
(473,370,o),
(479,371,o),
(482,378,c),
(488,393,o),
(486,419,o),
(461,419,c),
(408,419,o),
(372,418,o),
(314,418,c),
(311,418,o),
(308,419,o),
(304,418,c),
(280,414,o),
(290,375,o),
(301,369,c),
(347,369,o),
(350,362,o),
(350,345,c),
(350,326,o),
(334,287,o),
(327,269,c),
(278,136,l),
(274,125,o),
(270,121,o),
(267,128,c),
(240,196,o),
(218,259,o),
(188,326,c),
(183,336,o),
(169,361,o),
(187,366,c),
(196,369,o),
(209,369,o),
(217,369,c),
(234,373,o),
(244,420,o),
(208,419,c),
(179,419,o),
(92,419,o),
(43,419,c),
(41,419,o),
(33,419,o),
(31,419,c),
(-4,420,o),
(6,373,o),
(22,370,c),
(63,366,o),
(65,366,o),
(99,284,c),
(218,-5,l),
(207,-67,o),
(201,-137,o),
(128,-156,c),
(97,-165,o),
(70,-177,o),
(70,-207,c),
(70,-236,o),
(98,-264,o),
(128,-264,c)
);
},
{
closed = 1;
nodes = (
(231,492,o),
(372,662,o),
(373,665,c),
(374,666,l),
(374,667,o),
(374,669,o),
(375,670,c),
(378,685,o),
(364,691,o),
(351,691,c),
(264,691,l),
(252,691,o),
(242,683,o),
(236,672,c),
(188,511,l),
(180,483,o),
(219,480,o),
(231,492,c)
);
}
);
width = 490;
}
);
unicode = 253;
},
{
glyphname = ydieresis;
lastChange = "2023-05-15 06:07:10 +0000";
layers = (
{
hints = (
{
horizontal = 1;
place = (489, 138);
place = (489, 138);
type = Stem;
},
{
place = (275, 139);
place = (275, 139);
type = Stem;
},
{
place = (101, 139);
place = (101, 139);
type = Stem;
},
{
horizontal = 1;
place = (369, 50);
place = (369, 50);
type = Stem;
},
{
horizontal = 1;
place = (-264, 21);
target = up;
type = BottomGhost;
},
{
horizontal = 1;
place = (418, -20);
target = down;
type = TopGhost;
}
);
layerId = m01;
shapes = (
{
closed = 1;
nodes = (
(147,-264,o),
(171,-256,o),
(185,-240,c),
(199,-222,o),
(210,-204,o),
(221,-178,c),
(233,-152,o),
(246,-120,o),
(263,-74,c),
(382,250,l),
(421,356,o),
(437,367,o),
(468,369,c),
(473,370,o),
(479,371,o),
(482,378,c),
(488,393,o),
(486,419,o),
(461,419,c),
(408,419,o),
(372,418,o),
(314,418,c),
(311,418,o),
(308,419,o),
(304,418,c),
(280,414,o),
(290,375,o),
(301,369,c),
(347,369,o),
(350,362,o),
(350,345,c),
(350,326,o),
(334,287,o),
(327,269,c),
(278,136,l),
(274,125,o),
(270,121,o),
(267,128,c),
(240,196,o),
(218,259,o),
(188,326,c),
(183,336,o),
(169,361,o),
(187,366,c),
(196,369,o),
(209,369,o),
(217,369,c),
(234,373,o),
(244,420,o),
(208,419,c),
(179,419,o),
(92,419,o),
(43,419,c),
(41,419,o),
(33,419,o),
(31,419,c),
(-4,420,o),
(6,373,o),
(22,370,c),
(63,366,o),
(65,366,o),
(99,284,c),
(218,-5,l),
(207,-67,o),
(201,-137,o),
(128,-156,c),
(97,-165,o),
(70,-177,o),
(70,-207,c),
(70,-236,o),
(98,-264,o),
(128,-264,c)
);
},
{
closed = 1;
nodes = (
(209,489,o),
(240,519,o),
(240,558,c),
(240,596,o),
(209,627,o),
(171,627,c),
(133,627,o),
(101,596,o),
(101,558,c),
(101,519,o),
(133,489,o),
(171,489,c)
);
},
{
closed = 1;
nodes = (
(383,489,o),
(414,520,o),
(414,558,c),
(414,596,o),
(383,627,o),
(344,627,c),
(306,627,o),
(275,596,o),
(275,558,c),
(275,520,o),
(306,489,o),
(344,489,c)
);
}
);
width = 494;
}
);
unicode = 255;
},
